M48
;DRILL file {KiCad 4.0.7} date 05/05/18 08:32:35
;FORMAT={2:4/ absolute / inch / suppress leading zeros}
FMAT,2
INCH,TZ
T1C0.013
T2C0.016
T3C0.020
T4C0.024
T5C0.028
T6C0.031
T7C0.039
T8C0.060
T9C0.126
%
G90
G05
M72
T1
X26038Y-45115
X26038Y-45626
X26038Y-46138
X26038Y-46650
X26038Y-47162
X26038Y-47674
X26038Y-48185
X26038Y-48697
X26550Y-45115
X26550Y-45626
X26550Y-46138
X26550Y-46650
X26550Y-47162
X26550Y-47674
X26550Y-48185
X26550Y-48697
X27062Y-45115
X27062Y-45626
X27062Y-46138
X27062Y-46650
X27062Y-47162
X27062Y-47674
X27062Y-48185
X27062Y-48697
X27574Y-45115
X27574Y-45626
X27574Y-46138
X27574Y-46650
X27574Y-47162
X27574Y-47674
X27574Y-48185
X27574Y-48697
T2
X20750Y-51000
X21000Y-50250
X22462Y-45135
X22500Y-43500
X22697Y-45344
X23000Y-48000
X23000Y-49000
X23220Y-46461
X23250Y-45500
X23852Y-46968
X24256Y-45000
X24750Y-47750
X24983Y-48264
X26500Y-32750
X27500Y-23000
X27750Y-24750
X28250Y-49750
X28750Y-45500
X29000Y-49750
X29576Y-41614
X29750Y-23000
X29750Y-25500
X29944Y-41297
X30000Y-22500
X30000Y-40250
X30020Y-40992
X30250Y-41750
X30750Y-25000
X31000Y-24750
X31000Y-25417
X31018Y-41894
X31500Y-43750
X31750Y-39750
X32000Y-33000
X32000Y-35500
X32000Y-40500
X32007Y-41743
X32154Y-43236
X32239Y-43540
X32250Y-42000
X32380Y-43821
X32500Y-29685
X32500Y-30000
X32500Y-41250
X32721Y-43764
X32750Y-29435
X32965Y-43962
X33000Y-40500
X33250Y-41750
X33279Y-43936
X33338Y-44318
X33585Y-44011
X33755Y-41719
X33826Y-44826
X34000Y-38750
X34000Y-44000
X34044Y-41560
X34331Y-41690
X34433Y-42000
X34500Y-44250
X34500Y-44750
X34748Y-42000
X34750Y-30252
X35000Y-42250
X35022Y-43334
X35250Y-33000
X35250Y-33500
X35250Y-35250
X35252Y-42821
X35500Y-32500
X35500Y-42500
X35752Y-32007
X35894Y-31726
X36181Y-43454
X36277Y-43098
X36500Y-40750
X36500Y-48500
X37500Y-46500
X38000Y-40250
X38049Y-33000
X40356Y-35497
X40750Y-46250
X41249Y-40500
X41460Y-38971
X41485Y-40804
X41668Y-40103
X41698Y-39196
X41746Y-39750
X41752Y-40625
X42250Y-39750
X42500Y-36000
X42750Y-40750
X43500Y-37750
X43500Y-38250
X43722Y-37190
X43750Y-38500
X43750Y-44500
X44000Y-37750
X44231Y-37527
X44414Y-37271
X44448Y-40782
X44500Y-28500
X44750Y-32250
X44750Y-37250
X44750Y-46250
X44754Y-40855
X44926Y-40551
X44933Y-42256
X45155Y-42829
X45241Y-40556
X45759Y-39741
X46135Y-32376
X46411Y-33750
X46500Y-38500
X46819Y-40248
X47000Y-28500
X47000Y-36250
X47500Y-44500
X48000Y-45500
X48250Y-39000
X48250Y-41250
X48500Y-35750
X48500Y-38750
X48500Y-41498
X48528Y-36150
X48750Y-31250
X48750Y-38500
X48995Y-42629
X49053Y-35947
X49250Y-34500
X49250Y-38500
X49480Y-42845
X49750Y-38500
X50000Y-26250
X50000Y-27000
X50000Y-34252
X50364Y-26635
X50750Y-20450
X50906Y-37380
X51250Y-36750
X51250Y-37498
X51500Y-38498
X51548Y-40570
X51715Y-40837
X51750Y-37250
X51750Y-40318
X51750Y-41250
X51750Y-44500
X51931Y-38498
X52181Y-41825
X52250Y-37498
X52250Y-46250
X52552Y-42196
X52696Y-38252
X52750Y-41500
X52937Y-42313
X53052Y-42696
X53072Y-38428
X53183Y-40750
X53498Y-40750
X53500Y-42750
X53732Y-40283
X53750Y-37750
X53750Y-38065
X54000Y-40000
X54421Y-39752
X54500Y-35000
X54500Y-44250
X54500Y-45000
X54697Y-43803
X54750Y-39500
X55000Y-46500
X55500Y-39750
X55500Y-43998
X55533Y-34073
X55563Y-38937
X55748Y-47000
X55750Y-33750
X55750Y-36250
X56000Y-27000
X56000Y-43998
X56250Y-40000
X56250Y-47250
X56750Y-40000
X56750Y-44000
X57750Y-27500
X58000Y-35502
X58500Y-33750
X58500Y-35250
X58500Y-44750
X59750Y-25000
X59750Y-34002
X63750Y-25250
X65250Y-25500
X66650Y-43757
X66929Y-39252
X67027Y-43650
X67407Y-43763
X67500Y-39250
X67809Y-43736
X68139Y-43002
X68498Y-43000
X68565Y-44002
X68621Y-44765
X68750Y-42500
X68750Y-49250
X68844Y-44987
X68880Y-44002
X69250Y-44000
X69250Y-46000
X70553Y-45696
X70748Y-44609
X70919Y-45748
X71000Y-44250
X71500Y-44750
X71750Y-44250
X72000Y-39000
X72000Y-44000
X73250Y-40000
X73250Y-40500
X73250Y-41250
X73527Y-41973
X73570Y-42639
X73867Y-39466
X74000Y-39752
X74500Y-28500
X74998Y-28248
X75000Y-26500
X75500Y-29500
X76000Y-28000
X76500Y-29250
X76500Y-29750
X76500Y-30250
X76750Y-45500
X76877Y-47274
X76993Y-46897
X77002Y-45752
X77058Y-46065
X77072Y-46428
X82000Y-40000
X82000Y-41250
X82303Y-40084
X82315Y-41250
X82562Y-40264
X82750Y-41250
X83000Y-40250
X83000Y-49500
X83250Y-41250
X83310Y-49446
X83315Y-40250
X83750Y-41250
X83750Y-50750
X84002Y-50500
T3
X72000Y-37502
X72000Y-38250
T4
X21250Y-46500
X21750Y-46750
X22000Y-47750
X22101Y-45501
X26350Y-49450
X26750Y-44050
X32550Y-49450
X34715Y-32000
X34750Y-36500
X42500Y-22500
X47250Y-22500
X50750Y-22500
X54500Y-22500
X57250Y-26750
X58000Y-47000
X58500Y-47000
X59000Y-47000
X59500Y-27500
X61000Y-22000
X65000Y-22250
X70250Y-22500
X73250Y-22500
X78250Y-23250
X82500Y-23000
X86500Y-22750
T5
X22400Y-22800
X24400Y-22800
T6
X44829Y-31250
X46750Y-31250
T7
X19950Y-43760
X19950Y-44744
X19950Y-45729
X19950Y-46713
X19950Y-47697
X19950Y-48681
X19950Y-49666
X19950Y-50650
X22550Y-50250
X23550Y-50250
X24181Y-54250
X24550Y-50250
X25166Y-54250
X26150Y-54250
X28800Y-54250
X29784Y-54250
X30769Y-54250
X33350Y-54250
X34334Y-54250
X34600Y-39600
X35319Y-54250
X37950Y-54250
X38934Y-54250
X39919Y-54250
X42550Y-54250
X43534Y-54250
X44519Y-54250
X47150Y-54250
X48134Y-54250
X49119Y-54250
X56250Y-34750
X56250Y-35750
X56250Y-36750
X57250Y-34750
X57250Y-35750
X57250Y-36750
X63889Y-47773
X63889Y-48773
X63889Y-49773
X63889Y-50773
X67000Y-47750
X67000Y-48750
X67000Y-49750
X67000Y-50750
X69500Y-47750
X69500Y-48750
X69500Y-49750
X69500Y-50750
X72000Y-47750
X72000Y-48750
X72000Y-49750
X72000Y-50750
X72500Y-25750
X72500Y-28500
X72500Y-29500
X72500Y-30500
X72500Y-31500
X72500Y-32500
X72500Y-33500
X72500Y-34500
X73500Y-25750
X74250Y-47750
X74250Y-48750
X74250Y-49750
X74250Y-50750
X74500Y-25750
X75500Y-25750
X76500Y-25750
X76500Y-47750
X76500Y-48750
X76500Y-49750
X76500Y-50750
X76750Y-41500
X76750Y-42500
X76750Y-43500
X77500Y-25750
X78500Y-25750
X79500Y-25750
X80500Y-25750
X81000Y-39750
X81000Y-40750
X81000Y-41750
X81000Y-42750
X81000Y-43750
X81000Y-44750
X81000Y-45750
X81000Y-46750
X81000Y-47750
X81000Y-48750
X81000Y-49750
X81000Y-50750
X81000Y-51750
X81000Y-52750
X81000Y-53750
X81000Y-54750
X84500Y-49750
X84500Y-50750
X84500Y-51750
X84500Y-52750
X84750Y-39750
X84750Y-40750
X84750Y-41750
X84750Y-42750
X84750Y-43750
X84750Y-44750
X86500Y-49750
X86500Y-50750
X86500Y-51750
X86500Y-52750
X87250Y-39750
X87250Y-40750
X87250Y-41750
X87250Y-42750
X87250Y-43750
X87250Y-44750
X88750Y-49750
X88750Y-50750
X88750Y-51750
X88750Y-52750
X89750Y-39750
X89750Y-40750
X89750Y-41750
X89750Y-42750
X89750Y-43750
X89750Y-44750
X94000Y-24250
X94000Y-25250
X94000Y-26250
X94000Y-27250
X94000Y-28250
X94000Y-29250
X94000Y-30250
X94000Y-31250
X94000Y-32250
X94000Y-33250
X94000Y-34250
X94000Y-35250
X94000Y-36250
X94000Y-37250
X94000Y-38250
X94000Y-39250
X94000Y-40250
X94000Y-41250
X94000Y-42250
X94000Y-43250
X95000Y-24250
X95000Y-25250
X95000Y-26250
X95000Y-27250
X95000Y-28250
X95000Y-29250
X95000Y-30250
X95000Y-31250
X95000Y-32250
X95000Y-33250
X95000Y-34250
X95000Y-35250
X95000Y-36250
X95000Y-37250
X95000Y-38250
X95000Y-39250
X95000Y-40250
X95000Y-41250
X95000Y-42250
X95000Y-43250
T8
X20350Y-24250
X20350Y-26250
X20350Y-28750
X20350Y-30750
X20350Y-33750
X20350Y-35750
X20350Y-38750
X20350Y-40750
X23750Y-20500
X25750Y-20500
X41250Y-20500
X43250Y-20500
X45500Y-20500
X47500Y-20500
X49750Y-20500
X51750Y-20500
X51750Y-54650
X53750Y-54650
X54000Y-20500
X56000Y-20500
X56000Y-54650
X58000Y-54650
X58750Y-20500
X60250Y-54650
X60750Y-20500
X62250Y-54650
X63000Y-20500
X64500Y-54650
X65000Y-20500
X66500Y-54650
X67250Y-20500
X69250Y-20500
X69750Y-54650
X71500Y-20500
X71750Y-54650
X73500Y-20500
X74000Y-54650
X76000Y-54650
X76250Y-20500
X78250Y-20500
X80500Y-20500
X82500Y-20500
X84750Y-20500
X86750Y-20500
T9
X19750Y-20250
X19750Y-55250
X94000Y-20250
X94000Y-55250
T0
M30
