G04 #@! TF.FileFunction,Soldermask,Top*
%FSLAX46Y46*%
G04 Gerber Fmt 4.6, Leading zero omitted, Abs format (unit mm)*
G04 Created by KiCad (PCBNEW 4.0.7) date 05/05/18 08:32:39*
%MOMM*%
%LPD*%
G01*
G04 APERTURE LIST*
%ADD10C,0.100000*%
%ADD11R,2.100000X2.100000*%
%ADD12O,2.100000X2.100000*%
%ADD13R,1.100000X1.700000*%
%ADD14R,3.910000X2.940000*%
%ADD15R,1.400000X2.900000*%
%ADD16R,1.200000X1.150000*%
%ADD17R,1.400000X2.000000*%
%ADD18R,1.650000X1.400000*%
%ADD19R,1.400000X1.650000*%
%ADD20R,1.600000X1.600000*%
%ADD21R,2.150000X2.150000*%
%ADD22C,2.150000*%
%ADD23R,3.400000X3.400000*%
%ADD24C,3.400000*%
%ADD25R,2.180000X6.900000*%
%ADD26C,3.600000*%
%ADD27R,1.000000X0.800000*%
%ADD28R,1.700000X1.100000*%
%ADD29R,1.300000X2.100000*%
%ADD30R,1.620000X1.050000*%
%ADD31R,1.000000X1.900000*%
%ADD32R,1.000000X1.950000*%
%ADD33R,1.950000X1.000000*%
%ADD34O,1.300000X1.900000*%
%ADD35R,1.300000X1.900000*%
%ADD36R,1.500000X0.800000*%
%ADD37R,1.900000X0.700000*%
%ADD38R,0.700000X1.900000*%
%ADD39R,1.200000X2.600000*%
%ADD40R,1.200000X0.700000*%
%ADD41R,0.600000X0.950000*%
%ADD42R,0.950000X0.600000*%
%ADD43R,1.200000X1.275000*%
%ADD44C,1.900000*%
%ADD45C,1.400000*%
%ADD46R,1.600000X0.800000*%
%ADD47R,4.510000X4.760000*%
%ADD48R,1.460000X1.050000*%
%ADD49C,1.800000*%
%ADD50O,1.800000X1.800000*%
G04 APERTURE END LIST*
D10*
D11*
X215265000Y-100965000D03*
D12*
X215265000Y-103505000D03*
X215265000Y-106045000D03*
X215265000Y-108585000D03*
X215265000Y-111125000D03*
X215265000Y-113665000D03*
D11*
X238760000Y-61595000D03*
D12*
X241300000Y-61595000D03*
X238760000Y-64135000D03*
X241300000Y-64135000D03*
X238760000Y-66675000D03*
X241300000Y-66675000D03*
X238760000Y-69215000D03*
X241300000Y-69215000D03*
X238760000Y-71755000D03*
X241300000Y-71755000D03*
X238760000Y-74295000D03*
X241300000Y-74295000D03*
X238760000Y-76835000D03*
X241300000Y-76835000D03*
X238760000Y-79375000D03*
X241300000Y-79375000D03*
X238760000Y-81915000D03*
X241300000Y-81915000D03*
X238760000Y-84455000D03*
X241300000Y-84455000D03*
X238760000Y-86995000D03*
X241300000Y-86995000D03*
X238760000Y-89535000D03*
X241300000Y-89535000D03*
X238760000Y-92075000D03*
X241300000Y-92075000D03*
X238760000Y-94615000D03*
X241300000Y-94615000D03*
X238760000Y-97155000D03*
X241300000Y-97155000D03*
X238760000Y-99695000D03*
X241300000Y-99695000D03*
X238760000Y-102235000D03*
X241300000Y-102235000D03*
X238760000Y-104775000D03*
X241300000Y-104775000D03*
X238760000Y-107315000D03*
X241300000Y-107315000D03*
X238760000Y-109855000D03*
X241300000Y-109855000D03*
D11*
X205740000Y-100965000D03*
D12*
X205740000Y-103505000D03*
X205740000Y-106045000D03*
X205740000Y-108585000D03*
X205740000Y-111125000D03*
X205740000Y-113665000D03*
X205740000Y-116205000D03*
X205740000Y-118745000D03*
X205740000Y-121285000D03*
X205740000Y-123825000D03*
X205740000Y-126365000D03*
X205740000Y-128905000D03*
X205740000Y-131445000D03*
X205740000Y-133985000D03*
X205740000Y-136525000D03*
X205740000Y-139065000D03*
D13*
X74681000Y-131699000D03*
X76581000Y-131699000D03*
D14*
X168275000Y-96520000D03*
X168275000Y-67160000D03*
D15*
X73754474Y-53129126D03*
X70754474Y-53129126D03*
D16*
X72254474Y-55669126D03*
X73754474Y-55669126D03*
X69079474Y-61384126D03*
X70579474Y-61384126D03*
D17*
X83104474Y-64559126D03*
X80104474Y-64559126D03*
D18*
X118745000Y-75660000D03*
X118745000Y-73660000D03*
X113665000Y-75565000D03*
X113665000Y-73565000D03*
X121920000Y-100870000D03*
X121920000Y-102870000D03*
X123190000Y-83185000D03*
X123190000Y-81185000D03*
D19*
X103505000Y-90805000D03*
X101505000Y-90805000D03*
D18*
X109855000Y-101600000D03*
X109855000Y-103600000D03*
D19*
X123825000Y-93345000D03*
X125825000Y-93345000D03*
D18*
X91440000Y-104680000D03*
X91440000Y-106680000D03*
X93980000Y-106680000D03*
X93980000Y-104680000D03*
X109220000Y-115570000D03*
X109220000Y-113570000D03*
X119380000Y-115570000D03*
X119380000Y-113570000D03*
D19*
X82804000Y-107696000D03*
X84804000Y-107696000D03*
D18*
X129540000Y-115570000D03*
X129540000Y-113570000D03*
X140335000Y-116205000D03*
X140335000Y-114205000D03*
D19*
X82804000Y-99568000D03*
X84804000Y-99568000D03*
X82804000Y-101600000D03*
X84804000Y-101600000D03*
X61849000Y-125095000D03*
X59849000Y-125095000D03*
D18*
X60325000Y-113887000D03*
X60325000Y-111887000D03*
D19*
X61849000Y-123063000D03*
X59849000Y-123063000D03*
X64389000Y-111887000D03*
X62389000Y-111887000D03*
X62357000Y-115951000D03*
X60357000Y-115951000D03*
X61849000Y-121031000D03*
X59849000Y-121031000D03*
X176435000Y-114935000D03*
X178435000Y-114935000D03*
D20*
X130345000Y-69385000D03*
X130345000Y-71585000D03*
X137541000Y-69555000D03*
X137541000Y-71755000D03*
X144653000Y-69555000D03*
X144653000Y-71755000D03*
X75860000Y-81280000D03*
X73660000Y-81280000D03*
X75860000Y-85725000D03*
X73660000Y-85725000D03*
X75860000Y-90170000D03*
X73660000Y-90170000D03*
D11*
X162278552Y-128962892D03*
D12*
X162278552Y-126422892D03*
X162278552Y-123882892D03*
X162278552Y-121342892D03*
D21*
X61421000Y-137795000D03*
D22*
X63921000Y-137795000D03*
X66421000Y-137795000D03*
D21*
X73152000Y-137795000D03*
D22*
X75652000Y-137795000D03*
X78152000Y-137795000D03*
D21*
X84709000Y-137795000D03*
D22*
X87209000Y-137795000D03*
X89709000Y-137795000D03*
D21*
X96393000Y-137795000D03*
D22*
X98893000Y-137795000D03*
X101393000Y-137795000D03*
D21*
X108077000Y-137795000D03*
D22*
X110577000Y-137795000D03*
X113077000Y-137795000D03*
D21*
X119761000Y-137795000D03*
D22*
X122261000Y-137795000D03*
X124761000Y-137795000D03*
D11*
X214630000Y-126365000D03*
D12*
X214630000Y-128905000D03*
X214630000Y-131445000D03*
X214630000Y-133985000D03*
D11*
X219710000Y-126365000D03*
D12*
X219710000Y-128905000D03*
X219710000Y-131445000D03*
X219710000Y-133985000D03*
D11*
X225425000Y-126365000D03*
D12*
X225425000Y-128905000D03*
X225425000Y-131445000D03*
X225425000Y-133985000D03*
D23*
X60325000Y-52070000D03*
D24*
X65405000Y-52070000D03*
D11*
X142875000Y-88265000D03*
D12*
X145415000Y-88265000D03*
X142875000Y-90805000D03*
X145415000Y-90805000D03*
X142875000Y-93345000D03*
X145415000Y-93345000D03*
D23*
X104775000Y-52070000D03*
D24*
X109855000Y-52070000D03*
D23*
X182245000Y-138811000D03*
D24*
X177165000Y-138811000D03*
D23*
X51689000Y-103505000D03*
D24*
X51689000Y-98425000D03*
D23*
X115570000Y-52070000D03*
D24*
X120650000Y-52070000D03*
D23*
X193040000Y-138811000D03*
D24*
X187960000Y-138811000D03*
D23*
X51689000Y-90805000D03*
D24*
X51689000Y-85725000D03*
D23*
X126365000Y-52070000D03*
D24*
X131445000Y-52070000D03*
D23*
X137160000Y-52070000D03*
D24*
X142240000Y-52070000D03*
D23*
X51689000Y-78105000D03*
D24*
X51689000Y-73025000D03*
D23*
X149225000Y-52070000D03*
D24*
X154305000Y-52070000D03*
D23*
X51689000Y-66675000D03*
D24*
X51689000Y-61595000D03*
D23*
X160020000Y-52070000D03*
D24*
X165100000Y-52070000D03*
D23*
X170815000Y-52070000D03*
D24*
X175895000Y-52070000D03*
D23*
X181610000Y-52070000D03*
D24*
X186690000Y-52070000D03*
D23*
X193675000Y-52070000D03*
D24*
X198755000Y-52070000D03*
D23*
X204470000Y-52070000D03*
D24*
X209550000Y-52070000D03*
D23*
X215265000Y-52070000D03*
D24*
X220345000Y-52070000D03*
D11*
X87884000Y-100584000D03*
X184150000Y-72390000D03*
D12*
X184150000Y-74930000D03*
X184150000Y-77470000D03*
X184150000Y-80010000D03*
X184150000Y-82550000D03*
X184150000Y-85090000D03*
X184150000Y-87630000D03*
D21*
X50673000Y-128651000D03*
D22*
X50673000Y-126151000D03*
X50673000Y-123651000D03*
X50673000Y-121151000D03*
X50673000Y-118651000D03*
X50673000Y-116151000D03*
X50673000Y-113651000D03*
X50673000Y-111151000D03*
D25*
X78199474Y-58209126D03*
X82919474Y-58209126D03*
D11*
X204470000Y-65405000D03*
D12*
X201930000Y-65405000D03*
X199390000Y-65405000D03*
X196850000Y-65405000D03*
X194310000Y-65405000D03*
X191770000Y-65405000D03*
X189230000Y-65405000D03*
X186690000Y-65405000D03*
X184150000Y-65405000D03*
D26*
X50165000Y-51435000D03*
D11*
X176530000Y-128905000D03*
D12*
X176530000Y-126365000D03*
X176530000Y-123825000D03*
X176530000Y-121285000D03*
D11*
X182880000Y-128905000D03*
D12*
X182880000Y-126365000D03*
X182880000Y-123825000D03*
X182880000Y-121285000D03*
D11*
X188595000Y-128905000D03*
D12*
X188595000Y-126365000D03*
X188595000Y-123825000D03*
X188595000Y-121285000D03*
D11*
X194310000Y-128905000D03*
D12*
X194310000Y-126365000D03*
X194310000Y-123825000D03*
X194310000Y-121285000D03*
D11*
X170180000Y-128905000D03*
D12*
X170180000Y-126365000D03*
X170180000Y-123825000D03*
X170180000Y-121285000D03*
D27*
X66134474Y-59744126D03*
X66134474Y-58844126D03*
X67310000Y-58844126D03*
X67310000Y-59744126D03*
D28*
X132969000Y-69855000D03*
X132969000Y-71755000D03*
X141097000Y-69855000D03*
X141097000Y-71755000D03*
X148209000Y-69723000D03*
X148209000Y-71623000D03*
D13*
X115570000Y-71120000D03*
X117470000Y-71120000D03*
X67310000Y-81280000D03*
X69210000Y-81280000D03*
X67315000Y-85725000D03*
X69215000Y-85725000D03*
X67310000Y-90170000D03*
X69210000Y-90170000D03*
X65029000Y-131699000D03*
X66929000Y-131699000D03*
X86233000Y-131699000D03*
X88133000Y-131699000D03*
X94361000Y-131699000D03*
X96261000Y-131699000D03*
X117221000Y-131699000D03*
X119121000Y-131699000D03*
X106045000Y-131699000D03*
X107945000Y-131699000D03*
D28*
X196850000Y-93345000D03*
X196850000Y-95245000D03*
X193450654Y-93349362D03*
X193450654Y-95249362D03*
X97028000Y-104648000D03*
X97028000Y-106548000D03*
X73025000Y-105405000D03*
X73025000Y-103505000D03*
X69850000Y-105405000D03*
X69850000Y-103505000D03*
X80264000Y-107828000D03*
X80264000Y-109728000D03*
X77724000Y-109596000D03*
X77724000Y-107696000D03*
D13*
X147320000Y-114935000D03*
X149220000Y-114935000D03*
D28*
X56261000Y-112019000D03*
X56261000Y-113919000D03*
X58293000Y-112019000D03*
X58293000Y-113919000D03*
D13*
X68585000Y-127635000D03*
X70485000Y-127635000D03*
X180340000Y-114935000D03*
X182240000Y-114935000D03*
D11*
X62357000Y-127635000D03*
D12*
X59817000Y-127635000D03*
X57277000Y-127635000D03*
D11*
X194945000Y-105410000D03*
D12*
X194945000Y-107950000D03*
X194945000Y-110490000D03*
D11*
X221615000Y-100965000D03*
D12*
X221615000Y-103505000D03*
X221615000Y-106045000D03*
X221615000Y-108585000D03*
X221615000Y-111125000D03*
X221615000Y-113665000D03*
D11*
X227965000Y-100965000D03*
D12*
X227965000Y-103505000D03*
X227965000Y-106045000D03*
X227965000Y-108585000D03*
X227965000Y-111125000D03*
X227965000Y-113665000D03*
D29*
X86360000Y-84455000D03*
X82960000Y-84455000D03*
D23*
X136525000Y-138811000D03*
D24*
X131445000Y-138811000D03*
D23*
X147320000Y-138811000D03*
D24*
X142240000Y-138811000D03*
D23*
X158115000Y-138811000D03*
D24*
X153035000Y-138811000D03*
D23*
X168910000Y-138811000D03*
D24*
X163830000Y-138811000D03*
D30*
X73834474Y-59474126D03*
X73834474Y-58524126D03*
X73834474Y-57574126D03*
X71214474Y-57574126D03*
X71214474Y-58524126D03*
X71214474Y-59474126D03*
D31*
X84709000Y-125603000D03*
X85979000Y-125603000D03*
X87249000Y-125603000D03*
X88519000Y-125603000D03*
X89789000Y-125603000D03*
X91059000Y-125603000D03*
X92329000Y-125603000D03*
X93599000Y-125603000D03*
X93599000Y-118503000D03*
X92329000Y-118503000D03*
X91059000Y-118503000D03*
X89789000Y-118503000D03*
X88519000Y-118503000D03*
X87249000Y-118503000D03*
X85979000Y-118503000D03*
X84709000Y-118503000D03*
D32*
X113030000Y-115570000D03*
X114300000Y-115570000D03*
X115570000Y-115570000D03*
X116840000Y-115570000D03*
X116840000Y-110170000D03*
X115570000Y-110170000D03*
X114300000Y-110170000D03*
X113030000Y-110170000D03*
X123190000Y-115570000D03*
X124460000Y-115570000D03*
X125730000Y-115570000D03*
X127000000Y-115570000D03*
X127000000Y-110170000D03*
X125730000Y-110170000D03*
X124460000Y-110170000D03*
X123190000Y-110170000D03*
D33*
X185277124Y-95250000D03*
X185277124Y-96520000D03*
X185277124Y-97790000D03*
X185277124Y-99060000D03*
X190677124Y-99060000D03*
X190677124Y-97790000D03*
X190677124Y-96520000D03*
X190677124Y-95250000D03*
D32*
X133350000Y-115570000D03*
X134620000Y-115570000D03*
X135890000Y-115570000D03*
X137160000Y-115570000D03*
X137160000Y-110170000D03*
X135890000Y-110170000D03*
X134620000Y-110170000D03*
X133350000Y-110170000D03*
X103345000Y-115476000D03*
X104615000Y-115476000D03*
X105885000Y-115476000D03*
X107155000Y-115476000D03*
X107155000Y-110076000D03*
X105885000Y-110076000D03*
X104615000Y-110076000D03*
X103345000Y-110076000D03*
D34*
X148590000Y-119380000D03*
X147320000Y-119380000D03*
D35*
X149860000Y-119380000D03*
D36*
X184460000Y-112795000D03*
X184460000Y-112145000D03*
X184460000Y-111495000D03*
X184460000Y-110845000D03*
X184460000Y-110195000D03*
X184460000Y-109545000D03*
X184460000Y-108895000D03*
X184460000Y-108245000D03*
X184460000Y-107595000D03*
X184460000Y-106945000D03*
X184460000Y-106295000D03*
X184460000Y-105645000D03*
X178760000Y-105645000D03*
X178760000Y-106295000D03*
X178760000Y-106945000D03*
X178760000Y-107595000D03*
X178760000Y-108245000D03*
X178760000Y-108895000D03*
X178760000Y-109545000D03*
X178760000Y-110195000D03*
X178760000Y-110845000D03*
X178760000Y-111495000D03*
X178760000Y-112145000D03*
X178760000Y-112795000D03*
D37*
X121445000Y-97647000D03*
X121445000Y-97147000D03*
X121445000Y-96647000D03*
X121445000Y-96147000D03*
X121445000Y-95647000D03*
X121445000Y-95147000D03*
X121445000Y-94647000D03*
X121445000Y-94147000D03*
X121445000Y-93647000D03*
X121445000Y-93147000D03*
X121445000Y-92647000D03*
X121445000Y-92147000D03*
X121445000Y-91647000D03*
X121445000Y-91147000D03*
X121445000Y-90647000D03*
X121445000Y-90147000D03*
X121445000Y-89647000D03*
X121445000Y-89147000D03*
X121445000Y-88647000D03*
X121445000Y-88147000D03*
X121445000Y-87647000D03*
X121445000Y-87147000D03*
X121445000Y-86647000D03*
X121445000Y-86147000D03*
X121445000Y-85647000D03*
D38*
X119745000Y-83947000D03*
X119245000Y-83947000D03*
X118745000Y-83947000D03*
X118245000Y-83947000D03*
X117745000Y-83947000D03*
X117245000Y-83947000D03*
X116745000Y-83947000D03*
X116245000Y-83947000D03*
X115745000Y-83947000D03*
X115245000Y-83947000D03*
X114745000Y-83947000D03*
X114245000Y-83947000D03*
X113745000Y-83947000D03*
X113245000Y-83947000D03*
X112745000Y-83947000D03*
X112245000Y-83947000D03*
X111745000Y-83947000D03*
X111245000Y-83947000D03*
X110745000Y-83947000D03*
X110245000Y-83947000D03*
X109745000Y-83947000D03*
X109245000Y-83947000D03*
X108745000Y-83947000D03*
X108245000Y-83947000D03*
X107745000Y-83947000D03*
D37*
X106045000Y-85647000D03*
X106045000Y-86147000D03*
X106045000Y-86647000D03*
X106045000Y-87147000D03*
X106045000Y-87647000D03*
X106045000Y-88147000D03*
X106045000Y-88647000D03*
X106045000Y-89147000D03*
X106045000Y-89647000D03*
X106045000Y-90147000D03*
X106045000Y-90647000D03*
X106045000Y-91147000D03*
X106045000Y-91647000D03*
X106045000Y-92147000D03*
X106045000Y-92647000D03*
X106045000Y-93147000D03*
X106045000Y-93647000D03*
X106045000Y-94147000D03*
X106045000Y-94647000D03*
X106045000Y-95147000D03*
X106045000Y-95647000D03*
X106045000Y-96147000D03*
X106045000Y-96647000D03*
X106045000Y-97147000D03*
X106045000Y-97647000D03*
D38*
X107745000Y-99347000D03*
X108245000Y-99347000D03*
X108745000Y-99347000D03*
X109245000Y-99347000D03*
X109745000Y-99347000D03*
X110245000Y-99347000D03*
X110745000Y-99347000D03*
X111245000Y-99347000D03*
X111745000Y-99347000D03*
X112245000Y-99347000D03*
X112745000Y-99347000D03*
X113245000Y-99347000D03*
X113745000Y-99347000D03*
X114245000Y-99347000D03*
X114745000Y-99347000D03*
X115245000Y-99347000D03*
X115745000Y-99347000D03*
X116245000Y-99347000D03*
X116745000Y-99347000D03*
X117245000Y-99347000D03*
X117745000Y-99347000D03*
X118245000Y-99347000D03*
X118745000Y-99347000D03*
X119245000Y-99347000D03*
X119745000Y-99347000D03*
D39*
X125660000Y-100965000D03*
X124460000Y-100965000D03*
D26*
X238760000Y-51435000D03*
X50165000Y-140335000D03*
X238760000Y-140335000D03*
D40*
X90424000Y-109252000D03*
X90424000Y-109752000D03*
X90424000Y-110252000D03*
X90424000Y-110752000D03*
X93524000Y-110752000D03*
X93524000Y-110252000D03*
X93524000Y-109752000D03*
X93524000Y-109252000D03*
D41*
X77740000Y-105640000D03*
X78140000Y-105640000D03*
X78540000Y-105640000D03*
X78940000Y-105640000D03*
X79340000Y-105640000D03*
X79740000Y-105640000D03*
D42*
X80240000Y-105140000D03*
X80240000Y-104740000D03*
X80240000Y-104340000D03*
X80240000Y-103940000D03*
X80240000Y-103540000D03*
X80240000Y-103140000D03*
D41*
X79740000Y-102640000D03*
X79340000Y-102640000D03*
X78940000Y-102640000D03*
X78540000Y-102640000D03*
X78140000Y-102640000D03*
X77740000Y-102640000D03*
D42*
X77240000Y-103140000D03*
X77240000Y-103540000D03*
X77240000Y-103940000D03*
X77240000Y-104340000D03*
X77240000Y-104740000D03*
X77240000Y-105140000D03*
D43*
X79140000Y-103705000D03*
X78340000Y-103705000D03*
X79140000Y-104575000D03*
X78340000Y-104575000D03*
D44*
X113865000Y-79375000D03*
X118745000Y-79375000D03*
D45*
X182880000Y-95255000D03*
X182880000Y-97155000D03*
D46*
X64437000Y-114266000D03*
X64437000Y-114916000D03*
X64437000Y-115566000D03*
X64437000Y-116216000D03*
X64437000Y-116866000D03*
X64437000Y-117516000D03*
X64437000Y-118166000D03*
X64437000Y-118816000D03*
X64437000Y-119466000D03*
X64437000Y-120116000D03*
X64437000Y-120766000D03*
X64437000Y-121416000D03*
X64437000Y-122066000D03*
X64437000Y-122716000D03*
X64437000Y-123366000D03*
X64437000Y-124016000D03*
X71737000Y-124016000D03*
X71737000Y-123366000D03*
X71737000Y-122716000D03*
X71737000Y-122066000D03*
X71737000Y-121416000D03*
X71737000Y-120766000D03*
X71737000Y-120116000D03*
X71737000Y-119466000D03*
X71737000Y-118816000D03*
X71737000Y-118166000D03*
X71737000Y-117516000D03*
X71737000Y-116866000D03*
X71737000Y-116216000D03*
X71737000Y-115566000D03*
X71737000Y-114916000D03*
X71737000Y-114266000D03*
D47*
X68087000Y-119141000D03*
D29*
X86360000Y-90170000D03*
X82960000Y-90170000D03*
D18*
X153670000Y-61500000D03*
X153670000Y-63500000D03*
X160655000Y-61500000D03*
X160655000Y-63500000D03*
X160655000Y-67405000D03*
X160655000Y-65405000D03*
D48*
X156210000Y-62865000D03*
X156210000Y-63815000D03*
X156210000Y-64765000D03*
X158410000Y-64765000D03*
X158410000Y-62865000D03*
D28*
X84836000Y-81656000D03*
X84836000Y-79756000D03*
D49*
X61976000Y-57912000D03*
D50*
X56896000Y-57912000D03*
M02*
