G04 #@! TF.FileFunction,Legend,Top*
%FSLAX46Y46*%
G04 Gerber Fmt 4.6, Leading zero omitted, Abs format (unit mm)*
G04 Created by KiCad (PCBNEW 4.0.7) date 05/05/18 08:32:39*
%MOMM*%
%LPD*%
G01*
G04 APERTURE LIST*
%ADD10C,0.100000*%
%ADD11C,0.300000*%
%ADD12C,1.000000*%
%ADD13C,0.200000*%
%ADD14C,0.120000*%
%ADD15C,0.150000*%
G04 APERTURE END LIST*
D10*
D11*
X227744571Y-91082857D02*
X226244571Y-91082857D01*
X227316000Y-90582857D01*
X226244571Y-90082857D01*
X227744571Y-90082857D01*
X227673143Y-88797143D02*
X227744571Y-88940000D01*
X227744571Y-89225714D01*
X227673143Y-89368571D01*
X227530286Y-89440000D01*
X226958857Y-89440000D01*
X226816000Y-89368571D01*
X226744571Y-89225714D01*
X226744571Y-88940000D01*
X226816000Y-88797143D01*
X226958857Y-88725714D01*
X227101714Y-88725714D01*
X227244571Y-89440000D01*
X227744571Y-88082857D02*
X226744571Y-88082857D01*
X226887429Y-88082857D02*
X226816000Y-88011429D01*
X226744571Y-87868571D01*
X226744571Y-87654286D01*
X226816000Y-87511429D01*
X226958857Y-87440000D01*
X227744571Y-87440000D01*
X226958857Y-87440000D02*
X226816000Y-87368571D01*
X226744571Y-87225714D01*
X226744571Y-87011429D01*
X226816000Y-86868571D01*
X226958857Y-86797143D01*
X227744571Y-86797143D01*
X227744571Y-85868571D02*
X227673143Y-86011429D01*
X227601714Y-86082857D01*
X227458857Y-86154286D01*
X227030286Y-86154286D01*
X226887429Y-86082857D01*
X226816000Y-86011429D01*
X226744571Y-85868571D01*
X226744571Y-85654286D01*
X226816000Y-85511429D01*
X226887429Y-85440000D01*
X227030286Y-85368571D01*
X227458857Y-85368571D01*
X227601714Y-85440000D01*
X227673143Y-85511429D01*
X227744571Y-85654286D01*
X227744571Y-85868571D01*
X227744571Y-84725714D02*
X226744571Y-84725714D01*
X227030286Y-84725714D02*
X226887429Y-84654286D01*
X226816000Y-84582857D01*
X226744571Y-84440000D01*
X226744571Y-84297143D01*
X227744571Y-83797143D02*
X226744571Y-83797143D01*
X226244571Y-83797143D02*
X226316000Y-83868572D01*
X226387429Y-83797143D01*
X226316000Y-83725715D01*
X226244571Y-83797143D01*
X226387429Y-83797143D01*
X227744571Y-82440000D02*
X226958857Y-82440000D01*
X226816000Y-82511429D01*
X226744571Y-82654286D01*
X226744571Y-82940000D01*
X226816000Y-83082857D01*
X227673143Y-82440000D02*
X227744571Y-82582857D01*
X227744571Y-82940000D01*
X227673143Y-83082857D01*
X227530286Y-83154286D01*
X227387429Y-83154286D01*
X227244571Y-83082857D01*
X227173143Y-82940000D01*
X227173143Y-82582857D01*
X227101714Y-82440000D01*
X227744571Y-81511428D02*
X227673143Y-81654286D01*
X227530286Y-81725714D01*
X226244571Y-81725714D01*
X226958857Y-79297143D02*
X227030286Y-79082857D01*
X227101714Y-79011429D01*
X227244571Y-78940000D01*
X227458857Y-78940000D01*
X227601714Y-79011429D01*
X227673143Y-79082857D01*
X227744571Y-79225715D01*
X227744571Y-79797143D01*
X226244571Y-79797143D01*
X226244571Y-79297143D01*
X226316000Y-79154286D01*
X226387429Y-79082857D01*
X226530286Y-79011429D01*
X226673143Y-79011429D01*
X226816000Y-79082857D01*
X226887429Y-79154286D01*
X226958857Y-79297143D01*
X226958857Y-79797143D01*
X227744571Y-77654286D02*
X226958857Y-77654286D01*
X226816000Y-77725715D01*
X226744571Y-77868572D01*
X226744571Y-78154286D01*
X226816000Y-78297143D01*
X227673143Y-77654286D02*
X227744571Y-77797143D01*
X227744571Y-78154286D01*
X227673143Y-78297143D01*
X227530286Y-78368572D01*
X227387429Y-78368572D01*
X227244571Y-78297143D01*
X227173143Y-78154286D01*
X227173143Y-77797143D01*
X227101714Y-77654286D01*
X226744571Y-76940000D02*
X228030286Y-76940000D01*
X228173143Y-77011429D01*
X228244571Y-77154286D01*
X228244571Y-77225714D01*
X226244571Y-76940000D02*
X226316000Y-77011429D01*
X226387429Y-76940000D01*
X226316000Y-76868572D01*
X226244571Y-76940000D01*
X226387429Y-76940000D01*
X227744571Y-75582857D02*
X226958857Y-75582857D01*
X226816000Y-75654286D01*
X226744571Y-75797143D01*
X226744571Y-76082857D01*
X226816000Y-76225714D01*
X227673143Y-75582857D02*
X227744571Y-75725714D01*
X227744571Y-76082857D01*
X227673143Y-76225714D01*
X227530286Y-76297143D01*
X227387429Y-76297143D01*
X227244571Y-76225714D01*
X227173143Y-76082857D01*
X227173143Y-75725714D01*
X227101714Y-75582857D01*
X229508857Y-91082857D02*
X229508857Y-90582857D01*
X230294571Y-90368571D02*
X230294571Y-91082857D01*
X228794571Y-91082857D01*
X228794571Y-90368571D01*
X230294571Y-89511428D02*
X230223143Y-89654286D01*
X230080286Y-89725714D01*
X228794571Y-89725714D01*
X230223143Y-88368572D02*
X230294571Y-88511429D01*
X230294571Y-88797143D01*
X230223143Y-88940000D01*
X230080286Y-89011429D01*
X229508857Y-89011429D01*
X229366000Y-88940000D01*
X229294571Y-88797143D01*
X229294571Y-88511429D01*
X229366000Y-88368572D01*
X229508857Y-88297143D01*
X229651714Y-88297143D01*
X229794571Y-89011429D01*
X230223143Y-87011429D02*
X230294571Y-87154286D01*
X230294571Y-87440000D01*
X230223143Y-87582858D01*
X230151714Y-87654286D01*
X230008857Y-87725715D01*
X229580286Y-87725715D01*
X229437429Y-87654286D01*
X229366000Y-87582858D01*
X229294571Y-87440000D01*
X229294571Y-87154286D01*
X229366000Y-87011429D01*
X229294571Y-86582858D02*
X229294571Y-86011429D01*
X228794571Y-86368572D02*
X230080286Y-86368572D01*
X230223143Y-86297144D01*
X230294571Y-86154286D01*
X230294571Y-86011429D01*
X230294571Y-85511429D02*
X229294571Y-85511429D01*
X229580286Y-85511429D02*
X229437429Y-85440001D01*
X229366000Y-85368572D01*
X229294571Y-85225715D01*
X229294571Y-85082858D01*
X230294571Y-84368572D02*
X230223143Y-84511430D01*
X230151714Y-84582858D01*
X230008857Y-84654287D01*
X229580286Y-84654287D01*
X229437429Y-84582858D01*
X229366000Y-84511430D01*
X229294571Y-84368572D01*
X229294571Y-84154287D01*
X229366000Y-84011430D01*
X229437429Y-83940001D01*
X229580286Y-83868572D01*
X230008857Y-83868572D01*
X230151714Y-83940001D01*
X230223143Y-84011430D01*
X230294571Y-84154287D01*
X230294571Y-84368572D01*
X229294571Y-83225715D02*
X230294571Y-83225715D01*
X229437429Y-83225715D02*
X229366000Y-83154287D01*
X229294571Y-83011429D01*
X229294571Y-82797144D01*
X229366000Y-82654287D01*
X229508857Y-82582858D01*
X230294571Y-82582858D01*
X230294571Y-81868572D02*
X229294571Y-81868572D01*
X228794571Y-81868572D02*
X228866000Y-81940001D01*
X228937429Y-81868572D01*
X228866000Y-81797144D01*
X228794571Y-81868572D01*
X228937429Y-81868572D01*
X230223143Y-80511429D02*
X230294571Y-80654286D01*
X230294571Y-80940000D01*
X230223143Y-81082858D01*
X230151714Y-81154286D01*
X230008857Y-81225715D01*
X229580286Y-81225715D01*
X229437429Y-81154286D01*
X229366000Y-81082858D01*
X229294571Y-80940000D01*
X229294571Y-80654286D01*
X229366000Y-80511429D01*
X230294571Y-78725715D02*
X228794571Y-78725715D01*
X229294571Y-78011429D02*
X230294571Y-78011429D01*
X229437429Y-78011429D02*
X229366000Y-77940001D01*
X229294571Y-77797143D01*
X229294571Y-77582858D01*
X229366000Y-77440001D01*
X229508857Y-77368572D01*
X230294571Y-77368572D01*
X230223143Y-76725715D02*
X230294571Y-76582858D01*
X230294571Y-76297143D01*
X230223143Y-76154286D01*
X230080286Y-76082858D01*
X230008857Y-76082858D01*
X229866000Y-76154286D01*
X229794571Y-76297143D01*
X229794571Y-76511429D01*
X229723143Y-76654286D01*
X229580286Y-76725715D01*
X229508857Y-76725715D01*
X229366000Y-76654286D01*
X229294571Y-76511429D01*
X229294571Y-76297143D01*
X229366000Y-76154286D01*
X229294571Y-75654286D02*
X229294571Y-75082857D01*
X228794571Y-75440000D02*
X230080286Y-75440000D01*
X230223143Y-75368572D01*
X230294571Y-75225714D01*
X230294571Y-75082857D01*
X230294571Y-74582857D02*
X229294571Y-74582857D01*
X229580286Y-74582857D02*
X229437429Y-74511429D01*
X229366000Y-74440000D01*
X229294571Y-74297143D01*
X229294571Y-74154286D01*
X229294571Y-73011429D02*
X230294571Y-73011429D01*
X229294571Y-73654286D02*
X230080286Y-73654286D01*
X230223143Y-73582858D01*
X230294571Y-73440000D01*
X230294571Y-73225715D01*
X230223143Y-73082858D01*
X230151714Y-73011429D01*
X230294571Y-72297143D02*
X229294571Y-72297143D01*
X229437429Y-72297143D02*
X229366000Y-72225715D01*
X229294571Y-72082857D01*
X229294571Y-71868572D01*
X229366000Y-71725715D01*
X229508857Y-71654286D01*
X230294571Y-71654286D01*
X229508857Y-71654286D02*
X229366000Y-71582857D01*
X229294571Y-71440000D01*
X229294571Y-71225715D01*
X229366000Y-71082857D01*
X229508857Y-71011429D01*
X230294571Y-71011429D01*
X230223143Y-69725715D02*
X230294571Y-69868572D01*
X230294571Y-70154286D01*
X230223143Y-70297143D01*
X230080286Y-70368572D01*
X229508857Y-70368572D01*
X229366000Y-70297143D01*
X229294571Y-70154286D01*
X229294571Y-69868572D01*
X229366000Y-69725715D01*
X229508857Y-69654286D01*
X229651714Y-69654286D01*
X229794571Y-70368572D01*
X229294571Y-69011429D02*
X230294571Y-69011429D01*
X229437429Y-69011429D02*
X229366000Y-68940001D01*
X229294571Y-68797143D01*
X229294571Y-68582858D01*
X229366000Y-68440001D01*
X229508857Y-68368572D01*
X230294571Y-68368572D01*
X229294571Y-67868572D02*
X229294571Y-67297143D01*
X228794571Y-67654286D02*
X230080286Y-67654286D01*
X230223143Y-67582858D01*
X230294571Y-67440000D01*
X230294571Y-67297143D01*
X230294571Y-66154286D02*
X229508857Y-66154286D01*
X229366000Y-66225715D01*
X229294571Y-66368572D01*
X229294571Y-66654286D01*
X229366000Y-66797143D01*
X230223143Y-66154286D02*
X230294571Y-66297143D01*
X230294571Y-66654286D01*
X230223143Y-66797143D01*
X230080286Y-66868572D01*
X229937429Y-66868572D01*
X229794571Y-66797143D01*
X229723143Y-66654286D01*
X229723143Y-66297143D01*
X229651714Y-66154286D01*
X229294571Y-65654286D02*
X229294571Y-65082857D01*
X228794571Y-65440000D02*
X230080286Y-65440000D01*
X230223143Y-65368572D01*
X230294571Y-65225714D01*
X230294571Y-65082857D01*
X230294571Y-64582857D02*
X229294571Y-64582857D01*
X228794571Y-64582857D02*
X228866000Y-64654286D01*
X228937429Y-64582857D01*
X228866000Y-64511429D01*
X228794571Y-64582857D01*
X228937429Y-64582857D01*
X230294571Y-63654285D02*
X230223143Y-63797143D01*
X230151714Y-63868571D01*
X230008857Y-63940000D01*
X229580286Y-63940000D01*
X229437429Y-63868571D01*
X229366000Y-63797143D01*
X229294571Y-63654285D01*
X229294571Y-63440000D01*
X229366000Y-63297143D01*
X229437429Y-63225714D01*
X229580286Y-63154285D01*
X230008857Y-63154285D01*
X230151714Y-63225714D01*
X230223143Y-63297143D01*
X230294571Y-63440000D01*
X230294571Y-63654285D01*
X229294571Y-62511428D02*
X230294571Y-62511428D01*
X229437429Y-62511428D02*
X229366000Y-62440000D01*
X229294571Y-62297142D01*
X229294571Y-62082857D01*
X229366000Y-61940000D01*
X229508857Y-61868571D01*
X230294571Y-61868571D01*
X230151714Y-59154285D02*
X230223143Y-59225714D01*
X230294571Y-59440000D01*
X230294571Y-59582857D01*
X230223143Y-59797142D01*
X230080286Y-59940000D01*
X229937429Y-60011428D01*
X229651714Y-60082857D01*
X229437429Y-60082857D01*
X229151714Y-60011428D01*
X229008857Y-59940000D01*
X228866000Y-59797142D01*
X228794571Y-59582857D01*
X228794571Y-59440000D01*
X228866000Y-59225714D01*
X228937429Y-59154285D01*
X230294571Y-58297142D02*
X230223143Y-58440000D01*
X230080286Y-58511428D01*
X228794571Y-58511428D01*
X229294571Y-57082857D02*
X230294571Y-57082857D01*
X229294571Y-57725714D02*
X230080286Y-57725714D01*
X230223143Y-57654286D01*
X230294571Y-57511428D01*
X230294571Y-57297143D01*
X230223143Y-57154286D01*
X230151714Y-57082857D01*
X230223143Y-56440000D02*
X230294571Y-56297143D01*
X230294571Y-56011428D01*
X230223143Y-55868571D01*
X230080286Y-55797143D01*
X230008857Y-55797143D01*
X229866000Y-55868571D01*
X229794571Y-56011428D01*
X229794571Y-56225714D01*
X229723143Y-56368571D01*
X229580286Y-56440000D01*
X229508857Y-56440000D01*
X229366000Y-56368571D01*
X229294571Y-56225714D01*
X229294571Y-56011428D01*
X229366000Y-55868571D01*
X229294571Y-55368571D02*
X229294571Y-54797142D01*
X228794571Y-55154285D02*
X230080286Y-55154285D01*
X230223143Y-55082857D01*
X230294571Y-54939999D01*
X230294571Y-54797142D01*
X230223143Y-53725714D02*
X230294571Y-53868571D01*
X230294571Y-54154285D01*
X230223143Y-54297142D01*
X230080286Y-54368571D01*
X229508857Y-54368571D01*
X229366000Y-54297142D01*
X229294571Y-54154285D01*
X229294571Y-53868571D01*
X229366000Y-53725714D01*
X229508857Y-53654285D01*
X229651714Y-53654285D01*
X229794571Y-54368571D01*
X230294571Y-53011428D02*
X229294571Y-53011428D01*
X229580286Y-53011428D02*
X229437429Y-52940000D01*
X229366000Y-52868571D01*
X229294571Y-52725714D01*
X229294571Y-52582857D01*
X231344571Y-91297143D02*
X232844571Y-90797143D01*
X231344571Y-90297143D01*
X232773143Y-89225715D02*
X232844571Y-89368572D01*
X232844571Y-89654286D01*
X232773143Y-89797143D01*
X232630286Y-89868572D01*
X232058857Y-89868572D01*
X231916000Y-89797143D01*
X231844571Y-89654286D01*
X231844571Y-89368572D01*
X231916000Y-89225715D01*
X232058857Y-89154286D01*
X232201714Y-89154286D01*
X232344571Y-89868572D01*
X232844571Y-88511429D02*
X231844571Y-88511429D01*
X232130286Y-88511429D02*
X231987429Y-88440001D01*
X231916000Y-88368572D01*
X231844571Y-88225715D01*
X231844571Y-88082858D01*
X232773143Y-87654287D02*
X232844571Y-87511430D01*
X232844571Y-87225715D01*
X232773143Y-87082858D01*
X232630286Y-87011430D01*
X232558857Y-87011430D01*
X232416000Y-87082858D01*
X232344571Y-87225715D01*
X232344571Y-87440001D01*
X232273143Y-87582858D01*
X232130286Y-87654287D01*
X232058857Y-87654287D01*
X231916000Y-87582858D01*
X231844571Y-87440001D01*
X231844571Y-87225715D01*
X231916000Y-87082858D01*
X232844571Y-86368572D02*
X231844571Y-86368572D01*
X231344571Y-86368572D02*
X231416000Y-86440001D01*
X231487429Y-86368572D01*
X231416000Y-86297144D01*
X231344571Y-86368572D01*
X231487429Y-86368572D01*
X232844571Y-85440000D02*
X232773143Y-85582858D01*
X232701714Y-85654286D01*
X232558857Y-85725715D01*
X232130286Y-85725715D01*
X231987429Y-85654286D01*
X231916000Y-85582858D01*
X231844571Y-85440000D01*
X231844571Y-85225715D01*
X231916000Y-85082858D01*
X231987429Y-85011429D01*
X232130286Y-84940000D01*
X232558857Y-84940000D01*
X232701714Y-85011429D01*
X232773143Y-85082858D01*
X232844571Y-85225715D01*
X232844571Y-85440000D01*
X231844571Y-84297143D02*
X232844571Y-84297143D01*
X231987429Y-84297143D02*
X231916000Y-84225715D01*
X231844571Y-84082857D01*
X231844571Y-83868572D01*
X231916000Y-83725715D01*
X232058857Y-83654286D01*
X232844571Y-83654286D01*
X232844571Y-81011429D02*
X232844571Y-81868572D01*
X232844571Y-81440000D02*
X231344571Y-81440000D01*
X231558857Y-81582857D01*
X231701714Y-81725715D01*
X231773143Y-81868572D01*
X232701714Y-80368572D02*
X232773143Y-80297144D01*
X232844571Y-80368572D01*
X232773143Y-80440001D01*
X232701714Y-80368572D01*
X232844571Y-80368572D01*
X231344571Y-79368572D02*
X231344571Y-79225715D01*
X231416000Y-79082858D01*
X231487429Y-79011429D01*
X231630286Y-78940000D01*
X231916000Y-78868572D01*
X232273143Y-78868572D01*
X232558857Y-78940000D01*
X232701714Y-79011429D01*
X232773143Y-79082858D01*
X232844571Y-79225715D01*
X232844571Y-79368572D01*
X232773143Y-79511429D01*
X232701714Y-79582858D01*
X232558857Y-79654286D01*
X232273143Y-79725715D01*
X231916000Y-79725715D01*
X231630286Y-79654286D01*
X231487429Y-79582858D01*
X231416000Y-79511429D01*
X231344571Y-79368572D01*
D12*
X62094000Y-75921905D02*
X62094000Y-70921905D01*
X63594000Y-74493333D01*
X65094000Y-70921905D01*
X65094000Y-75921905D01*
X68951142Y-75683810D02*
X68522571Y-75921905D01*
X67665428Y-75921905D01*
X67236857Y-75683810D01*
X67022571Y-75207619D01*
X67022571Y-73302857D01*
X67236857Y-72826667D01*
X67665428Y-72588571D01*
X68522571Y-72588571D01*
X68951142Y-72826667D01*
X69165428Y-73302857D01*
X69165428Y-73779048D01*
X67022571Y-74255238D01*
X71094000Y-75921905D02*
X71094000Y-72588571D01*
X71094000Y-73064762D02*
X71308285Y-72826667D01*
X71736857Y-72588571D01*
X72379714Y-72588571D01*
X72808285Y-72826667D01*
X73022571Y-73302857D01*
X73022571Y-75921905D01*
X73022571Y-73302857D02*
X73236857Y-72826667D01*
X73665428Y-72588571D01*
X74308285Y-72588571D01*
X74736857Y-72826667D01*
X74951142Y-73302857D01*
X74951142Y-75921905D01*
X77736857Y-75921905D02*
X77308285Y-75683810D01*
X77094000Y-75445714D01*
X76879714Y-74969524D01*
X76879714Y-73540952D01*
X77094000Y-73064762D01*
X77308285Y-72826667D01*
X77736857Y-72588571D01*
X78379714Y-72588571D01*
X78808285Y-72826667D01*
X79022571Y-73064762D01*
X79236857Y-73540952D01*
X79236857Y-74969524D01*
X79022571Y-75445714D01*
X78808285Y-75683810D01*
X78379714Y-75921905D01*
X77736857Y-75921905D01*
X81165429Y-75921905D02*
X81165429Y-72588571D01*
X81165429Y-73540952D02*
X81379714Y-73064762D01*
X81594000Y-72826667D01*
X82022571Y-72588571D01*
X82451143Y-72588571D01*
X83951143Y-75921905D02*
X83951143Y-72588571D01*
X83951143Y-70921905D02*
X83736857Y-71160000D01*
X83951143Y-71398095D01*
X84165428Y-71160000D01*
X83951143Y-70921905D01*
X83951143Y-71398095D01*
X88022571Y-75921905D02*
X88022571Y-73302857D01*
X87808285Y-72826667D01*
X87379714Y-72588571D01*
X86522571Y-72588571D01*
X86094000Y-72826667D01*
X88022571Y-75683810D02*
X87594000Y-75921905D01*
X86522571Y-75921905D01*
X86094000Y-75683810D01*
X85879714Y-75207619D01*
X85879714Y-74731429D01*
X86094000Y-74255238D01*
X86522571Y-74017143D01*
X87594000Y-74017143D01*
X88022571Y-73779048D01*
X90808286Y-75921905D02*
X90379714Y-75683810D01*
X90165429Y-75207619D01*
X90165429Y-70921905D01*
X97451143Y-73302857D02*
X98094000Y-73540952D01*
X98308285Y-73779048D01*
X98522571Y-74255238D01*
X98522571Y-74969524D01*
X98308285Y-75445714D01*
X98094000Y-75683810D01*
X97665428Y-75921905D01*
X95951143Y-75921905D01*
X95951143Y-70921905D01*
X97451143Y-70921905D01*
X97879714Y-71160000D01*
X98094000Y-71398095D01*
X98308285Y-71874286D01*
X98308285Y-72350476D01*
X98094000Y-72826667D01*
X97879714Y-73064762D01*
X97451143Y-73302857D01*
X95951143Y-73302857D01*
X102379714Y-75921905D02*
X102379714Y-73302857D01*
X102165428Y-72826667D01*
X101736857Y-72588571D01*
X100879714Y-72588571D01*
X100451143Y-72826667D01*
X102379714Y-75683810D02*
X101951143Y-75921905D01*
X100879714Y-75921905D01*
X100451143Y-75683810D01*
X100236857Y-75207619D01*
X100236857Y-74731429D01*
X100451143Y-74255238D01*
X100879714Y-74017143D01*
X101951143Y-74017143D01*
X102379714Y-73779048D01*
X104522572Y-72588571D02*
X104522572Y-76874286D01*
X104308286Y-77350476D01*
X103879714Y-77588571D01*
X103665429Y-77588571D01*
X104522572Y-70921905D02*
X104308286Y-71160000D01*
X104522572Y-71398095D01*
X104736857Y-71160000D01*
X104522572Y-70921905D01*
X104522572Y-71398095D01*
X108594000Y-75921905D02*
X108594000Y-73302857D01*
X108379714Y-72826667D01*
X107951143Y-72588571D01*
X107094000Y-72588571D01*
X106665429Y-72826667D01*
X108594000Y-75683810D02*
X108165429Y-75921905D01*
X107094000Y-75921905D01*
X106665429Y-75683810D01*
X106451143Y-75207619D01*
X106451143Y-74731429D01*
X106665429Y-74255238D01*
X107094000Y-74017143D01*
X108165429Y-74017143D01*
X108594000Y-73779048D01*
D11*
X178316571Y-144014000D02*
X179030857Y-144014000D01*
X178173714Y-144442571D02*
X178673714Y-142942571D01*
X179173714Y-144442571D01*
X179673714Y-143442571D02*
X179673714Y-144442571D01*
X179673714Y-143585429D02*
X179745142Y-143514000D01*
X179888000Y-143442571D01*
X180102285Y-143442571D01*
X180245142Y-143514000D01*
X180316571Y-143656857D01*
X180316571Y-144442571D01*
X181673714Y-144442571D02*
X181673714Y-143656857D01*
X181602285Y-143514000D01*
X181459428Y-143442571D01*
X181173714Y-143442571D01*
X181030857Y-143514000D01*
X181673714Y-144371143D02*
X181530857Y-144442571D01*
X181173714Y-144442571D01*
X181030857Y-144371143D01*
X180959428Y-144228286D01*
X180959428Y-144085429D01*
X181030857Y-143942571D01*
X181173714Y-143871143D01*
X181530857Y-143871143D01*
X181673714Y-143799714D01*
X182602286Y-144442571D02*
X182459428Y-144371143D01*
X182388000Y-144228286D01*
X182388000Y-142942571D01*
X183388000Y-144442571D02*
X183245142Y-144371143D01*
X183173714Y-144299714D01*
X183102285Y-144156857D01*
X183102285Y-143728286D01*
X183173714Y-143585429D01*
X183245142Y-143514000D01*
X183388000Y-143442571D01*
X183602285Y-143442571D01*
X183745142Y-143514000D01*
X183816571Y-143585429D01*
X183888000Y-143728286D01*
X183888000Y-144156857D01*
X183816571Y-144299714D01*
X183745142Y-144371143D01*
X183602285Y-144442571D01*
X183388000Y-144442571D01*
X185173714Y-143442571D02*
X185173714Y-144656857D01*
X185102285Y-144799714D01*
X185030857Y-144871143D01*
X184888000Y-144942571D01*
X184673714Y-144942571D01*
X184530857Y-144871143D01*
X185173714Y-144371143D02*
X185030857Y-144442571D01*
X184745143Y-144442571D01*
X184602285Y-144371143D01*
X184530857Y-144299714D01*
X184459428Y-144156857D01*
X184459428Y-143728286D01*
X184530857Y-143585429D01*
X184602285Y-143514000D01*
X184745143Y-143442571D01*
X185030857Y-143442571D01*
X185173714Y-143514000D01*
X187030857Y-144442571D02*
X187030857Y-142942571D01*
X187745143Y-143442571D02*
X187745143Y-144442571D01*
X187745143Y-143585429D02*
X187816571Y-143514000D01*
X187959429Y-143442571D01*
X188173714Y-143442571D01*
X188316571Y-143514000D01*
X188388000Y-143656857D01*
X188388000Y-144442571D01*
X57162000Y-102587142D02*
X57090571Y-102729999D01*
X57090571Y-102944285D01*
X57162000Y-103158570D01*
X57304857Y-103301428D01*
X57447714Y-103372856D01*
X57733429Y-103444285D01*
X57947714Y-103444285D01*
X58233429Y-103372856D01*
X58376286Y-103301428D01*
X58519143Y-103158570D01*
X58590571Y-102944285D01*
X58590571Y-102801428D01*
X58519143Y-102587142D01*
X58447714Y-102515713D01*
X57947714Y-102515713D01*
X57947714Y-102801428D01*
X58519143Y-101301428D02*
X58590571Y-101444285D01*
X58590571Y-101729999D01*
X58519143Y-101872856D01*
X58376286Y-101944285D01*
X57804857Y-101944285D01*
X57662000Y-101872856D01*
X57590571Y-101729999D01*
X57590571Y-101444285D01*
X57662000Y-101301428D01*
X57804857Y-101229999D01*
X57947714Y-101229999D01*
X58090571Y-101944285D01*
X58590571Y-99944285D02*
X57804857Y-99944285D01*
X57662000Y-100015714D01*
X57590571Y-100158571D01*
X57590571Y-100444285D01*
X57662000Y-100587142D01*
X58519143Y-99944285D02*
X58590571Y-100087142D01*
X58590571Y-100444285D01*
X58519143Y-100587142D01*
X58376286Y-100658571D01*
X58233429Y-100658571D01*
X58090571Y-100587142D01*
X58019143Y-100444285D01*
X58019143Y-100087142D01*
X57947714Y-99944285D01*
X58590571Y-99229999D02*
X57590571Y-99229999D01*
X57876286Y-99229999D02*
X57733429Y-99158571D01*
X57662000Y-99087142D01*
X57590571Y-98944285D01*
X57590571Y-98801428D01*
X58519143Y-97230000D02*
X58590571Y-97015714D01*
X58590571Y-96658571D01*
X58519143Y-96515714D01*
X58447714Y-96444285D01*
X58304857Y-96372857D01*
X58162000Y-96372857D01*
X58019143Y-96444285D01*
X57947714Y-96515714D01*
X57876286Y-96658571D01*
X57804857Y-96944285D01*
X57733429Y-97087143D01*
X57662000Y-97158571D01*
X57519143Y-97230000D01*
X57376286Y-97230000D01*
X57233429Y-97158571D01*
X57162000Y-97087143D01*
X57090571Y-96944285D01*
X57090571Y-96587143D01*
X57162000Y-96372857D01*
X58590571Y-95730000D02*
X57090571Y-95730000D01*
X58590571Y-95087143D02*
X57804857Y-95087143D01*
X57662000Y-95158572D01*
X57590571Y-95301429D01*
X57590571Y-95515714D01*
X57662000Y-95658572D01*
X57733429Y-95730000D01*
X58590571Y-94372857D02*
X57590571Y-94372857D01*
X57090571Y-94372857D02*
X57162000Y-94444286D01*
X57233429Y-94372857D01*
X57162000Y-94301429D01*
X57090571Y-94372857D01*
X57233429Y-94372857D01*
X57590571Y-93872857D02*
X57590571Y-93301428D01*
X58590571Y-93658571D02*
X57304857Y-93658571D01*
X57162000Y-93587143D01*
X57090571Y-93444285D01*
X57090571Y-93301428D01*
X57590571Y-93015714D02*
X57590571Y-92444285D01*
X57090571Y-92801428D02*
X58376286Y-92801428D01*
X58519143Y-92730000D01*
X58590571Y-92587142D01*
X58590571Y-92444285D01*
X58519143Y-90872857D02*
X58590571Y-90658571D01*
X58590571Y-90301428D01*
X58519143Y-90158571D01*
X58447714Y-90087142D01*
X58304857Y-90015714D01*
X58162000Y-90015714D01*
X58019143Y-90087142D01*
X57947714Y-90158571D01*
X57876286Y-90301428D01*
X57804857Y-90587142D01*
X57733429Y-90730000D01*
X57662000Y-90801428D01*
X57519143Y-90872857D01*
X57376286Y-90872857D01*
X57233429Y-90801428D01*
X57162000Y-90730000D01*
X57090571Y-90587142D01*
X57090571Y-90230000D01*
X57162000Y-90015714D01*
X58519143Y-88801429D02*
X58590571Y-88944286D01*
X58590571Y-89230000D01*
X58519143Y-89372857D01*
X58376286Y-89444286D01*
X57804857Y-89444286D01*
X57662000Y-89372857D01*
X57590571Y-89230000D01*
X57590571Y-88944286D01*
X57662000Y-88801429D01*
X57804857Y-88730000D01*
X57947714Y-88730000D01*
X58090571Y-89444286D01*
X58590571Y-87872857D02*
X58519143Y-88015715D01*
X58376286Y-88087143D01*
X57090571Y-88087143D01*
X58519143Y-86730001D02*
X58590571Y-86872858D01*
X58590571Y-87158572D01*
X58519143Y-87301429D01*
X58376286Y-87372858D01*
X57804857Y-87372858D01*
X57662000Y-87301429D01*
X57590571Y-87158572D01*
X57590571Y-86872858D01*
X57662000Y-86730001D01*
X57804857Y-86658572D01*
X57947714Y-86658572D01*
X58090571Y-87372858D01*
X58519143Y-85372858D02*
X58590571Y-85515715D01*
X58590571Y-85801429D01*
X58519143Y-85944287D01*
X58447714Y-86015715D01*
X58304857Y-86087144D01*
X57876286Y-86087144D01*
X57733429Y-86015715D01*
X57662000Y-85944287D01*
X57590571Y-85801429D01*
X57590571Y-85515715D01*
X57662000Y-85372858D01*
X57590571Y-84944287D02*
X57590571Y-84372858D01*
X57090571Y-84730001D02*
X58376286Y-84730001D01*
X58519143Y-84658573D01*
X58590571Y-84515715D01*
X58590571Y-84372858D01*
X57296857Y-74004857D02*
X57368286Y-73790571D01*
X57439714Y-73719143D01*
X57582571Y-73647714D01*
X57796857Y-73647714D01*
X57939714Y-73719143D01*
X58011143Y-73790571D01*
X58082571Y-73933429D01*
X58082571Y-74504857D01*
X56582571Y-74504857D01*
X56582571Y-74004857D01*
X56654000Y-73862000D01*
X56725429Y-73790571D01*
X56868286Y-73719143D01*
X57011143Y-73719143D01*
X57154000Y-73790571D01*
X57225429Y-73862000D01*
X57296857Y-74004857D01*
X57296857Y-74504857D01*
X57082571Y-72362000D02*
X58082571Y-72362000D01*
X57082571Y-73004857D02*
X57868286Y-73004857D01*
X58011143Y-72933429D01*
X58082571Y-72790571D01*
X58082571Y-72576286D01*
X58011143Y-72433429D01*
X57939714Y-72362000D01*
X57082571Y-71862000D02*
X57082571Y-71290571D01*
X56582571Y-71647714D02*
X57868286Y-71647714D01*
X58011143Y-71576286D01*
X58082571Y-71433428D01*
X58082571Y-71290571D01*
X57082571Y-71004857D02*
X57082571Y-70433428D01*
X56582571Y-70790571D02*
X57868286Y-70790571D01*
X58011143Y-70719143D01*
X58082571Y-70576285D01*
X58082571Y-70433428D01*
X58082571Y-69719142D02*
X58011143Y-69862000D01*
X57939714Y-69933428D01*
X57796857Y-70004857D01*
X57368286Y-70004857D01*
X57225429Y-69933428D01*
X57154000Y-69862000D01*
X57082571Y-69719142D01*
X57082571Y-69504857D01*
X57154000Y-69362000D01*
X57225429Y-69290571D01*
X57368286Y-69219142D01*
X57796857Y-69219142D01*
X57939714Y-69290571D01*
X58011143Y-69362000D01*
X58082571Y-69504857D01*
X58082571Y-69719142D01*
X57082571Y-68576285D02*
X58082571Y-68576285D01*
X57225429Y-68576285D02*
X57154000Y-68504857D01*
X57082571Y-68361999D01*
X57082571Y-68147714D01*
X57154000Y-68004857D01*
X57296857Y-67933428D01*
X58082571Y-67933428D01*
X58011143Y-67290571D02*
X58082571Y-67147714D01*
X58082571Y-66861999D01*
X58011143Y-66719142D01*
X57868286Y-66647714D01*
X57796857Y-66647714D01*
X57654000Y-66719142D01*
X57582571Y-66861999D01*
X57582571Y-67076285D01*
X57511143Y-67219142D01*
X57368286Y-67290571D01*
X57296857Y-67290571D01*
X57154000Y-67219142D01*
X57082571Y-67076285D01*
X57082571Y-66861999D01*
X57154000Y-66719142D01*
D13*
X107315000Y-59690000D02*
X102870000Y-56515000D01*
X142875000Y-59690000D02*
X107315000Y-59690000D01*
X144780000Y-56515000D02*
X142875000Y-59690000D01*
X148590000Y-60325000D02*
X146685000Y-56515000D01*
X188595000Y-60325000D02*
X148590000Y-60325000D01*
X189230000Y-56515000D02*
X188595000Y-60325000D01*
X223520000Y-59690000D02*
X223520000Y-56515000D01*
X222250000Y-59690000D02*
X223520000Y-59690000D01*
X191135000Y-59690000D02*
X222250000Y-59690000D01*
X191135000Y-56515000D02*
X191135000Y-59690000D01*
D11*
X196355001Y-56963571D02*
X197283572Y-56963571D01*
X196783572Y-57535000D01*
X196997858Y-57535000D01*
X197140715Y-57606429D01*
X197212144Y-57677857D01*
X197283572Y-57820714D01*
X197283572Y-58177857D01*
X197212144Y-58320714D01*
X197140715Y-58392143D01*
X196997858Y-58463571D01*
X196569286Y-58463571D01*
X196426429Y-58392143D01*
X196355001Y-58320714D01*
X197712143Y-56963571D02*
X198212143Y-58463571D01*
X198712143Y-56963571D01*
X199069286Y-56963571D02*
X199997857Y-56963571D01*
X199497857Y-57535000D01*
X199712143Y-57535000D01*
X199855000Y-57606429D01*
X199926429Y-57677857D01*
X199997857Y-57820714D01*
X199997857Y-58177857D01*
X199926429Y-58320714D01*
X199855000Y-58392143D01*
X199712143Y-58463571D01*
X199283571Y-58463571D01*
X199140714Y-58392143D01*
X199069286Y-58320714D01*
X201712142Y-58392143D02*
X201926428Y-58463571D01*
X202283571Y-58463571D01*
X202426428Y-58392143D01*
X202497857Y-58320714D01*
X202569285Y-58177857D01*
X202569285Y-58035000D01*
X202497857Y-57892143D01*
X202426428Y-57820714D01*
X202283571Y-57749286D01*
X201997857Y-57677857D01*
X201854999Y-57606429D01*
X201783571Y-57535000D01*
X201712142Y-57392143D01*
X201712142Y-57249286D01*
X201783571Y-57106429D01*
X201854999Y-57035000D01*
X201997857Y-56963571D01*
X202354999Y-56963571D01*
X202569285Y-57035000D01*
X203854999Y-57463571D02*
X203854999Y-58463571D01*
X203212142Y-57463571D02*
X203212142Y-58249286D01*
X203283570Y-58392143D01*
X203426428Y-58463571D01*
X203640713Y-58463571D01*
X203783570Y-58392143D01*
X203854999Y-58320714D01*
X204569285Y-57463571D02*
X204569285Y-58963571D01*
X204569285Y-57535000D02*
X204712142Y-57463571D01*
X204997856Y-57463571D01*
X205140713Y-57535000D01*
X205212142Y-57606429D01*
X205283571Y-57749286D01*
X205283571Y-58177857D01*
X205212142Y-58320714D01*
X205140713Y-58392143D01*
X204997856Y-58463571D01*
X204712142Y-58463571D01*
X204569285Y-58392143D01*
X205926428Y-57463571D02*
X205926428Y-58963571D01*
X205926428Y-57535000D02*
X206069285Y-57463571D01*
X206354999Y-57463571D01*
X206497856Y-57535000D01*
X206569285Y-57606429D01*
X206640714Y-57749286D01*
X206640714Y-58177857D01*
X206569285Y-58320714D01*
X206497856Y-58392143D01*
X206354999Y-58463571D01*
X206069285Y-58463571D01*
X205926428Y-58392143D01*
X207497857Y-58463571D02*
X207354999Y-58392143D01*
X207283571Y-58249286D01*
X207283571Y-56963571D01*
X207926428Y-57463571D02*
X208283571Y-58463571D01*
X208640713Y-57463571D02*
X208283571Y-58463571D01*
X208140713Y-58820714D01*
X208069285Y-58892143D01*
X207926428Y-58963571D01*
X210854999Y-57677857D02*
X211069285Y-57749286D01*
X211140713Y-57820714D01*
X211212142Y-57963571D01*
X211212142Y-58177857D01*
X211140713Y-58320714D01*
X211069285Y-58392143D01*
X210926427Y-58463571D01*
X210354999Y-58463571D01*
X210354999Y-56963571D01*
X210854999Y-56963571D01*
X210997856Y-57035000D01*
X211069285Y-57106429D01*
X211140713Y-57249286D01*
X211140713Y-57392143D01*
X211069285Y-57535000D01*
X210997856Y-57606429D01*
X210854999Y-57677857D01*
X210354999Y-57677857D01*
X212497856Y-57463571D02*
X212497856Y-58463571D01*
X211854999Y-57463571D02*
X211854999Y-58249286D01*
X211926427Y-58392143D01*
X212069285Y-58463571D01*
X212283570Y-58463571D01*
X212426427Y-58392143D01*
X212497856Y-58320714D01*
X213140713Y-58392143D02*
X213283570Y-58463571D01*
X213569285Y-58463571D01*
X213712142Y-58392143D01*
X213783570Y-58249286D01*
X213783570Y-58177857D01*
X213712142Y-58035000D01*
X213569285Y-57963571D01*
X213354999Y-57963571D01*
X213212142Y-57892143D01*
X213140713Y-57749286D01*
X213140713Y-57677857D01*
X213212142Y-57535000D01*
X213354999Y-57463571D01*
X213569285Y-57463571D01*
X213712142Y-57535000D01*
X161731430Y-56963571D02*
X161017144Y-56963571D01*
X160945715Y-57677857D01*
X161017144Y-57606429D01*
X161160001Y-57535000D01*
X161517144Y-57535000D01*
X161660001Y-57606429D01*
X161731430Y-57677857D01*
X161802858Y-57820714D01*
X161802858Y-58177857D01*
X161731430Y-58320714D01*
X161660001Y-58392143D01*
X161517144Y-58463571D01*
X161160001Y-58463571D01*
X161017144Y-58392143D01*
X160945715Y-58320714D01*
X162231429Y-56963571D02*
X162731429Y-58463571D01*
X163231429Y-56963571D01*
X164802857Y-58392143D02*
X165017143Y-58463571D01*
X165374286Y-58463571D01*
X165517143Y-58392143D01*
X165588572Y-58320714D01*
X165660000Y-58177857D01*
X165660000Y-58035000D01*
X165588572Y-57892143D01*
X165517143Y-57820714D01*
X165374286Y-57749286D01*
X165088572Y-57677857D01*
X164945714Y-57606429D01*
X164874286Y-57535000D01*
X164802857Y-57392143D01*
X164802857Y-57249286D01*
X164874286Y-57106429D01*
X164945714Y-57035000D01*
X165088572Y-56963571D01*
X165445714Y-56963571D01*
X165660000Y-57035000D01*
X166945714Y-57463571D02*
X166945714Y-58463571D01*
X166302857Y-57463571D02*
X166302857Y-58249286D01*
X166374285Y-58392143D01*
X166517143Y-58463571D01*
X166731428Y-58463571D01*
X166874285Y-58392143D01*
X166945714Y-58320714D01*
X167660000Y-57463571D02*
X167660000Y-58963571D01*
X167660000Y-57535000D02*
X167802857Y-57463571D01*
X168088571Y-57463571D01*
X168231428Y-57535000D01*
X168302857Y-57606429D01*
X168374286Y-57749286D01*
X168374286Y-58177857D01*
X168302857Y-58320714D01*
X168231428Y-58392143D01*
X168088571Y-58463571D01*
X167802857Y-58463571D01*
X167660000Y-58392143D01*
X169017143Y-57463571D02*
X169017143Y-58963571D01*
X169017143Y-57535000D02*
X169160000Y-57463571D01*
X169445714Y-57463571D01*
X169588571Y-57535000D01*
X169660000Y-57606429D01*
X169731429Y-57749286D01*
X169731429Y-58177857D01*
X169660000Y-58320714D01*
X169588571Y-58392143D01*
X169445714Y-58463571D01*
X169160000Y-58463571D01*
X169017143Y-58392143D01*
X170588572Y-58463571D02*
X170445714Y-58392143D01*
X170374286Y-58249286D01*
X170374286Y-56963571D01*
X171017143Y-57463571D02*
X171374286Y-58463571D01*
X171731428Y-57463571D02*
X171374286Y-58463571D01*
X171231428Y-58820714D01*
X171160000Y-58892143D01*
X171017143Y-58963571D01*
X173945714Y-57677857D02*
X174160000Y-57749286D01*
X174231428Y-57820714D01*
X174302857Y-57963571D01*
X174302857Y-58177857D01*
X174231428Y-58320714D01*
X174160000Y-58392143D01*
X174017142Y-58463571D01*
X173445714Y-58463571D01*
X173445714Y-56963571D01*
X173945714Y-56963571D01*
X174088571Y-57035000D01*
X174160000Y-57106429D01*
X174231428Y-57249286D01*
X174231428Y-57392143D01*
X174160000Y-57535000D01*
X174088571Y-57606429D01*
X173945714Y-57677857D01*
X173445714Y-57677857D01*
X175588571Y-57463571D02*
X175588571Y-58463571D01*
X174945714Y-57463571D02*
X174945714Y-58249286D01*
X175017142Y-58392143D01*
X175160000Y-58463571D01*
X175374285Y-58463571D01*
X175517142Y-58392143D01*
X175588571Y-58320714D01*
X176231428Y-58392143D02*
X176374285Y-58463571D01*
X176660000Y-58463571D01*
X176802857Y-58392143D01*
X176874285Y-58249286D01*
X176874285Y-58177857D01*
X176802857Y-58035000D01*
X176660000Y-57963571D01*
X176445714Y-57963571D01*
X176302857Y-57892143D01*
X176231428Y-57749286D01*
X176231428Y-57677857D01*
X176302857Y-57535000D01*
X176445714Y-57463571D01*
X176660000Y-57463571D01*
X176802857Y-57535000D01*
X115368572Y-58463571D02*
X114511429Y-58463571D01*
X114940001Y-58463571D02*
X114940001Y-56963571D01*
X114797144Y-57177857D01*
X114654286Y-57320714D01*
X114511429Y-57392143D01*
X115940000Y-57106429D02*
X116011429Y-57035000D01*
X116154286Y-56963571D01*
X116511429Y-56963571D01*
X116654286Y-57035000D01*
X116725715Y-57106429D01*
X116797143Y-57249286D01*
X116797143Y-57392143D01*
X116725715Y-57606429D01*
X115868572Y-58463571D01*
X116797143Y-58463571D01*
X117225714Y-56963571D02*
X117725714Y-58463571D01*
X118225714Y-56963571D01*
X119797142Y-58392143D02*
X120011428Y-58463571D01*
X120368571Y-58463571D01*
X120511428Y-58392143D01*
X120582857Y-58320714D01*
X120654285Y-58177857D01*
X120654285Y-58035000D01*
X120582857Y-57892143D01*
X120511428Y-57820714D01*
X120368571Y-57749286D01*
X120082857Y-57677857D01*
X119939999Y-57606429D01*
X119868571Y-57535000D01*
X119797142Y-57392143D01*
X119797142Y-57249286D01*
X119868571Y-57106429D01*
X119939999Y-57035000D01*
X120082857Y-56963571D01*
X120439999Y-56963571D01*
X120654285Y-57035000D01*
X121939999Y-57463571D02*
X121939999Y-58463571D01*
X121297142Y-57463571D02*
X121297142Y-58249286D01*
X121368570Y-58392143D01*
X121511428Y-58463571D01*
X121725713Y-58463571D01*
X121868570Y-58392143D01*
X121939999Y-58320714D01*
X122654285Y-57463571D02*
X122654285Y-58963571D01*
X122654285Y-57535000D02*
X122797142Y-57463571D01*
X123082856Y-57463571D01*
X123225713Y-57535000D01*
X123297142Y-57606429D01*
X123368571Y-57749286D01*
X123368571Y-58177857D01*
X123297142Y-58320714D01*
X123225713Y-58392143D01*
X123082856Y-58463571D01*
X122797142Y-58463571D01*
X122654285Y-58392143D01*
X124011428Y-57463571D02*
X124011428Y-58963571D01*
X124011428Y-57535000D02*
X124154285Y-57463571D01*
X124439999Y-57463571D01*
X124582856Y-57535000D01*
X124654285Y-57606429D01*
X124725714Y-57749286D01*
X124725714Y-58177857D01*
X124654285Y-58320714D01*
X124582856Y-58392143D01*
X124439999Y-58463571D01*
X124154285Y-58463571D01*
X124011428Y-58392143D01*
X125582857Y-58463571D02*
X125439999Y-58392143D01*
X125368571Y-58249286D01*
X125368571Y-56963571D01*
X126011428Y-57463571D02*
X126368571Y-58463571D01*
X126725713Y-57463571D02*
X126368571Y-58463571D01*
X126225713Y-58820714D01*
X126154285Y-58892143D01*
X126011428Y-58963571D01*
X128939999Y-57677857D02*
X129154285Y-57749286D01*
X129225713Y-57820714D01*
X129297142Y-57963571D01*
X129297142Y-58177857D01*
X129225713Y-58320714D01*
X129154285Y-58392143D01*
X129011427Y-58463571D01*
X128439999Y-58463571D01*
X128439999Y-56963571D01*
X128939999Y-56963571D01*
X129082856Y-57035000D01*
X129154285Y-57106429D01*
X129225713Y-57249286D01*
X129225713Y-57392143D01*
X129154285Y-57535000D01*
X129082856Y-57606429D01*
X128939999Y-57677857D01*
X128439999Y-57677857D01*
X130582856Y-57463571D02*
X130582856Y-58463571D01*
X129939999Y-57463571D02*
X129939999Y-58249286D01*
X130011427Y-58392143D01*
X130154285Y-58463571D01*
X130368570Y-58463571D01*
X130511427Y-58392143D01*
X130582856Y-58320714D01*
X131225713Y-58392143D02*
X131368570Y-58463571D01*
X131654285Y-58463571D01*
X131797142Y-58392143D01*
X131868570Y-58249286D01*
X131868570Y-58177857D01*
X131797142Y-58035000D01*
X131654285Y-57963571D01*
X131439999Y-57963571D01*
X131297142Y-57892143D01*
X131225713Y-57749286D01*
X131225713Y-57677857D01*
X131297142Y-57535000D01*
X131439999Y-57463571D01*
X131654285Y-57463571D01*
X131797142Y-57535000D01*
X95520715Y-81530000D02*
X96235001Y-81530000D01*
X95377858Y-81958571D02*
X95877858Y-80458571D01*
X96377858Y-81958571D01*
X96663572Y-80458571D02*
X97520715Y-80458571D01*
X97092144Y-81958571D02*
X97092144Y-80458571D01*
X98020715Y-81958571D02*
X98020715Y-80458571D01*
X98520715Y-81530000D01*
X99020715Y-80458571D01*
X99020715Y-81958571D01*
X99735001Y-81172857D02*
X100235001Y-81172857D01*
X100449287Y-81958571D02*
X99735001Y-81958571D01*
X99735001Y-80458571D01*
X100449287Y-80458571D01*
X101877858Y-80530000D02*
X101735001Y-80458571D01*
X101520715Y-80458571D01*
X101306430Y-80530000D01*
X101163572Y-80672857D01*
X101092144Y-80815714D01*
X101020715Y-81101429D01*
X101020715Y-81315714D01*
X101092144Y-81601429D01*
X101163572Y-81744286D01*
X101306430Y-81887143D01*
X101520715Y-81958571D01*
X101663572Y-81958571D01*
X101877858Y-81887143D01*
X101949287Y-81815714D01*
X101949287Y-81315714D01*
X101663572Y-81315714D01*
X102520715Y-81530000D02*
X103235001Y-81530000D01*
X102377858Y-81958571D02*
X102877858Y-80458571D01*
X103377858Y-81958571D01*
X103806429Y-80601429D02*
X103877858Y-80530000D01*
X104020715Y-80458571D01*
X104377858Y-80458571D01*
X104520715Y-80530000D01*
X104592144Y-80601429D01*
X104663572Y-80744286D01*
X104663572Y-80887143D01*
X104592144Y-81101429D01*
X103735001Y-81958571D01*
X104663572Y-81958571D01*
X106020715Y-80458571D02*
X105306429Y-80458571D01*
X105235000Y-81172857D01*
X105306429Y-81101429D01*
X105449286Y-81030000D01*
X105806429Y-81030000D01*
X105949286Y-81101429D01*
X106020715Y-81172857D01*
X106092143Y-81315714D01*
X106092143Y-81672857D01*
X106020715Y-81815714D01*
X105949286Y-81887143D01*
X105806429Y-81958571D01*
X105449286Y-81958571D01*
X105306429Y-81887143D01*
X105235000Y-81815714D01*
X107377857Y-80458571D02*
X107092143Y-80458571D01*
X106949286Y-80530000D01*
X106877857Y-80601429D01*
X106735000Y-80815714D01*
X106663571Y-81101429D01*
X106663571Y-81672857D01*
X106735000Y-81815714D01*
X106806428Y-81887143D01*
X106949286Y-81958571D01*
X107235000Y-81958571D01*
X107377857Y-81887143D01*
X107449286Y-81815714D01*
X107520714Y-81672857D01*
X107520714Y-81315714D01*
X107449286Y-81172857D01*
X107377857Y-81101429D01*
X107235000Y-81030000D01*
X106949286Y-81030000D01*
X106806428Y-81101429D01*
X106735000Y-81172857D01*
X106663571Y-81315714D01*
X108449285Y-80458571D02*
X108592142Y-80458571D01*
X108734999Y-80530000D01*
X108806428Y-80601429D01*
X108877857Y-80744286D01*
X108949285Y-81030000D01*
X108949285Y-81387143D01*
X108877857Y-81672857D01*
X108806428Y-81815714D01*
X108734999Y-81887143D01*
X108592142Y-81958571D01*
X108449285Y-81958571D01*
X108306428Y-81887143D01*
X108234999Y-81815714D01*
X108163571Y-81672857D01*
X108092142Y-81387143D01*
X108092142Y-81030000D01*
X108163571Y-80744286D01*
X108234999Y-80601429D01*
X108306428Y-80530000D01*
X108449285Y-80458571D01*
X141930715Y-97833571D02*
X141930715Y-96333571D01*
X143502144Y-97690714D02*
X143430715Y-97762143D01*
X143216429Y-97833571D01*
X143073572Y-97833571D01*
X142859287Y-97762143D01*
X142716429Y-97619286D01*
X142645001Y-97476429D01*
X142573572Y-97190714D01*
X142573572Y-96976429D01*
X142645001Y-96690714D01*
X142716429Y-96547857D01*
X142859287Y-96405000D01*
X143073572Y-96333571D01*
X143216429Y-96333571D01*
X143430715Y-96405000D01*
X143502144Y-96476429D01*
X144073572Y-97762143D02*
X144287858Y-97833571D01*
X144645001Y-97833571D01*
X144787858Y-97762143D01*
X144859287Y-97690714D01*
X144930715Y-97547857D01*
X144930715Y-97405000D01*
X144859287Y-97262143D01*
X144787858Y-97190714D01*
X144645001Y-97119286D01*
X144359287Y-97047857D01*
X144216429Y-96976429D01*
X144145001Y-96905000D01*
X144073572Y-96762143D01*
X144073572Y-96619286D01*
X144145001Y-96476429D01*
X144216429Y-96405000D01*
X144359287Y-96333571D01*
X144716429Y-96333571D01*
X144930715Y-96405000D01*
X145573572Y-97833571D02*
X145573572Y-96333571D01*
X146145000Y-96333571D01*
X146287858Y-96405000D01*
X146359286Y-96476429D01*
X146430715Y-96619286D01*
X146430715Y-96833571D01*
X146359286Y-96976429D01*
X146287858Y-97047857D01*
X146145000Y-97119286D01*
X145573572Y-97119286D01*
X196977143Y-79053571D02*
X196977143Y-80053571D01*
X196334286Y-79053571D02*
X196334286Y-79839286D01*
X196405714Y-79982143D01*
X196548572Y-80053571D01*
X196762857Y-80053571D01*
X196905714Y-79982143D01*
X196977143Y-79910714D01*
X197620000Y-79982143D02*
X197834286Y-80053571D01*
X198191429Y-80053571D01*
X198334286Y-79982143D01*
X198405715Y-79910714D01*
X198477143Y-79767857D01*
X198477143Y-79625000D01*
X198405715Y-79482143D01*
X198334286Y-79410714D01*
X198191429Y-79339286D01*
X197905715Y-79267857D01*
X197762857Y-79196429D01*
X197691429Y-79125000D01*
X197620000Y-78982143D01*
X197620000Y-78839286D01*
X197691429Y-78696429D01*
X197762857Y-78625000D01*
X197905715Y-78553571D01*
X198262857Y-78553571D01*
X198477143Y-78625000D01*
X199120000Y-80053571D02*
X199120000Y-78553571D01*
X199477143Y-78553571D01*
X199691428Y-78625000D01*
X199834286Y-78767857D01*
X199905714Y-78910714D01*
X199977143Y-79196429D01*
X199977143Y-79410714D01*
X199905714Y-79696429D01*
X199834286Y-79839286D01*
X199691428Y-79982143D01*
X199477143Y-80053571D01*
X199120000Y-80053571D01*
D13*
X213360000Y-69850000D02*
X213360000Y-90805000D01*
X182245000Y-69850000D02*
X213360000Y-69850000D01*
X182245000Y-90805000D02*
X213360000Y-90805000D01*
X182245000Y-69850000D02*
X182245000Y-90805000D01*
D14*
X213935000Y-114995000D02*
X216595000Y-114995000D01*
X213935000Y-102235000D02*
X213935000Y-114995000D01*
X216595000Y-102235000D02*
X216595000Y-114995000D01*
X213935000Y-102235000D02*
X216595000Y-102235000D01*
X213935000Y-100965000D02*
X213935000Y-99635000D01*
X213935000Y-99635000D02*
X215265000Y-99635000D01*
X237430000Y-111185000D02*
X242630000Y-111185000D01*
X237430000Y-62865000D02*
X237430000Y-111185000D01*
X242630000Y-60265000D02*
X242630000Y-111185000D01*
X237430000Y-62865000D02*
X240030000Y-62865000D01*
X240030000Y-62865000D02*
X240030000Y-60265000D01*
X240030000Y-60265000D02*
X242630000Y-60265000D01*
X237430000Y-61595000D02*
X237430000Y-60265000D01*
X237430000Y-60265000D02*
X238760000Y-60265000D01*
X204410000Y-140395000D02*
X207070000Y-140395000D01*
X204410000Y-102235000D02*
X204410000Y-140395000D01*
X207070000Y-102235000D02*
X207070000Y-140395000D01*
X204410000Y-102235000D02*
X207070000Y-102235000D01*
X204410000Y-100965000D02*
X204410000Y-99635000D01*
X204410000Y-99635000D02*
X205740000Y-99635000D01*
X76231000Y-132579000D02*
X75031000Y-132579000D01*
X75031000Y-130819000D02*
X76231000Y-130819000D01*
X176386789Y-89685370D02*
G75*
G02X171885000Y-92532000I-8111789J7845370D01*
G01*
X160163211Y-73994630D02*
G75*
G02X164665000Y-71148000I8111789J-7845370D01*
G01*
X176386789Y-73994630D02*
G75*
G03X171885000Y-71148000I-8111789J-7845370D01*
G01*
X160163211Y-89685370D02*
G75*
G03X164665000Y-92532000I8111789J7845370D01*
G01*
X170175000Y-96150000D02*
X171885000Y-96150000D01*
X171885000Y-92532000D02*
X171885000Y-96150000D01*
X176385000Y-85700000D02*
X176385000Y-89687300D01*
X174185000Y-83500000D02*
X176385000Y-85700000D01*
X174185000Y-80180000D02*
X174185000Y-83500000D01*
X174185000Y-80180000D02*
X176385000Y-77980000D01*
X176385000Y-73992700D02*
X176385000Y-77980000D01*
X170175000Y-67530000D02*
X171885000Y-67530000D01*
X171885000Y-67530000D02*
X171885000Y-71148000D01*
X164665000Y-71148000D02*
X164665000Y-67530000D01*
X166375000Y-67530000D02*
X164665000Y-67530000D01*
X160165000Y-89687300D02*
X160165000Y-73992700D01*
X166375000Y-96150000D02*
X164665000Y-96150000D01*
X164665000Y-96150000D02*
X164665000Y-92532000D01*
X71254474Y-54609126D02*
X73254474Y-54609126D01*
X73254474Y-51649126D02*
X71254474Y-51649126D01*
X72654474Y-55069126D02*
X73354474Y-55069126D01*
X73354474Y-56269126D02*
X72654474Y-56269126D01*
X69479474Y-60784126D02*
X70179474Y-60784126D01*
X70179474Y-61984126D02*
X69479474Y-61984126D01*
X80604474Y-65579126D02*
X82604474Y-65579126D01*
X82604474Y-63539126D02*
X80604474Y-63539126D01*
X117895000Y-74160000D02*
X117895000Y-75160000D01*
X119595000Y-75160000D02*
X119595000Y-74160000D01*
X112815000Y-74065000D02*
X112815000Y-75065000D01*
X114515000Y-75065000D02*
X114515000Y-74065000D01*
X122770000Y-102370000D02*
X122770000Y-101370000D01*
X121070000Y-101370000D02*
X121070000Y-102370000D01*
X122340000Y-81685000D02*
X122340000Y-82685000D01*
X124040000Y-82685000D02*
X124040000Y-81685000D01*
X102005000Y-91655000D02*
X103005000Y-91655000D01*
X103005000Y-89955000D02*
X102005000Y-89955000D01*
X110705000Y-103100000D02*
X110705000Y-102100000D01*
X109005000Y-102100000D02*
X109005000Y-103100000D01*
X125325000Y-92495000D02*
X124325000Y-92495000D01*
X124325000Y-94195000D02*
X125325000Y-94195000D01*
X92290000Y-106180000D02*
X92290000Y-105180000D01*
X90590000Y-105180000D02*
X90590000Y-106180000D01*
X93130000Y-105180000D02*
X93130000Y-106180000D01*
X94830000Y-106180000D02*
X94830000Y-105180000D01*
X108370000Y-114070000D02*
X108370000Y-115070000D01*
X110070000Y-115070000D02*
X110070000Y-114070000D01*
X118530000Y-114070000D02*
X118530000Y-115070000D01*
X120230000Y-115070000D02*
X120230000Y-114070000D01*
X84304000Y-106846000D02*
X83304000Y-106846000D01*
X83304000Y-108546000D02*
X84304000Y-108546000D01*
X128690000Y-114070000D02*
X128690000Y-115070000D01*
X130390000Y-115070000D02*
X130390000Y-114070000D01*
X139485000Y-114705000D02*
X139485000Y-115705000D01*
X141185000Y-115705000D02*
X141185000Y-114705000D01*
X84304000Y-98718000D02*
X83304000Y-98718000D01*
X83304000Y-100418000D02*
X84304000Y-100418000D01*
X84304000Y-100750000D02*
X83304000Y-100750000D01*
X83304000Y-102450000D02*
X84304000Y-102450000D01*
X60349000Y-125945000D02*
X61349000Y-125945000D01*
X61349000Y-124245000D02*
X60349000Y-124245000D01*
X59475000Y-112387000D02*
X59475000Y-113387000D01*
X61175000Y-113387000D02*
X61175000Y-112387000D01*
X60349000Y-123913000D02*
X61349000Y-123913000D01*
X61349000Y-122213000D02*
X60349000Y-122213000D01*
X62889000Y-112737000D02*
X63889000Y-112737000D01*
X63889000Y-111037000D02*
X62889000Y-111037000D01*
X60857000Y-116801000D02*
X61857000Y-116801000D01*
X61857000Y-115101000D02*
X60857000Y-115101000D01*
X60349000Y-121881000D02*
X61349000Y-121881000D01*
X61349000Y-120181000D02*
X60349000Y-120181000D01*
X177935000Y-114085000D02*
X176935000Y-114085000D01*
X176935000Y-115785000D02*
X177935000Y-115785000D01*
X129645000Y-72285000D02*
X131045000Y-72285000D01*
X131045000Y-72285000D02*
X131045000Y-69485000D01*
X129645000Y-72285000D02*
X129645000Y-69485000D01*
X136841000Y-72455000D02*
X138241000Y-72455000D01*
X138241000Y-72455000D02*
X138241000Y-69655000D01*
X136841000Y-72455000D02*
X136841000Y-69655000D01*
X143953000Y-72455000D02*
X145353000Y-72455000D01*
X145353000Y-72455000D02*
X145353000Y-69655000D01*
X143953000Y-72455000D02*
X143953000Y-69655000D01*
X72960000Y-80580000D02*
X72960000Y-81980000D01*
X72960000Y-81980000D02*
X75760000Y-81980000D01*
X72960000Y-80580000D02*
X75760000Y-80580000D01*
X72960000Y-85025000D02*
X72960000Y-86425000D01*
X72960000Y-86425000D02*
X75760000Y-86425000D01*
X72960000Y-85025000D02*
X75760000Y-85025000D01*
X72960000Y-89470000D02*
X72960000Y-90870000D01*
X72960000Y-90870000D02*
X75760000Y-90870000D01*
X72960000Y-89470000D02*
X75760000Y-89470000D01*
X163608552Y-120012892D02*
X160948552Y-120012892D01*
X163608552Y-127692892D02*
X163608552Y-120012892D01*
X160948552Y-127692892D02*
X160948552Y-120012892D01*
X163608552Y-127692892D02*
X160948552Y-127692892D01*
X163608552Y-128962892D02*
X163608552Y-130292892D01*
X163608552Y-130292892D02*
X162278552Y-130292892D01*
X58871000Y-135345000D02*
X58871000Y-141295000D01*
X58871000Y-141295000D02*
X68971000Y-141295000D01*
X68971000Y-141295000D02*
X68971000Y-135345000D01*
X68971000Y-135345000D02*
X58871000Y-135345000D01*
X62171000Y-135345000D02*
X62171000Y-136095000D01*
X62171000Y-136095000D02*
X65671000Y-136095000D01*
X65671000Y-136095000D02*
X65671000Y-135345000D01*
X65671000Y-135345000D02*
X62171000Y-135345000D01*
X58871000Y-135345000D02*
X58871000Y-136095000D01*
X58871000Y-136095000D02*
X60671000Y-136095000D01*
X60671000Y-136095000D02*
X60671000Y-135345000D01*
X60671000Y-135345000D02*
X58871000Y-135345000D01*
X67171000Y-135345000D02*
X67171000Y-136095000D01*
X67171000Y-136095000D02*
X68971000Y-136095000D01*
X68971000Y-136095000D02*
X68971000Y-135345000D01*
X68971000Y-135345000D02*
X67171000Y-135345000D01*
X58871000Y-137595000D02*
X59621000Y-137595000D01*
X59621000Y-137595000D02*
X59621000Y-140545000D01*
X59621000Y-140545000D02*
X63921000Y-140545000D01*
X68971000Y-137595000D02*
X68221000Y-137595000D01*
X68221000Y-137595000D02*
X68221000Y-140545000D01*
X68221000Y-140545000D02*
X63921000Y-140545000D01*
X61071000Y-135045000D02*
X58571000Y-135045000D01*
X58571000Y-135045000D02*
X58571000Y-137545000D01*
X70602000Y-135345000D02*
X70602000Y-141295000D01*
X70602000Y-141295000D02*
X80702000Y-141295000D01*
X80702000Y-141295000D02*
X80702000Y-135345000D01*
X80702000Y-135345000D02*
X70602000Y-135345000D01*
X73902000Y-135345000D02*
X73902000Y-136095000D01*
X73902000Y-136095000D02*
X77402000Y-136095000D01*
X77402000Y-136095000D02*
X77402000Y-135345000D01*
X77402000Y-135345000D02*
X73902000Y-135345000D01*
X70602000Y-135345000D02*
X70602000Y-136095000D01*
X70602000Y-136095000D02*
X72402000Y-136095000D01*
X72402000Y-136095000D02*
X72402000Y-135345000D01*
X72402000Y-135345000D02*
X70602000Y-135345000D01*
X78902000Y-135345000D02*
X78902000Y-136095000D01*
X78902000Y-136095000D02*
X80702000Y-136095000D01*
X80702000Y-136095000D02*
X80702000Y-135345000D01*
X80702000Y-135345000D02*
X78902000Y-135345000D01*
X70602000Y-137595000D02*
X71352000Y-137595000D01*
X71352000Y-137595000D02*
X71352000Y-140545000D01*
X71352000Y-140545000D02*
X75652000Y-140545000D01*
X80702000Y-137595000D02*
X79952000Y-137595000D01*
X79952000Y-137595000D02*
X79952000Y-140545000D01*
X79952000Y-140545000D02*
X75652000Y-140545000D01*
X72802000Y-135045000D02*
X70302000Y-135045000D01*
X70302000Y-135045000D02*
X70302000Y-137545000D01*
X82159000Y-135345000D02*
X82159000Y-141295000D01*
X82159000Y-141295000D02*
X92259000Y-141295000D01*
X92259000Y-141295000D02*
X92259000Y-135345000D01*
X92259000Y-135345000D02*
X82159000Y-135345000D01*
X85459000Y-135345000D02*
X85459000Y-136095000D01*
X85459000Y-136095000D02*
X88959000Y-136095000D01*
X88959000Y-136095000D02*
X88959000Y-135345000D01*
X88959000Y-135345000D02*
X85459000Y-135345000D01*
X82159000Y-135345000D02*
X82159000Y-136095000D01*
X82159000Y-136095000D02*
X83959000Y-136095000D01*
X83959000Y-136095000D02*
X83959000Y-135345000D01*
X83959000Y-135345000D02*
X82159000Y-135345000D01*
X90459000Y-135345000D02*
X90459000Y-136095000D01*
X90459000Y-136095000D02*
X92259000Y-136095000D01*
X92259000Y-136095000D02*
X92259000Y-135345000D01*
X92259000Y-135345000D02*
X90459000Y-135345000D01*
X82159000Y-137595000D02*
X82909000Y-137595000D01*
X82909000Y-137595000D02*
X82909000Y-140545000D01*
X82909000Y-140545000D02*
X87209000Y-140545000D01*
X92259000Y-137595000D02*
X91509000Y-137595000D01*
X91509000Y-137595000D02*
X91509000Y-140545000D01*
X91509000Y-140545000D02*
X87209000Y-140545000D01*
X84359000Y-135045000D02*
X81859000Y-135045000D01*
X81859000Y-135045000D02*
X81859000Y-137545000D01*
X93843000Y-135345000D02*
X93843000Y-141295000D01*
X93843000Y-141295000D02*
X103943000Y-141295000D01*
X103943000Y-141295000D02*
X103943000Y-135345000D01*
X103943000Y-135345000D02*
X93843000Y-135345000D01*
X97143000Y-135345000D02*
X97143000Y-136095000D01*
X97143000Y-136095000D02*
X100643000Y-136095000D01*
X100643000Y-136095000D02*
X100643000Y-135345000D01*
X100643000Y-135345000D02*
X97143000Y-135345000D01*
X93843000Y-135345000D02*
X93843000Y-136095000D01*
X93843000Y-136095000D02*
X95643000Y-136095000D01*
X95643000Y-136095000D02*
X95643000Y-135345000D01*
X95643000Y-135345000D02*
X93843000Y-135345000D01*
X102143000Y-135345000D02*
X102143000Y-136095000D01*
X102143000Y-136095000D02*
X103943000Y-136095000D01*
X103943000Y-136095000D02*
X103943000Y-135345000D01*
X103943000Y-135345000D02*
X102143000Y-135345000D01*
X93843000Y-137595000D02*
X94593000Y-137595000D01*
X94593000Y-137595000D02*
X94593000Y-140545000D01*
X94593000Y-140545000D02*
X98893000Y-140545000D01*
X103943000Y-137595000D02*
X103193000Y-137595000D01*
X103193000Y-137595000D02*
X103193000Y-140545000D01*
X103193000Y-140545000D02*
X98893000Y-140545000D01*
X96043000Y-135045000D02*
X93543000Y-135045000D01*
X93543000Y-135045000D02*
X93543000Y-137545000D01*
X105527000Y-135345000D02*
X105527000Y-141295000D01*
X105527000Y-141295000D02*
X115627000Y-141295000D01*
X115627000Y-141295000D02*
X115627000Y-135345000D01*
X115627000Y-135345000D02*
X105527000Y-135345000D01*
X108827000Y-135345000D02*
X108827000Y-136095000D01*
X108827000Y-136095000D02*
X112327000Y-136095000D01*
X112327000Y-136095000D02*
X112327000Y-135345000D01*
X112327000Y-135345000D02*
X108827000Y-135345000D01*
X105527000Y-135345000D02*
X105527000Y-136095000D01*
X105527000Y-136095000D02*
X107327000Y-136095000D01*
X107327000Y-136095000D02*
X107327000Y-135345000D01*
X107327000Y-135345000D02*
X105527000Y-135345000D01*
X113827000Y-135345000D02*
X113827000Y-136095000D01*
X113827000Y-136095000D02*
X115627000Y-136095000D01*
X115627000Y-136095000D02*
X115627000Y-135345000D01*
X115627000Y-135345000D02*
X113827000Y-135345000D01*
X105527000Y-137595000D02*
X106277000Y-137595000D01*
X106277000Y-137595000D02*
X106277000Y-140545000D01*
X106277000Y-140545000D02*
X110577000Y-140545000D01*
X115627000Y-137595000D02*
X114877000Y-137595000D01*
X114877000Y-137595000D02*
X114877000Y-140545000D01*
X114877000Y-140545000D02*
X110577000Y-140545000D01*
X107727000Y-135045000D02*
X105227000Y-135045000D01*
X105227000Y-135045000D02*
X105227000Y-137545000D01*
X117211000Y-135345000D02*
X117211000Y-141295000D01*
X117211000Y-141295000D02*
X127311000Y-141295000D01*
X127311000Y-141295000D02*
X127311000Y-135345000D01*
X127311000Y-135345000D02*
X117211000Y-135345000D01*
X120511000Y-135345000D02*
X120511000Y-136095000D01*
X120511000Y-136095000D02*
X124011000Y-136095000D01*
X124011000Y-136095000D02*
X124011000Y-135345000D01*
X124011000Y-135345000D02*
X120511000Y-135345000D01*
X117211000Y-135345000D02*
X117211000Y-136095000D01*
X117211000Y-136095000D02*
X119011000Y-136095000D01*
X119011000Y-136095000D02*
X119011000Y-135345000D01*
X119011000Y-135345000D02*
X117211000Y-135345000D01*
X125511000Y-135345000D02*
X125511000Y-136095000D01*
X125511000Y-136095000D02*
X127311000Y-136095000D01*
X127311000Y-136095000D02*
X127311000Y-135345000D01*
X127311000Y-135345000D02*
X125511000Y-135345000D01*
X117211000Y-137595000D02*
X117961000Y-137595000D01*
X117961000Y-137595000D02*
X117961000Y-140545000D01*
X117961000Y-140545000D02*
X122261000Y-140545000D01*
X127311000Y-137595000D02*
X126561000Y-137595000D01*
X126561000Y-137595000D02*
X126561000Y-140545000D01*
X126561000Y-140545000D02*
X122261000Y-140545000D01*
X119411000Y-135045000D02*
X116911000Y-135045000D01*
X116911000Y-135045000D02*
X116911000Y-137545000D01*
X213300000Y-135315000D02*
X215960000Y-135315000D01*
X213300000Y-127635000D02*
X213300000Y-135315000D01*
X215960000Y-127635000D02*
X215960000Y-135315000D01*
X213300000Y-127635000D02*
X215960000Y-127635000D01*
X213300000Y-126365000D02*
X213300000Y-125035000D01*
X213300000Y-125035000D02*
X214630000Y-125035000D01*
X218380000Y-135315000D02*
X221040000Y-135315000D01*
X218380000Y-127635000D02*
X218380000Y-135315000D01*
X221040000Y-127635000D02*
X221040000Y-135315000D01*
X218380000Y-127635000D02*
X221040000Y-127635000D01*
X218380000Y-126365000D02*
X218380000Y-125035000D01*
X218380000Y-125035000D02*
X219710000Y-125035000D01*
X224095000Y-135315000D02*
X226755000Y-135315000D01*
X224095000Y-127635000D02*
X224095000Y-135315000D01*
X226755000Y-127635000D02*
X226755000Y-135315000D01*
X224095000Y-127635000D02*
X226755000Y-127635000D01*
X224095000Y-126365000D02*
X224095000Y-125035000D01*
X224095000Y-125035000D02*
X225425000Y-125035000D01*
X67945000Y-54610000D02*
X57785000Y-54610000D01*
X67945000Y-55880000D02*
X67945000Y-48260000D01*
X67945000Y-48260000D02*
X57785000Y-48260000D01*
X57785000Y-48260000D02*
X57785000Y-55880000D01*
X57785000Y-55880000D02*
X67945000Y-55880000D01*
X141545000Y-94675000D02*
X146745000Y-94675000D01*
X141545000Y-89535000D02*
X141545000Y-94675000D01*
X146745000Y-86935000D02*
X146745000Y-94675000D01*
X141545000Y-89535000D02*
X144145000Y-89535000D01*
X144145000Y-89535000D02*
X144145000Y-86935000D01*
X144145000Y-86935000D02*
X146745000Y-86935000D01*
X141545000Y-88265000D02*
X141545000Y-86935000D01*
X141545000Y-86935000D02*
X142875000Y-86935000D01*
X112395000Y-54610000D02*
X102235000Y-54610000D01*
X112395000Y-55880000D02*
X112395000Y-48260000D01*
X112395000Y-48260000D02*
X102235000Y-48260000D01*
X102235000Y-48260000D02*
X102235000Y-55880000D01*
X102235000Y-55880000D02*
X112395000Y-55880000D01*
X174625000Y-136271000D02*
X184785000Y-136271000D01*
X174625000Y-135001000D02*
X174625000Y-142621000D01*
X174625000Y-142621000D02*
X184785000Y-142621000D01*
X184785000Y-142621000D02*
X184785000Y-135001000D01*
X184785000Y-135001000D02*
X174625000Y-135001000D01*
X54229000Y-95885000D02*
X54229000Y-106045000D01*
X55499000Y-95885000D02*
X47879000Y-95885000D01*
X47879000Y-95885000D02*
X47879000Y-106045000D01*
X47879000Y-106045000D02*
X55499000Y-106045000D01*
X55499000Y-106045000D02*
X55499000Y-95885000D01*
X123190000Y-54610000D02*
X113030000Y-54610000D01*
X123190000Y-55880000D02*
X123190000Y-48260000D01*
X123190000Y-48260000D02*
X113030000Y-48260000D01*
X113030000Y-48260000D02*
X113030000Y-55880000D01*
X113030000Y-55880000D02*
X123190000Y-55880000D01*
X185420000Y-136271000D02*
X195580000Y-136271000D01*
X185420000Y-135001000D02*
X185420000Y-142621000D01*
X185420000Y-142621000D02*
X195580000Y-142621000D01*
X195580000Y-142621000D02*
X195580000Y-135001000D01*
X195580000Y-135001000D02*
X185420000Y-135001000D01*
X54229000Y-83185000D02*
X54229000Y-93345000D01*
X55499000Y-83185000D02*
X47879000Y-83185000D01*
X47879000Y-83185000D02*
X47879000Y-93345000D01*
X47879000Y-93345000D02*
X55499000Y-93345000D01*
X55499000Y-93345000D02*
X55499000Y-83185000D01*
X133985000Y-54610000D02*
X123825000Y-54610000D01*
X133985000Y-55880000D02*
X133985000Y-48260000D01*
X133985000Y-48260000D02*
X123825000Y-48260000D01*
X123825000Y-48260000D02*
X123825000Y-55880000D01*
X123825000Y-55880000D02*
X133985000Y-55880000D01*
X144780000Y-54610000D02*
X134620000Y-54610000D01*
X144780000Y-55880000D02*
X144780000Y-48260000D01*
X144780000Y-48260000D02*
X134620000Y-48260000D01*
X134620000Y-48260000D02*
X134620000Y-55880000D01*
X134620000Y-55880000D02*
X144780000Y-55880000D01*
X54229000Y-70485000D02*
X54229000Y-80645000D01*
X55499000Y-70485000D02*
X47879000Y-70485000D01*
X47879000Y-70485000D02*
X47879000Y-80645000D01*
X47879000Y-80645000D02*
X55499000Y-80645000D01*
X55499000Y-80645000D02*
X55499000Y-70485000D01*
X156845000Y-54610000D02*
X146685000Y-54610000D01*
X156845000Y-55880000D02*
X156845000Y-48260000D01*
X156845000Y-48260000D02*
X146685000Y-48260000D01*
X146685000Y-48260000D02*
X146685000Y-55880000D01*
X146685000Y-55880000D02*
X156845000Y-55880000D01*
X54229000Y-59055000D02*
X54229000Y-69215000D01*
X55499000Y-59055000D02*
X47879000Y-59055000D01*
X47879000Y-59055000D02*
X47879000Y-69215000D01*
X47879000Y-69215000D02*
X55499000Y-69215000D01*
X55499000Y-69215000D02*
X55499000Y-59055000D01*
X167640000Y-54610000D02*
X157480000Y-54610000D01*
X167640000Y-55880000D02*
X167640000Y-48260000D01*
X167640000Y-48260000D02*
X157480000Y-48260000D01*
X157480000Y-48260000D02*
X157480000Y-55880000D01*
X157480000Y-55880000D02*
X167640000Y-55880000D01*
X178435000Y-54610000D02*
X168275000Y-54610000D01*
X178435000Y-55880000D02*
X178435000Y-48260000D01*
X178435000Y-48260000D02*
X168275000Y-48260000D01*
X168275000Y-48260000D02*
X168275000Y-55880000D01*
X168275000Y-55880000D02*
X178435000Y-55880000D01*
X189230000Y-54610000D02*
X179070000Y-54610000D01*
X189230000Y-55880000D02*
X189230000Y-48260000D01*
X189230000Y-48260000D02*
X179070000Y-48260000D01*
X179070000Y-48260000D02*
X179070000Y-55880000D01*
X179070000Y-55880000D02*
X189230000Y-55880000D01*
X201295000Y-54610000D02*
X191135000Y-54610000D01*
X201295000Y-55880000D02*
X201295000Y-48260000D01*
X201295000Y-48260000D02*
X191135000Y-48260000D01*
X191135000Y-48260000D02*
X191135000Y-55880000D01*
X191135000Y-55880000D02*
X201295000Y-55880000D01*
X212090000Y-54610000D02*
X201930000Y-54610000D01*
X212090000Y-55880000D02*
X212090000Y-48260000D01*
X212090000Y-48260000D02*
X201930000Y-48260000D01*
X201930000Y-48260000D02*
X201930000Y-55880000D01*
X201930000Y-55880000D02*
X212090000Y-55880000D01*
X222885000Y-54610000D02*
X212725000Y-54610000D01*
X222885000Y-55880000D02*
X222885000Y-48260000D01*
X222885000Y-48260000D02*
X212725000Y-48260000D01*
X212725000Y-48260000D02*
X212725000Y-55880000D01*
X212725000Y-55880000D02*
X222885000Y-55880000D01*
X86554000Y-101914000D02*
X89214000Y-101914000D01*
X86554000Y-101854000D02*
X86554000Y-101914000D01*
X89214000Y-101854000D02*
X89214000Y-101914000D01*
X86554000Y-101854000D02*
X89214000Y-101854000D01*
X86554000Y-100584000D02*
X86554000Y-99254000D01*
X86554000Y-99254000D02*
X87884000Y-99254000D01*
X182820000Y-88960000D02*
X185480000Y-88960000D01*
X182820000Y-73660000D02*
X182820000Y-88960000D01*
X185480000Y-73660000D02*
X185480000Y-88960000D01*
X182820000Y-73660000D02*
X185480000Y-73660000D01*
X182820000Y-72390000D02*
X182820000Y-71060000D01*
X182820000Y-71060000D02*
X184150000Y-71060000D01*
X48223000Y-131201000D02*
X54173000Y-131201000D01*
X54173000Y-131201000D02*
X54173000Y-108601000D01*
X54173000Y-108601000D02*
X48223000Y-108601000D01*
X48223000Y-108601000D02*
X48223000Y-131201000D01*
X48223000Y-127901000D02*
X48973000Y-127901000D01*
X48973000Y-127901000D02*
X48973000Y-111901000D01*
X48973000Y-111901000D02*
X48223000Y-111901000D01*
X48223000Y-111901000D02*
X48223000Y-127901000D01*
X48223000Y-131201000D02*
X48973000Y-131201000D01*
X48973000Y-131201000D02*
X48973000Y-129401000D01*
X48973000Y-129401000D02*
X48223000Y-129401000D01*
X48223000Y-129401000D02*
X48223000Y-131201000D01*
X48223000Y-110401000D02*
X48973000Y-110401000D01*
X48973000Y-110401000D02*
X48973000Y-108601000D01*
X48973000Y-108601000D02*
X48223000Y-108601000D01*
X48223000Y-108601000D02*
X48223000Y-110401000D01*
X50473000Y-131201000D02*
X50473000Y-130451000D01*
X50473000Y-130451000D02*
X53423000Y-130451000D01*
X53423000Y-130451000D02*
X53423000Y-119901000D01*
X50473000Y-108601000D02*
X50473000Y-109351000D01*
X50473000Y-109351000D02*
X53423000Y-109351000D01*
X53423000Y-109351000D02*
X53423000Y-119901000D01*
X47923000Y-129001000D02*
X47923000Y-131501000D01*
X47923000Y-131501000D02*
X50423000Y-131501000D01*
D15*
X77179474Y-54109126D02*
X77179474Y-54229126D01*
X77179474Y-53929126D02*
X77179474Y-54109126D01*
X77429474Y-53929126D02*
X77179474Y-53929126D01*
X84049474Y-53929126D02*
X84049474Y-54209126D01*
X77429474Y-53929126D02*
X84049474Y-53929126D01*
X83727725Y-62349217D02*
X77107725Y-62349217D01*
X83977725Y-62169217D02*
X83977725Y-62049217D01*
X83977725Y-62349217D02*
X83977725Y-62169217D01*
X83727725Y-62349217D02*
X83977725Y-62349217D01*
X77107725Y-62349217D02*
X77107725Y-62069217D01*
X83727725Y-62349217D02*
X83977725Y-62349217D01*
X83727725Y-62349217D02*
X77107725Y-62349217D01*
X83977725Y-62169217D02*
X83977725Y-62049217D01*
X83977725Y-62349217D02*
X83977725Y-62169217D01*
X77107725Y-62349217D02*
X77107725Y-62069217D01*
D14*
X182820000Y-64075000D02*
X182820000Y-66735000D01*
X203200000Y-64075000D02*
X182820000Y-64075000D01*
X203200000Y-66735000D02*
X182820000Y-66735000D01*
X203200000Y-64075000D02*
X203200000Y-66735000D01*
X204470000Y-64075000D02*
X205800000Y-64075000D01*
X205800000Y-64075000D02*
X205800000Y-65405000D01*
X177860000Y-119955000D02*
X175200000Y-119955000D01*
X177860000Y-127635000D02*
X177860000Y-119955000D01*
X175200000Y-127635000D02*
X175200000Y-119955000D01*
X177860000Y-127635000D02*
X175200000Y-127635000D01*
X177860000Y-128905000D02*
X177860000Y-130235000D01*
X177860000Y-130235000D02*
X176530000Y-130235000D01*
X184210000Y-119955000D02*
X181550000Y-119955000D01*
X184210000Y-127635000D02*
X184210000Y-119955000D01*
X181550000Y-127635000D02*
X181550000Y-119955000D01*
X184210000Y-127635000D02*
X181550000Y-127635000D01*
X184210000Y-128905000D02*
X184210000Y-130235000D01*
X184210000Y-130235000D02*
X182880000Y-130235000D01*
X189925000Y-119955000D02*
X187265000Y-119955000D01*
X189925000Y-127635000D02*
X189925000Y-119955000D01*
X187265000Y-127635000D02*
X187265000Y-119955000D01*
X189925000Y-127635000D02*
X187265000Y-127635000D01*
X189925000Y-128905000D02*
X189925000Y-130235000D01*
X189925000Y-130235000D02*
X188595000Y-130235000D01*
X195640000Y-119955000D02*
X192980000Y-119955000D01*
X195640000Y-127635000D02*
X195640000Y-119955000D01*
X192980000Y-127635000D02*
X192980000Y-119955000D01*
X195640000Y-127635000D02*
X192980000Y-127635000D01*
X195640000Y-128905000D02*
X195640000Y-130235000D01*
X195640000Y-130235000D02*
X194310000Y-130235000D01*
X171510000Y-119955000D02*
X168850000Y-119955000D01*
X171510000Y-127635000D02*
X171510000Y-119955000D01*
X168850000Y-127635000D02*
X168850000Y-119955000D01*
X171510000Y-127635000D02*
X168850000Y-127635000D01*
X171510000Y-128905000D02*
X171510000Y-130235000D01*
X171510000Y-130235000D02*
X170180000Y-130235000D01*
X65604474Y-59044126D02*
X65604474Y-59544126D01*
X66664474Y-59544126D02*
X66664474Y-59044126D01*
X67840000Y-59544126D02*
X67840000Y-59044126D01*
X66780000Y-59044126D02*
X66780000Y-59544126D01*
X132089000Y-71405000D02*
X132089000Y-70205000D01*
X133849000Y-70205000D02*
X133849000Y-71405000D01*
X140217000Y-71405000D02*
X140217000Y-70205000D01*
X141977000Y-70205000D02*
X141977000Y-71405000D01*
X147329000Y-71273000D02*
X147329000Y-70073000D01*
X149089000Y-70073000D02*
X149089000Y-71273000D01*
X117120000Y-72000000D02*
X115920000Y-72000000D01*
X115920000Y-70240000D02*
X117120000Y-70240000D01*
X68860000Y-82160000D02*
X67660000Y-82160000D01*
X67660000Y-80400000D02*
X68860000Y-80400000D01*
X68865000Y-86605000D02*
X67665000Y-86605000D01*
X67665000Y-84845000D02*
X68865000Y-84845000D01*
X68860000Y-91050000D02*
X67660000Y-91050000D01*
X67660000Y-89290000D02*
X68860000Y-89290000D01*
X66579000Y-132579000D02*
X65379000Y-132579000D01*
X65379000Y-130819000D02*
X66579000Y-130819000D01*
X87783000Y-132579000D02*
X86583000Y-132579000D01*
X86583000Y-130819000D02*
X87783000Y-130819000D01*
X95911000Y-132579000D02*
X94711000Y-132579000D01*
X94711000Y-130819000D02*
X95911000Y-130819000D01*
X118771000Y-132579000D02*
X117571000Y-132579000D01*
X117571000Y-130819000D02*
X118771000Y-130819000D01*
X107595000Y-132579000D02*
X106395000Y-132579000D01*
X106395000Y-130819000D02*
X107595000Y-130819000D01*
X195970000Y-94895000D02*
X195970000Y-93695000D01*
X197730000Y-93695000D02*
X197730000Y-94895000D01*
X192570654Y-94899362D02*
X192570654Y-93699362D01*
X194330654Y-93699362D02*
X194330654Y-94899362D01*
X96148000Y-106198000D02*
X96148000Y-104998000D01*
X97908000Y-104998000D02*
X97908000Y-106198000D01*
X73905000Y-103855000D02*
X73905000Y-105055000D01*
X72145000Y-105055000D02*
X72145000Y-103855000D01*
X70730000Y-103855000D02*
X70730000Y-105055000D01*
X68970000Y-105055000D02*
X68970000Y-103855000D01*
X79384000Y-109378000D02*
X79384000Y-108178000D01*
X81144000Y-108178000D02*
X81144000Y-109378000D01*
X78604000Y-108046000D02*
X78604000Y-109246000D01*
X76844000Y-109246000D02*
X76844000Y-108046000D01*
X148870000Y-115815000D02*
X147670000Y-115815000D01*
X147670000Y-114055000D02*
X148870000Y-114055000D01*
X55381000Y-113569000D02*
X55381000Y-112369000D01*
X57141000Y-112369000D02*
X57141000Y-113569000D01*
X57413000Y-113569000D02*
X57413000Y-112369000D01*
X59173000Y-112369000D02*
X59173000Y-113569000D01*
X70135000Y-128515000D02*
X68935000Y-128515000D01*
X68935000Y-126755000D02*
X70135000Y-126755000D01*
X181890000Y-115815000D02*
X180690000Y-115815000D01*
X180690000Y-114055000D02*
X181890000Y-114055000D01*
X55947000Y-126305000D02*
X55947000Y-128965000D01*
X61087000Y-126305000D02*
X55947000Y-126305000D01*
X61087000Y-128965000D02*
X55947000Y-128965000D01*
X61087000Y-126305000D02*
X61087000Y-128965000D01*
X62357000Y-126305000D02*
X63687000Y-126305000D01*
X63687000Y-126305000D02*
X63687000Y-127635000D01*
X193615000Y-111820000D02*
X196275000Y-111820000D01*
X193615000Y-106680000D02*
X193615000Y-111820000D01*
X196275000Y-106680000D02*
X196275000Y-111820000D01*
X193615000Y-106680000D02*
X196275000Y-106680000D01*
X193615000Y-105410000D02*
X193615000Y-104080000D01*
X193615000Y-104080000D02*
X194945000Y-104080000D01*
X220285000Y-114995000D02*
X222945000Y-114995000D01*
X220285000Y-102235000D02*
X220285000Y-114995000D01*
X222945000Y-102235000D02*
X222945000Y-114995000D01*
X220285000Y-102235000D02*
X222945000Y-102235000D01*
X220285000Y-100965000D02*
X220285000Y-99635000D01*
X220285000Y-99635000D02*
X221615000Y-99635000D01*
X226635000Y-114995000D02*
X229295000Y-114995000D01*
X226635000Y-102235000D02*
X226635000Y-114995000D01*
X229295000Y-102235000D02*
X229295000Y-114995000D01*
X226635000Y-102235000D02*
X229295000Y-102235000D01*
X226635000Y-100965000D02*
X226635000Y-99635000D01*
X226635000Y-99635000D02*
X227965000Y-99635000D01*
X86310000Y-83355000D02*
X86310000Y-83055000D01*
X86310000Y-83055000D02*
X83010000Y-83055000D01*
X83010000Y-83055000D02*
X83010000Y-83355000D01*
X86310000Y-85555000D02*
X86310000Y-85855000D01*
X86310000Y-85855000D02*
X83010000Y-85855000D01*
X83010000Y-85855000D02*
X83010000Y-85555000D01*
X128905000Y-136271000D02*
X139065000Y-136271000D01*
X128905000Y-135001000D02*
X128905000Y-142621000D01*
X128905000Y-142621000D02*
X139065000Y-142621000D01*
X139065000Y-142621000D02*
X139065000Y-135001000D01*
X139065000Y-135001000D02*
X128905000Y-135001000D01*
X139700000Y-136271000D02*
X149860000Y-136271000D01*
X139700000Y-135001000D02*
X139700000Y-142621000D01*
X139700000Y-142621000D02*
X149860000Y-142621000D01*
X149860000Y-142621000D02*
X149860000Y-135001000D01*
X149860000Y-135001000D02*
X139700000Y-135001000D01*
X150495000Y-136271000D02*
X160655000Y-136271000D01*
X150495000Y-135001000D02*
X150495000Y-142621000D01*
X150495000Y-142621000D02*
X160655000Y-142621000D01*
X160655000Y-142621000D02*
X160655000Y-135001000D01*
X160655000Y-135001000D02*
X150495000Y-135001000D01*
X161290000Y-136271000D02*
X171450000Y-136271000D01*
X161290000Y-135001000D02*
X161290000Y-142621000D01*
X161290000Y-142621000D02*
X171450000Y-142621000D01*
X171450000Y-142621000D02*
X171450000Y-135001000D01*
X171450000Y-135001000D02*
X161290000Y-135001000D01*
X73404474Y-56964126D02*
X71644474Y-56964126D01*
X71644474Y-60034126D02*
X74074474Y-60034126D01*
D15*
X83879000Y-124828000D02*
X84154000Y-124828000D01*
X83879000Y-119278000D02*
X84234000Y-119278000D01*
X94429000Y-119278000D02*
X94074000Y-119278000D01*
X94429000Y-124828000D02*
X94074000Y-124828000D01*
X83879000Y-124828000D02*
X83879000Y-119278000D01*
X94429000Y-124828000D02*
X94429000Y-119278000D01*
X84154000Y-124828000D02*
X84154000Y-126353000D01*
X112360000Y-114945000D02*
X112410000Y-114945000D01*
X112360000Y-110795000D02*
X112505000Y-110795000D01*
X117510000Y-110795000D02*
X117365000Y-110795000D01*
X117510000Y-114945000D02*
X117365000Y-114945000D01*
X112360000Y-114945000D02*
X112360000Y-110795000D01*
X117510000Y-114945000D02*
X117510000Y-110795000D01*
X112410000Y-114945000D02*
X112410000Y-116345000D01*
X122520000Y-114945000D02*
X122570000Y-114945000D01*
X122520000Y-110795000D02*
X122665000Y-110795000D01*
X127670000Y-110795000D02*
X127525000Y-110795000D01*
X127670000Y-114945000D02*
X127525000Y-114945000D01*
X122520000Y-114945000D02*
X122520000Y-110795000D01*
X127670000Y-114945000D02*
X127670000Y-110795000D01*
X122570000Y-114945000D02*
X122570000Y-116345000D01*
X185902124Y-94580000D02*
X185902124Y-94630000D01*
X190052124Y-94580000D02*
X190052124Y-94725000D01*
X190052124Y-99730000D02*
X190052124Y-99585000D01*
X185902124Y-99730000D02*
X185902124Y-99585000D01*
X185902124Y-94580000D02*
X190052124Y-94580000D01*
X185902124Y-99730000D02*
X190052124Y-99730000D01*
X185902124Y-94630000D02*
X184502124Y-94630000D01*
X132680000Y-114945000D02*
X132730000Y-114945000D01*
X132680000Y-110795000D02*
X132825000Y-110795000D01*
X137830000Y-110795000D02*
X137685000Y-110795000D01*
X137830000Y-114945000D02*
X137685000Y-114945000D01*
X132680000Y-114945000D02*
X132680000Y-110795000D01*
X137830000Y-114945000D02*
X137830000Y-110795000D01*
X132730000Y-114945000D02*
X132730000Y-116345000D01*
X102675000Y-114851000D02*
X102725000Y-114851000D01*
X102675000Y-110701000D02*
X102820000Y-110701000D01*
X107825000Y-110701000D02*
X107680000Y-110701000D01*
X107825000Y-114851000D02*
X107680000Y-114851000D01*
X102675000Y-114851000D02*
X102675000Y-110701000D01*
X107825000Y-114851000D02*
X107825000Y-110701000D01*
X102725000Y-114851000D02*
X102725000Y-116251000D01*
D14*
X150390000Y-117530000D02*
X146790000Y-117530000D01*
X150428478Y-117541522D02*
G75*
G02X148590000Y-121980000I-1838478J-1838478D01*
G01*
X146751522Y-117541522D02*
G75*
G03X148590000Y-121980000I1838478J-1838478D01*
G01*
D15*
X179285000Y-113245000D02*
X179285000Y-113220000D01*
X179285000Y-105195000D02*
X179285000Y-105220000D01*
X183935000Y-105195000D02*
X183935000Y-105220000D01*
X185010000Y-113295000D02*
X179285000Y-113295000D01*
X183935000Y-105195000D02*
X179285000Y-105195000D01*
X120920000Y-98822000D02*
X120920000Y-98097000D01*
X106570000Y-98822000D02*
X106570000Y-98022000D01*
X106570000Y-84472000D02*
X106570000Y-85272000D01*
X120920000Y-84472000D02*
X120920000Y-85272000D01*
X120920000Y-98822000D02*
X120120000Y-98822000D01*
X120920000Y-84472000D02*
X120120000Y-84472000D01*
X106570000Y-84472000D02*
X107370000Y-84472000D01*
X106570000Y-98822000D02*
X107370000Y-98822000D01*
X120920000Y-98097000D02*
X122195000Y-98097000D01*
D14*
X93074000Y-111102000D02*
X90874000Y-111102000D01*
X93074000Y-108902000D02*
X90074000Y-108902000D01*
D15*
X80340000Y-105740000D02*
X79940000Y-105740000D01*
X80340000Y-105740000D02*
X80340000Y-105340000D01*
X80340000Y-102540000D02*
X79940000Y-102540000D01*
X80340000Y-102540000D02*
X80340000Y-102940000D01*
X77140000Y-102540000D02*
X77540000Y-102540000D01*
X77140000Y-102540000D02*
X77140000Y-102940000D01*
X77140000Y-105740000D02*
X77140000Y-105340000D01*
D14*
X113180000Y-76850000D02*
X119430000Y-76850000D01*
X113180000Y-81900000D02*
X119430000Y-81900000D01*
X113180000Y-81900000D02*
G75*
G02X113180000Y-76850000I0J2525000D01*
G01*
X119430000Y-81900000D02*
G75*
G03X119430000Y-76850000I0J2525000D01*
G01*
X181080000Y-94975000D02*
X174180000Y-94975000D01*
X174180000Y-94975000D02*
X174180000Y-97435000D01*
X174180000Y-97435000D02*
X181080000Y-97435000D01*
X181080000Y-97435000D02*
X181080000Y-94975000D01*
X181080000Y-95855000D02*
X181980000Y-95255000D01*
X181980000Y-95255000D02*
X182180000Y-95255000D01*
X181080000Y-96555000D02*
X181980000Y-97155000D01*
X181980000Y-97155000D02*
X182180000Y-97155000D01*
D15*
X63837000Y-113741000D02*
X64912000Y-113741000D01*
X64912000Y-113741000D02*
X64912000Y-113516000D01*
X64912000Y-113516000D02*
X71262000Y-113516000D01*
X71262000Y-113516000D02*
X71262000Y-113841000D01*
X64912000Y-124441000D02*
X64912000Y-124766000D01*
X64912000Y-124766000D02*
X71262000Y-124766000D01*
X71262000Y-124766000D02*
X71262000Y-124441000D01*
D14*
X86310000Y-89070000D02*
X86310000Y-88770000D01*
X86310000Y-88770000D02*
X83010000Y-88770000D01*
X83010000Y-88770000D02*
X83010000Y-89070000D01*
X86310000Y-91270000D02*
X86310000Y-91570000D01*
X86310000Y-91570000D02*
X83010000Y-91570000D01*
X83010000Y-91570000D02*
X83010000Y-91270000D01*
X154520000Y-63000000D02*
X154520000Y-62000000D01*
X152820000Y-62000000D02*
X152820000Y-63000000D01*
X161505000Y-63000000D02*
X161505000Y-62000000D01*
X159805000Y-62000000D02*
X159805000Y-63000000D01*
X159805000Y-65905000D02*
X159805000Y-66905000D01*
X161505000Y-66905000D02*
X161505000Y-65905000D01*
X156410000Y-65425000D02*
X158210000Y-65425000D01*
X158210000Y-62205000D02*
X155760000Y-62205000D01*
X85716000Y-80106000D02*
X85716000Y-81306000D01*
X83956000Y-81306000D02*
X83956000Y-80106000D01*
X61296000Y-58772000D02*
X57576000Y-58772000D01*
X61296000Y-57052000D02*
X57576000Y-57052000D01*
D15*
X213765000Y-99039762D02*
X213907857Y-99087381D01*
X214145953Y-99087381D01*
X214241191Y-99039762D01*
X214288810Y-98992143D01*
X214336429Y-98896905D01*
X214336429Y-98801667D01*
X214288810Y-98706429D01*
X214241191Y-98658810D01*
X214145953Y-98611190D01*
X213955476Y-98563571D01*
X213860238Y-98515952D01*
X213812619Y-98468333D01*
X213765000Y-98373095D01*
X213765000Y-98277857D01*
X213812619Y-98182619D01*
X213860238Y-98135000D01*
X213955476Y-98087381D01*
X214193572Y-98087381D01*
X214336429Y-98135000D01*
X214765000Y-99087381D02*
X214765000Y-98087381D01*
X215145953Y-98087381D01*
X215241191Y-98135000D01*
X215288810Y-98182619D01*
X215336429Y-98277857D01*
X215336429Y-98420714D01*
X215288810Y-98515952D01*
X215241191Y-98563571D01*
X215145953Y-98611190D01*
X214765000Y-98611190D01*
X215765000Y-99087381D02*
X215765000Y-98087381D01*
X216765000Y-99087381D02*
X216193571Y-99087381D01*
X216479285Y-99087381D02*
X216479285Y-98087381D01*
X216384047Y-98230238D01*
X216288809Y-98325476D01*
X216193571Y-98373095D01*
X239220477Y-58717381D02*
X239220477Y-59431667D01*
X239172857Y-59574524D01*
X239077619Y-59669762D01*
X238934762Y-59717381D01*
X238839524Y-59717381D01*
X240220477Y-59717381D02*
X239649048Y-59717381D01*
X239934762Y-59717381D02*
X239934762Y-58717381D01*
X239839524Y-58860238D01*
X239744286Y-58955476D01*
X239649048Y-59003095D01*
X240791905Y-59145952D02*
X240696667Y-59098333D01*
X240649048Y-59050714D01*
X240601429Y-58955476D01*
X240601429Y-58907857D01*
X240649048Y-58812619D01*
X240696667Y-58765000D01*
X240791905Y-58717381D01*
X240982382Y-58717381D01*
X241077620Y-58765000D01*
X241125239Y-58812619D01*
X241172858Y-58907857D01*
X241172858Y-58955476D01*
X241125239Y-59050714D01*
X241077620Y-59098333D01*
X240982382Y-59145952D01*
X240791905Y-59145952D01*
X240696667Y-59193571D01*
X240649048Y-59241190D01*
X240601429Y-59336429D01*
X240601429Y-59526905D01*
X240649048Y-59622143D01*
X240696667Y-59669762D01*
X240791905Y-59717381D01*
X240982382Y-59717381D01*
X241077620Y-59669762D01*
X241125239Y-59622143D01*
X241172858Y-59526905D01*
X241172858Y-59336429D01*
X241125239Y-59241190D01*
X241077620Y-59193571D01*
X240982382Y-59145952D01*
X204930477Y-98087381D02*
X204930477Y-98801667D01*
X204882857Y-98944524D01*
X204787619Y-99039762D01*
X204644762Y-99087381D01*
X204549524Y-99087381D01*
X205359048Y-98182619D02*
X205406667Y-98135000D01*
X205501905Y-98087381D01*
X205740001Y-98087381D01*
X205835239Y-98135000D01*
X205882858Y-98182619D01*
X205930477Y-98277857D01*
X205930477Y-98373095D01*
X205882858Y-98515952D01*
X205311429Y-99087381D01*
X205930477Y-99087381D01*
X206835239Y-98087381D02*
X206359048Y-98087381D01*
X206311429Y-98563571D01*
X206359048Y-98515952D01*
X206454286Y-98468333D01*
X206692382Y-98468333D01*
X206787620Y-98515952D01*
X206835239Y-98563571D01*
X206882858Y-98658810D01*
X206882858Y-98896905D01*
X206835239Y-98992143D01*
X206787620Y-99039762D01*
X206692382Y-99087381D01*
X206454286Y-99087381D01*
X206359048Y-99039762D01*
X206311429Y-98992143D01*
X74988143Y-130501381D02*
X74654809Y-130025190D01*
X74416714Y-130501381D02*
X74416714Y-129501381D01*
X74797667Y-129501381D01*
X74892905Y-129549000D01*
X74940524Y-129596619D01*
X74988143Y-129691857D01*
X74988143Y-129834714D01*
X74940524Y-129929952D01*
X74892905Y-129977571D01*
X74797667Y-130025190D01*
X74416714Y-130025190D01*
X75940524Y-130501381D02*
X75369095Y-130501381D01*
X75654809Y-130501381D02*
X75654809Y-129501381D01*
X75559571Y-129644238D01*
X75464333Y-129739476D01*
X75369095Y-129787095D01*
X76892905Y-130501381D02*
X76321476Y-130501381D01*
X76607190Y-130501381D02*
X76607190Y-129501381D01*
X76511952Y-129644238D01*
X76416714Y-129739476D01*
X76321476Y-129787095D01*
X175823571Y-82625714D02*
X175871190Y-82482857D01*
X175918810Y-82435238D01*
X176014048Y-82387619D01*
X176156905Y-82387619D01*
X176252143Y-82435238D01*
X176299762Y-82482857D01*
X176347381Y-82578095D01*
X176347381Y-82959048D01*
X175347381Y-82959048D01*
X175347381Y-82625714D01*
X175395000Y-82530476D01*
X175442619Y-82482857D01*
X175537857Y-82435238D01*
X175633095Y-82435238D01*
X175728333Y-82482857D01*
X175775952Y-82530476D01*
X175823571Y-82625714D01*
X175823571Y-82959048D01*
X175347381Y-82101905D02*
X175347381Y-81530476D01*
X176347381Y-81816191D02*
X175347381Y-81816191D01*
X176347381Y-80673333D02*
X176347381Y-81244762D01*
X176347381Y-80959048D02*
X175347381Y-80959048D01*
X175490238Y-81054286D01*
X175585476Y-81149524D01*
X175633095Y-81244762D01*
X72087808Y-51157143D02*
X72040189Y-51204762D01*
X71897332Y-51252381D01*
X71802094Y-51252381D01*
X71659236Y-51204762D01*
X71563998Y-51109524D01*
X71516379Y-51014286D01*
X71468760Y-50823810D01*
X71468760Y-50680952D01*
X71516379Y-50490476D01*
X71563998Y-50395238D01*
X71659236Y-50300000D01*
X71802094Y-50252381D01*
X71897332Y-50252381D01*
X72040189Y-50300000D01*
X72087808Y-50347619D01*
X72421141Y-50252381D02*
X73040189Y-50252381D01*
X72706855Y-50633333D01*
X72849713Y-50633333D01*
X72944951Y-50680952D01*
X72992570Y-50728571D01*
X73040189Y-50823810D01*
X73040189Y-51061905D01*
X72992570Y-51157143D01*
X72944951Y-51204762D01*
X72849713Y-51252381D01*
X72563998Y-51252381D01*
X72468760Y-51204762D01*
X72421141Y-51157143D01*
X75525334Y-55729143D02*
X75477715Y-55776762D01*
X75334858Y-55824381D01*
X75239620Y-55824381D01*
X75096762Y-55776762D01*
X75001524Y-55681524D01*
X74953905Y-55586286D01*
X74906286Y-55395810D01*
X74906286Y-55252952D01*
X74953905Y-55062476D01*
X75001524Y-54967238D01*
X75096762Y-54872000D01*
X75239620Y-54824381D01*
X75334858Y-54824381D01*
X75477715Y-54872000D01*
X75525334Y-54919619D01*
X76382477Y-55157714D02*
X76382477Y-55824381D01*
X76144381Y-54776762D02*
X75906286Y-55491048D01*
X76525334Y-55491048D01*
X69662808Y-63241269D02*
X69615189Y-63288888D01*
X69472332Y-63336507D01*
X69377094Y-63336507D01*
X69234236Y-63288888D01*
X69138998Y-63193650D01*
X69091379Y-63098412D01*
X69043760Y-62907936D01*
X69043760Y-62765078D01*
X69091379Y-62574602D01*
X69138998Y-62479364D01*
X69234236Y-62384126D01*
X69377094Y-62336507D01*
X69472332Y-62336507D01*
X69615189Y-62384126D01*
X69662808Y-62431745D01*
X70567570Y-62336507D02*
X70091379Y-62336507D01*
X70043760Y-62812697D01*
X70091379Y-62765078D01*
X70186617Y-62717459D01*
X70424713Y-62717459D01*
X70519951Y-62765078D01*
X70567570Y-62812697D01*
X70615189Y-62907936D01*
X70615189Y-63146031D01*
X70567570Y-63241269D01*
X70519951Y-63288888D01*
X70424713Y-63336507D01*
X70186617Y-63336507D01*
X70091379Y-63288888D01*
X70043760Y-63241269D01*
X81437808Y-66666269D02*
X81390189Y-66713888D01*
X81247332Y-66761507D01*
X81152094Y-66761507D01*
X81009236Y-66713888D01*
X80913998Y-66618650D01*
X80866379Y-66523412D01*
X80818760Y-66332936D01*
X80818760Y-66190078D01*
X80866379Y-65999602D01*
X80913998Y-65904364D01*
X81009236Y-65809126D01*
X81152094Y-65761507D01*
X81247332Y-65761507D01*
X81390189Y-65809126D01*
X81437808Y-65856745D01*
X82294951Y-65761507D02*
X82104474Y-65761507D01*
X82009236Y-65809126D01*
X81961617Y-65856745D01*
X81866379Y-65999602D01*
X81818760Y-66190078D01*
X81818760Y-66571031D01*
X81866379Y-66666269D01*
X81913998Y-66713888D01*
X82009236Y-66761507D01*
X82199713Y-66761507D01*
X82294951Y-66713888D01*
X82342570Y-66666269D01*
X82390189Y-66571031D01*
X82390189Y-66332936D01*
X82342570Y-66237697D01*
X82294951Y-66190078D01*
X82199713Y-66142459D01*
X82009236Y-66142459D01*
X81913998Y-66190078D01*
X81866379Y-66237697D01*
X81818760Y-66332936D01*
X121769143Y-74826666D02*
X121816762Y-74874285D01*
X121864381Y-75017142D01*
X121864381Y-75112380D01*
X121816762Y-75255238D01*
X121721524Y-75350476D01*
X121626286Y-75398095D01*
X121435810Y-75445714D01*
X121292952Y-75445714D01*
X121102476Y-75398095D01*
X121007238Y-75350476D01*
X120912000Y-75255238D01*
X120864381Y-75112380D01*
X120864381Y-75017142D01*
X120912000Y-74874285D01*
X120959619Y-74826666D01*
X120864381Y-74493333D02*
X120864381Y-73826666D01*
X121864381Y-74255238D01*
X112522143Y-74731666D02*
X112569762Y-74779285D01*
X112617381Y-74922142D01*
X112617381Y-75017380D01*
X112569762Y-75160238D01*
X112474524Y-75255476D01*
X112379286Y-75303095D01*
X112188810Y-75350714D01*
X112045952Y-75350714D01*
X111855476Y-75303095D01*
X111760238Y-75255476D01*
X111665000Y-75160238D01*
X111617381Y-75017380D01*
X111617381Y-74922142D01*
X111665000Y-74779285D01*
X111712619Y-74731666D01*
X112045952Y-74160238D02*
X111998333Y-74255476D01*
X111950714Y-74303095D01*
X111855476Y-74350714D01*
X111807857Y-74350714D01*
X111712619Y-74303095D01*
X111665000Y-74255476D01*
X111617381Y-74160238D01*
X111617381Y-73969761D01*
X111665000Y-73874523D01*
X111712619Y-73826904D01*
X111807857Y-73779285D01*
X111855476Y-73779285D01*
X111950714Y-73826904D01*
X111998333Y-73874523D01*
X112045952Y-73969761D01*
X112045952Y-74160238D01*
X112093571Y-74255476D01*
X112141190Y-74303095D01*
X112236429Y-74350714D01*
X112426905Y-74350714D01*
X112522143Y-74303095D01*
X112569762Y-74255476D01*
X112617381Y-74160238D01*
X112617381Y-73969761D01*
X112569762Y-73874523D01*
X112522143Y-73826904D01*
X112426905Y-73779285D01*
X112236429Y-73779285D01*
X112141190Y-73826904D01*
X112093571Y-73874523D01*
X112045952Y-73969761D01*
X124309143Y-103798666D02*
X124356762Y-103846285D01*
X124404381Y-103989142D01*
X124404381Y-104084380D01*
X124356762Y-104227238D01*
X124261524Y-104322476D01*
X124166286Y-104370095D01*
X123975810Y-104417714D01*
X123832952Y-104417714D01*
X123642476Y-104370095D01*
X123547238Y-104322476D01*
X123452000Y-104227238D01*
X123404381Y-104084380D01*
X123404381Y-103989142D01*
X123452000Y-103846285D01*
X123499619Y-103798666D01*
X124404381Y-103322476D02*
X124404381Y-103132000D01*
X124356762Y-103036761D01*
X124309143Y-102989142D01*
X124166286Y-102893904D01*
X123975810Y-102846285D01*
X123594857Y-102846285D01*
X123499619Y-102893904D01*
X123452000Y-102941523D01*
X123404381Y-103036761D01*
X123404381Y-103227238D01*
X123452000Y-103322476D01*
X123499619Y-103370095D01*
X123594857Y-103417714D01*
X123832952Y-103417714D01*
X123928190Y-103370095D01*
X123975810Y-103322476D01*
X124023429Y-103227238D01*
X124023429Y-103036761D01*
X123975810Y-102941523D01*
X123928190Y-102893904D01*
X123832952Y-102846285D01*
X126341143Y-83446857D02*
X126388762Y-83494476D01*
X126436381Y-83637333D01*
X126436381Y-83732571D01*
X126388762Y-83875429D01*
X126293524Y-83970667D01*
X126198286Y-84018286D01*
X126007810Y-84065905D01*
X125864952Y-84065905D01*
X125674476Y-84018286D01*
X125579238Y-83970667D01*
X125484000Y-83875429D01*
X125436381Y-83732571D01*
X125436381Y-83637333D01*
X125484000Y-83494476D01*
X125531619Y-83446857D01*
X126436381Y-82494476D02*
X126436381Y-83065905D01*
X126436381Y-82780191D02*
X125436381Y-82780191D01*
X125579238Y-82875429D01*
X125674476Y-82970667D01*
X125722095Y-83065905D01*
X125436381Y-81875429D02*
X125436381Y-81780190D01*
X125484000Y-81684952D01*
X125531619Y-81637333D01*
X125626857Y-81589714D01*
X125817333Y-81542095D01*
X126055429Y-81542095D01*
X126245905Y-81589714D01*
X126341143Y-81637333D01*
X126388762Y-81684952D01*
X126436381Y-81780190D01*
X126436381Y-81875429D01*
X126388762Y-81970667D01*
X126341143Y-82018286D01*
X126245905Y-82065905D01*
X126055429Y-82113524D01*
X125817333Y-82113524D01*
X125626857Y-82065905D01*
X125531619Y-82018286D01*
X125484000Y-81970667D01*
X125436381Y-81875429D01*
X101862143Y-92662143D02*
X101814524Y-92709762D01*
X101671667Y-92757381D01*
X101576429Y-92757381D01*
X101433571Y-92709762D01*
X101338333Y-92614524D01*
X101290714Y-92519286D01*
X101243095Y-92328810D01*
X101243095Y-92185952D01*
X101290714Y-91995476D01*
X101338333Y-91900238D01*
X101433571Y-91805000D01*
X101576429Y-91757381D01*
X101671667Y-91757381D01*
X101814524Y-91805000D01*
X101862143Y-91852619D01*
X102814524Y-92757381D02*
X102243095Y-92757381D01*
X102528809Y-92757381D02*
X102528809Y-91757381D01*
X102433571Y-91900238D01*
X102338333Y-91995476D01*
X102243095Y-92043095D01*
X103766905Y-92757381D02*
X103195476Y-92757381D01*
X103481190Y-92757381D02*
X103481190Y-91757381D01*
X103385952Y-91900238D01*
X103290714Y-91995476D01*
X103195476Y-92043095D01*
X111712143Y-105290857D02*
X111759762Y-105338476D01*
X111807381Y-105481333D01*
X111807381Y-105576571D01*
X111759762Y-105719429D01*
X111664524Y-105814667D01*
X111569286Y-105862286D01*
X111378810Y-105909905D01*
X111235952Y-105909905D01*
X111045476Y-105862286D01*
X110950238Y-105814667D01*
X110855000Y-105719429D01*
X110807381Y-105576571D01*
X110807381Y-105481333D01*
X110855000Y-105338476D01*
X110902619Y-105290857D01*
X111807381Y-104338476D02*
X111807381Y-104909905D01*
X111807381Y-104624191D02*
X110807381Y-104624191D01*
X110950238Y-104719429D01*
X111045476Y-104814667D01*
X111093095Y-104909905D01*
X110902619Y-103957524D02*
X110855000Y-103909905D01*
X110807381Y-103814667D01*
X110807381Y-103576571D01*
X110855000Y-103481333D01*
X110902619Y-103433714D01*
X110997857Y-103386095D01*
X111093095Y-103386095D01*
X111235952Y-103433714D01*
X111807381Y-104005143D01*
X111807381Y-103386095D01*
X124182143Y-92202143D02*
X124134524Y-92249762D01*
X123991667Y-92297381D01*
X123896429Y-92297381D01*
X123753571Y-92249762D01*
X123658333Y-92154524D01*
X123610714Y-92059286D01*
X123563095Y-91868810D01*
X123563095Y-91725952D01*
X123610714Y-91535476D01*
X123658333Y-91440238D01*
X123753571Y-91345000D01*
X123896429Y-91297381D01*
X123991667Y-91297381D01*
X124134524Y-91345000D01*
X124182143Y-91392619D01*
X125134524Y-92297381D02*
X124563095Y-92297381D01*
X124848809Y-92297381D02*
X124848809Y-91297381D01*
X124753571Y-91440238D01*
X124658333Y-91535476D01*
X124563095Y-91583095D01*
X125467857Y-91297381D02*
X126086905Y-91297381D01*
X125753571Y-91678333D01*
X125896429Y-91678333D01*
X125991667Y-91725952D01*
X126039286Y-91773571D01*
X126086905Y-91868810D01*
X126086905Y-92106905D01*
X126039286Y-92202143D01*
X125991667Y-92249762D01*
X125896429Y-92297381D01*
X125610714Y-92297381D01*
X125515476Y-92249762D01*
X125467857Y-92202143D01*
X89765143Y-106322857D02*
X89812762Y-106370476D01*
X89860381Y-106513333D01*
X89860381Y-106608571D01*
X89812762Y-106751429D01*
X89717524Y-106846667D01*
X89622286Y-106894286D01*
X89431810Y-106941905D01*
X89288952Y-106941905D01*
X89098476Y-106894286D01*
X89003238Y-106846667D01*
X88908000Y-106751429D01*
X88860381Y-106608571D01*
X88860381Y-106513333D01*
X88908000Y-106370476D01*
X88955619Y-106322857D01*
X89860381Y-105370476D02*
X89860381Y-105941905D01*
X89860381Y-105656191D02*
X88860381Y-105656191D01*
X89003238Y-105751429D01*
X89098476Y-105846667D01*
X89146095Y-105941905D01*
X89193714Y-104513333D02*
X89860381Y-104513333D01*
X88812762Y-104751429D02*
X89527048Y-104989524D01*
X89527048Y-104370476D01*
X94845143Y-102750857D02*
X94892762Y-102798476D01*
X94940381Y-102941333D01*
X94940381Y-103036571D01*
X94892762Y-103179429D01*
X94797524Y-103274667D01*
X94702286Y-103322286D01*
X94511810Y-103369905D01*
X94368952Y-103369905D01*
X94178476Y-103322286D01*
X94083238Y-103274667D01*
X93988000Y-103179429D01*
X93940381Y-103036571D01*
X93940381Y-102941333D01*
X93988000Y-102798476D01*
X94035619Y-102750857D01*
X94940381Y-101798476D02*
X94940381Y-102369905D01*
X94940381Y-102084191D02*
X93940381Y-102084191D01*
X94083238Y-102179429D01*
X94178476Y-102274667D01*
X94226095Y-102369905D01*
X93940381Y-100893714D02*
X93940381Y-101369905D01*
X94416571Y-101417524D01*
X94368952Y-101369905D01*
X94321333Y-101274667D01*
X94321333Y-101036571D01*
X94368952Y-100941333D01*
X94416571Y-100893714D01*
X94511810Y-100846095D01*
X94749905Y-100846095D01*
X94845143Y-100893714D01*
X94892762Y-100941333D01*
X94940381Y-101036571D01*
X94940381Y-101274667D01*
X94892762Y-101369905D01*
X94845143Y-101417524D01*
X109577143Y-119514857D02*
X109624762Y-119562476D01*
X109672381Y-119705333D01*
X109672381Y-119800571D01*
X109624762Y-119943429D01*
X109529524Y-120038667D01*
X109434286Y-120086286D01*
X109243810Y-120133905D01*
X109100952Y-120133905D01*
X108910476Y-120086286D01*
X108815238Y-120038667D01*
X108720000Y-119943429D01*
X108672381Y-119800571D01*
X108672381Y-119705333D01*
X108720000Y-119562476D01*
X108767619Y-119514857D01*
X109672381Y-118562476D02*
X109672381Y-119133905D01*
X109672381Y-118848191D02*
X108672381Y-118848191D01*
X108815238Y-118943429D01*
X108910476Y-119038667D01*
X108958095Y-119133905D01*
X108672381Y-117705333D02*
X108672381Y-117895810D01*
X108720000Y-117991048D01*
X108767619Y-118038667D01*
X108910476Y-118133905D01*
X109100952Y-118181524D01*
X109481905Y-118181524D01*
X109577143Y-118133905D01*
X109624762Y-118086286D01*
X109672381Y-117991048D01*
X109672381Y-117800571D01*
X109624762Y-117705333D01*
X109577143Y-117657714D01*
X109481905Y-117610095D01*
X109243810Y-117610095D01*
X109148571Y-117657714D01*
X109100952Y-117705333D01*
X109053333Y-117800571D01*
X109053333Y-117991048D01*
X109100952Y-118086286D01*
X109148571Y-118133905D01*
X109243810Y-118181524D01*
X119737143Y-119514857D02*
X119784762Y-119562476D01*
X119832381Y-119705333D01*
X119832381Y-119800571D01*
X119784762Y-119943429D01*
X119689524Y-120038667D01*
X119594286Y-120086286D01*
X119403810Y-120133905D01*
X119260952Y-120133905D01*
X119070476Y-120086286D01*
X118975238Y-120038667D01*
X118880000Y-119943429D01*
X118832381Y-119800571D01*
X118832381Y-119705333D01*
X118880000Y-119562476D01*
X118927619Y-119514857D01*
X119832381Y-118562476D02*
X119832381Y-119133905D01*
X119832381Y-118848191D02*
X118832381Y-118848191D01*
X118975238Y-118943429D01*
X119070476Y-119038667D01*
X119118095Y-119133905D01*
X118832381Y-118229143D02*
X118832381Y-117562476D01*
X119832381Y-117991048D01*
X83161143Y-106553143D02*
X83113524Y-106600762D01*
X82970667Y-106648381D01*
X82875429Y-106648381D01*
X82732571Y-106600762D01*
X82637333Y-106505524D01*
X82589714Y-106410286D01*
X82542095Y-106219810D01*
X82542095Y-106076952D01*
X82589714Y-105886476D01*
X82637333Y-105791238D01*
X82732571Y-105696000D01*
X82875429Y-105648381D01*
X82970667Y-105648381D01*
X83113524Y-105696000D01*
X83161143Y-105743619D01*
X84113524Y-106648381D02*
X83542095Y-106648381D01*
X83827809Y-106648381D02*
X83827809Y-105648381D01*
X83732571Y-105791238D01*
X83637333Y-105886476D01*
X83542095Y-105934095D01*
X84684952Y-106076952D02*
X84589714Y-106029333D01*
X84542095Y-105981714D01*
X84494476Y-105886476D01*
X84494476Y-105838857D01*
X84542095Y-105743619D01*
X84589714Y-105696000D01*
X84684952Y-105648381D01*
X84875429Y-105648381D01*
X84970667Y-105696000D01*
X85018286Y-105743619D01*
X85065905Y-105838857D01*
X85065905Y-105886476D01*
X85018286Y-105981714D01*
X84970667Y-106029333D01*
X84875429Y-106076952D01*
X84684952Y-106076952D01*
X84589714Y-106124571D01*
X84542095Y-106172190D01*
X84494476Y-106267429D01*
X84494476Y-106457905D01*
X84542095Y-106553143D01*
X84589714Y-106600762D01*
X84684952Y-106648381D01*
X84875429Y-106648381D01*
X84970667Y-106600762D01*
X85018286Y-106553143D01*
X85065905Y-106457905D01*
X85065905Y-106267429D01*
X85018286Y-106172190D01*
X84970667Y-106124571D01*
X84875429Y-106076952D01*
X129897143Y-119514857D02*
X129944762Y-119562476D01*
X129992381Y-119705333D01*
X129992381Y-119800571D01*
X129944762Y-119943429D01*
X129849524Y-120038667D01*
X129754286Y-120086286D01*
X129563810Y-120133905D01*
X129420952Y-120133905D01*
X129230476Y-120086286D01*
X129135238Y-120038667D01*
X129040000Y-119943429D01*
X128992381Y-119800571D01*
X128992381Y-119705333D01*
X129040000Y-119562476D01*
X129087619Y-119514857D01*
X129992381Y-118562476D02*
X129992381Y-119133905D01*
X129992381Y-118848191D02*
X128992381Y-118848191D01*
X129135238Y-118943429D01*
X129230476Y-119038667D01*
X129278095Y-119133905D01*
X129992381Y-118086286D02*
X129992381Y-117895810D01*
X129944762Y-117800571D01*
X129897143Y-117752952D01*
X129754286Y-117657714D01*
X129563810Y-117610095D01*
X129182857Y-117610095D01*
X129087619Y-117657714D01*
X129040000Y-117705333D01*
X128992381Y-117800571D01*
X128992381Y-117991048D01*
X129040000Y-118086286D01*
X129087619Y-118133905D01*
X129182857Y-118181524D01*
X129420952Y-118181524D01*
X129516190Y-118133905D01*
X129563810Y-118086286D01*
X129611429Y-117991048D01*
X129611429Y-117800571D01*
X129563810Y-117705333D01*
X129516190Y-117657714D01*
X129420952Y-117610095D01*
X140565143Y-119514857D02*
X140612762Y-119562476D01*
X140660381Y-119705333D01*
X140660381Y-119800571D01*
X140612762Y-119943429D01*
X140517524Y-120038667D01*
X140422286Y-120086286D01*
X140231810Y-120133905D01*
X140088952Y-120133905D01*
X139898476Y-120086286D01*
X139803238Y-120038667D01*
X139708000Y-119943429D01*
X139660381Y-119800571D01*
X139660381Y-119705333D01*
X139708000Y-119562476D01*
X139755619Y-119514857D01*
X139755619Y-119133905D02*
X139708000Y-119086286D01*
X139660381Y-118991048D01*
X139660381Y-118752952D01*
X139708000Y-118657714D01*
X139755619Y-118610095D01*
X139850857Y-118562476D01*
X139946095Y-118562476D01*
X140088952Y-118610095D01*
X140660381Y-119181524D01*
X140660381Y-118562476D01*
X139660381Y-117943429D02*
X139660381Y-117848190D01*
X139708000Y-117752952D01*
X139755619Y-117705333D01*
X139850857Y-117657714D01*
X140041333Y-117610095D01*
X140279429Y-117610095D01*
X140469905Y-117657714D01*
X140565143Y-117705333D01*
X140612762Y-117752952D01*
X140660381Y-117848190D01*
X140660381Y-117943429D01*
X140612762Y-118038667D01*
X140565143Y-118086286D01*
X140469905Y-118133905D01*
X140279429Y-118181524D01*
X140041333Y-118181524D01*
X139850857Y-118133905D01*
X139755619Y-118086286D01*
X139708000Y-118038667D01*
X139660381Y-117943429D01*
X83161143Y-98425143D02*
X83113524Y-98472762D01*
X82970667Y-98520381D01*
X82875429Y-98520381D01*
X82732571Y-98472762D01*
X82637333Y-98377524D01*
X82589714Y-98282286D01*
X82542095Y-98091810D01*
X82542095Y-97948952D01*
X82589714Y-97758476D01*
X82637333Y-97663238D01*
X82732571Y-97568000D01*
X82875429Y-97520381D01*
X82970667Y-97520381D01*
X83113524Y-97568000D01*
X83161143Y-97615619D01*
X83542095Y-97615619D02*
X83589714Y-97568000D01*
X83684952Y-97520381D01*
X83923048Y-97520381D01*
X84018286Y-97568000D01*
X84065905Y-97615619D01*
X84113524Y-97710857D01*
X84113524Y-97806095D01*
X84065905Y-97948952D01*
X83494476Y-98520381D01*
X84113524Y-98520381D01*
X85065905Y-98520381D02*
X84494476Y-98520381D01*
X84780190Y-98520381D02*
X84780190Y-97520381D01*
X84684952Y-97663238D01*
X84589714Y-97758476D01*
X84494476Y-97806095D01*
X84193143Y-103989143D02*
X84145524Y-104036762D01*
X84002667Y-104084381D01*
X83907429Y-104084381D01*
X83764571Y-104036762D01*
X83669333Y-103941524D01*
X83621714Y-103846286D01*
X83574095Y-103655810D01*
X83574095Y-103512952D01*
X83621714Y-103322476D01*
X83669333Y-103227238D01*
X83764571Y-103132000D01*
X83907429Y-103084381D01*
X84002667Y-103084381D01*
X84145524Y-103132000D01*
X84193143Y-103179619D01*
X84574095Y-103179619D02*
X84621714Y-103132000D01*
X84716952Y-103084381D01*
X84955048Y-103084381D01*
X85050286Y-103132000D01*
X85097905Y-103179619D01*
X85145524Y-103274857D01*
X85145524Y-103370095D01*
X85097905Y-103512952D01*
X84526476Y-104084381D01*
X85145524Y-104084381D01*
X85526476Y-103179619D02*
X85574095Y-103132000D01*
X85669333Y-103084381D01*
X85907429Y-103084381D01*
X86002667Y-103132000D01*
X86050286Y-103179619D01*
X86097905Y-103274857D01*
X86097905Y-103370095D01*
X86050286Y-103512952D01*
X85478857Y-104084381D01*
X86097905Y-104084381D01*
X56253143Y-125325143D02*
X56205524Y-125372762D01*
X56062667Y-125420381D01*
X55967429Y-125420381D01*
X55824571Y-125372762D01*
X55729333Y-125277524D01*
X55681714Y-125182286D01*
X55634095Y-124991810D01*
X55634095Y-124848952D01*
X55681714Y-124658476D01*
X55729333Y-124563238D01*
X55824571Y-124468000D01*
X55967429Y-124420381D01*
X56062667Y-124420381D01*
X56205524Y-124468000D01*
X56253143Y-124515619D01*
X56634095Y-124515619D02*
X56681714Y-124468000D01*
X56776952Y-124420381D01*
X57015048Y-124420381D01*
X57110286Y-124468000D01*
X57157905Y-124515619D01*
X57205524Y-124610857D01*
X57205524Y-124706095D01*
X57157905Y-124848952D01*
X56586476Y-125420381D01*
X57205524Y-125420381D01*
X57538857Y-124420381D02*
X58157905Y-124420381D01*
X57824571Y-124801333D01*
X57967429Y-124801333D01*
X58062667Y-124848952D01*
X58110286Y-124896571D01*
X58157905Y-124991810D01*
X58157905Y-125229905D01*
X58110286Y-125325143D01*
X58062667Y-125372762D01*
X57967429Y-125420381D01*
X57681714Y-125420381D01*
X57586476Y-125372762D01*
X57538857Y-125325143D01*
X60809143Y-109862857D02*
X60856762Y-109910476D01*
X60904381Y-110053333D01*
X60904381Y-110148571D01*
X60856762Y-110291429D01*
X60761524Y-110386667D01*
X60666286Y-110434286D01*
X60475810Y-110481905D01*
X60332952Y-110481905D01*
X60142476Y-110434286D01*
X60047238Y-110386667D01*
X59952000Y-110291429D01*
X59904381Y-110148571D01*
X59904381Y-110053333D01*
X59952000Y-109910476D01*
X59999619Y-109862857D01*
X59999619Y-109481905D02*
X59952000Y-109434286D01*
X59904381Y-109339048D01*
X59904381Y-109100952D01*
X59952000Y-109005714D01*
X59999619Y-108958095D01*
X60094857Y-108910476D01*
X60190095Y-108910476D01*
X60332952Y-108958095D01*
X60904381Y-109529524D01*
X60904381Y-108910476D01*
X60237714Y-108053333D02*
X60904381Y-108053333D01*
X59856762Y-108291429D02*
X60571048Y-108529524D01*
X60571048Y-107910476D01*
X56761143Y-123293143D02*
X56713524Y-123340762D01*
X56570667Y-123388381D01*
X56475429Y-123388381D01*
X56332571Y-123340762D01*
X56237333Y-123245524D01*
X56189714Y-123150286D01*
X56142095Y-122959810D01*
X56142095Y-122816952D01*
X56189714Y-122626476D01*
X56237333Y-122531238D01*
X56332571Y-122436000D01*
X56475429Y-122388381D01*
X56570667Y-122388381D01*
X56713524Y-122436000D01*
X56761143Y-122483619D01*
X57142095Y-122483619D02*
X57189714Y-122436000D01*
X57284952Y-122388381D01*
X57523048Y-122388381D01*
X57618286Y-122436000D01*
X57665905Y-122483619D01*
X57713524Y-122578857D01*
X57713524Y-122674095D01*
X57665905Y-122816952D01*
X57094476Y-123388381D01*
X57713524Y-123388381D01*
X58618286Y-122388381D02*
X58142095Y-122388381D01*
X58094476Y-122864571D01*
X58142095Y-122816952D01*
X58237333Y-122769333D01*
X58475429Y-122769333D01*
X58570667Y-122816952D01*
X58618286Y-122864571D01*
X58665905Y-122959810D01*
X58665905Y-123197905D01*
X58618286Y-123293143D01*
X58570667Y-123340762D01*
X58475429Y-123388381D01*
X58237333Y-123388381D01*
X58142095Y-123340762D01*
X58094476Y-123293143D01*
X63873143Y-110085143D02*
X63825524Y-110132762D01*
X63682667Y-110180381D01*
X63587429Y-110180381D01*
X63444571Y-110132762D01*
X63349333Y-110037524D01*
X63301714Y-109942286D01*
X63254095Y-109751810D01*
X63254095Y-109608952D01*
X63301714Y-109418476D01*
X63349333Y-109323238D01*
X63444571Y-109228000D01*
X63587429Y-109180381D01*
X63682667Y-109180381D01*
X63825524Y-109228000D01*
X63873143Y-109275619D01*
X64254095Y-109275619D02*
X64301714Y-109228000D01*
X64396952Y-109180381D01*
X64635048Y-109180381D01*
X64730286Y-109228000D01*
X64777905Y-109275619D01*
X64825524Y-109370857D01*
X64825524Y-109466095D01*
X64777905Y-109608952D01*
X64206476Y-110180381D01*
X64825524Y-110180381D01*
X65682667Y-109180381D02*
X65492190Y-109180381D01*
X65396952Y-109228000D01*
X65349333Y-109275619D01*
X65254095Y-109418476D01*
X65206476Y-109608952D01*
X65206476Y-109989905D01*
X65254095Y-110085143D01*
X65301714Y-110132762D01*
X65396952Y-110180381D01*
X65587429Y-110180381D01*
X65682667Y-110132762D01*
X65730286Y-110085143D01*
X65777905Y-109989905D01*
X65777905Y-109751810D01*
X65730286Y-109656571D01*
X65682667Y-109608952D01*
X65587429Y-109561333D01*
X65396952Y-109561333D01*
X65301714Y-109608952D01*
X65254095Y-109656571D01*
X65206476Y-109751810D01*
X60714143Y-118213143D02*
X60666524Y-118260762D01*
X60523667Y-118308381D01*
X60428429Y-118308381D01*
X60285571Y-118260762D01*
X60190333Y-118165524D01*
X60142714Y-118070286D01*
X60095095Y-117879810D01*
X60095095Y-117736952D01*
X60142714Y-117546476D01*
X60190333Y-117451238D01*
X60285571Y-117356000D01*
X60428429Y-117308381D01*
X60523667Y-117308381D01*
X60666524Y-117356000D01*
X60714143Y-117403619D01*
X61095095Y-117403619D02*
X61142714Y-117356000D01*
X61237952Y-117308381D01*
X61476048Y-117308381D01*
X61571286Y-117356000D01*
X61618905Y-117403619D01*
X61666524Y-117498857D01*
X61666524Y-117594095D01*
X61618905Y-117736952D01*
X61047476Y-118308381D01*
X61666524Y-118308381D01*
X61999857Y-117308381D02*
X62666524Y-117308381D01*
X62237952Y-118308381D01*
X56761143Y-121261143D02*
X56713524Y-121308762D01*
X56570667Y-121356381D01*
X56475429Y-121356381D01*
X56332571Y-121308762D01*
X56237333Y-121213524D01*
X56189714Y-121118286D01*
X56142095Y-120927810D01*
X56142095Y-120784952D01*
X56189714Y-120594476D01*
X56237333Y-120499238D01*
X56332571Y-120404000D01*
X56475429Y-120356381D01*
X56570667Y-120356381D01*
X56713524Y-120404000D01*
X56761143Y-120451619D01*
X57142095Y-120451619D02*
X57189714Y-120404000D01*
X57284952Y-120356381D01*
X57523048Y-120356381D01*
X57618286Y-120404000D01*
X57665905Y-120451619D01*
X57713524Y-120546857D01*
X57713524Y-120642095D01*
X57665905Y-120784952D01*
X57094476Y-121356381D01*
X57713524Y-121356381D01*
X58284952Y-120784952D02*
X58189714Y-120737333D01*
X58142095Y-120689714D01*
X58094476Y-120594476D01*
X58094476Y-120546857D01*
X58142095Y-120451619D01*
X58189714Y-120404000D01*
X58284952Y-120356381D01*
X58475429Y-120356381D01*
X58570667Y-120404000D01*
X58618286Y-120451619D01*
X58665905Y-120546857D01*
X58665905Y-120594476D01*
X58618286Y-120689714D01*
X58570667Y-120737333D01*
X58475429Y-120784952D01*
X58284952Y-120784952D01*
X58189714Y-120832571D01*
X58142095Y-120880190D01*
X58094476Y-120975429D01*
X58094476Y-121165905D01*
X58142095Y-121261143D01*
X58189714Y-121308762D01*
X58284952Y-121356381D01*
X58475429Y-121356381D01*
X58570667Y-121308762D01*
X58618286Y-121261143D01*
X58665905Y-121165905D01*
X58665905Y-120975429D01*
X58618286Y-120880190D01*
X58570667Y-120832571D01*
X58475429Y-120784952D01*
X176649143Y-117705143D02*
X176601524Y-117752762D01*
X176458667Y-117800381D01*
X176363429Y-117800381D01*
X176220571Y-117752762D01*
X176125333Y-117657524D01*
X176077714Y-117562286D01*
X176030095Y-117371810D01*
X176030095Y-117228952D01*
X176077714Y-117038476D01*
X176125333Y-116943238D01*
X176220571Y-116848000D01*
X176363429Y-116800381D01*
X176458667Y-116800381D01*
X176601524Y-116848000D01*
X176649143Y-116895619D01*
X177030095Y-116895619D02*
X177077714Y-116848000D01*
X177172952Y-116800381D01*
X177411048Y-116800381D01*
X177506286Y-116848000D01*
X177553905Y-116895619D01*
X177601524Y-116990857D01*
X177601524Y-117086095D01*
X177553905Y-117228952D01*
X176982476Y-117800381D01*
X177601524Y-117800381D01*
X178077714Y-117800381D02*
X178268190Y-117800381D01*
X178363429Y-117752762D01*
X178411048Y-117705143D01*
X178506286Y-117562286D01*
X178553905Y-117371810D01*
X178553905Y-116990857D01*
X178506286Y-116895619D01*
X178458667Y-116848000D01*
X178363429Y-116800381D01*
X178172952Y-116800381D01*
X178077714Y-116848000D01*
X178030095Y-116895619D01*
X177982476Y-116990857D01*
X177982476Y-117228952D01*
X178030095Y-117324190D01*
X178077714Y-117371810D01*
X178172952Y-117419429D01*
X178363429Y-117419429D01*
X178458667Y-117371810D01*
X178506286Y-117324190D01*
X178553905Y-117228952D01*
X129347381Y-71223095D02*
X128347381Y-71223095D01*
X128347381Y-70985000D01*
X128395000Y-70842142D01*
X128490238Y-70746904D01*
X128585476Y-70699285D01*
X128775952Y-70651666D01*
X128918810Y-70651666D01*
X129109286Y-70699285D01*
X129204524Y-70746904D01*
X129299762Y-70842142D01*
X129347381Y-70985000D01*
X129347381Y-71223095D01*
X129347381Y-69699285D02*
X129347381Y-70270714D01*
X129347381Y-69985000D02*
X128347381Y-69985000D01*
X128490238Y-70080238D01*
X128585476Y-70175476D01*
X128633095Y-70270714D01*
X136543381Y-71393095D02*
X135543381Y-71393095D01*
X135543381Y-71155000D01*
X135591000Y-71012142D01*
X135686238Y-70916904D01*
X135781476Y-70869285D01*
X135971952Y-70821666D01*
X136114810Y-70821666D01*
X136305286Y-70869285D01*
X136400524Y-70916904D01*
X136495762Y-71012142D01*
X136543381Y-71155000D01*
X136543381Y-71393095D01*
X135638619Y-70440714D02*
X135591000Y-70393095D01*
X135543381Y-70297857D01*
X135543381Y-70059761D01*
X135591000Y-69964523D01*
X135638619Y-69916904D01*
X135733857Y-69869285D01*
X135829095Y-69869285D01*
X135971952Y-69916904D01*
X136543381Y-70488333D01*
X136543381Y-69869285D01*
X143200381Y-69826095D02*
X142200381Y-69826095D01*
X142200381Y-69588000D01*
X142248000Y-69445142D01*
X142343238Y-69349904D01*
X142438476Y-69302285D01*
X142628952Y-69254666D01*
X142771810Y-69254666D01*
X142962286Y-69302285D01*
X143057524Y-69349904D01*
X143152762Y-69445142D01*
X143200381Y-69588000D01*
X143200381Y-69826095D01*
X142200381Y-68921333D02*
X142200381Y-68302285D01*
X142581333Y-68635619D01*
X142581333Y-68492761D01*
X142628952Y-68397523D01*
X142676571Y-68349904D01*
X142771810Y-68302285D01*
X143009905Y-68302285D01*
X143105143Y-68349904D01*
X143152762Y-68397523D01*
X143200381Y-68492761D01*
X143200381Y-68778476D01*
X143152762Y-68873714D01*
X143105143Y-68921333D01*
X74021905Y-80282381D02*
X74021905Y-79282381D01*
X74260000Y-79282381D01*
X74402858Y-79330000D01*
X74498096Y-79425238D01*
X74545715Y-79520476D01*
X74593334Y-79710952D01*
X74593334Y-79853810D01*
X74545715Y-80044286D01*
X74498096Y-80139524D01*
X74402858Y-80234762D01*
X74260000Y-80282381D01*
X74021905Y-80282381D01*
X75450477Y-79615714D02*
X75450477Y-80282381D01*
X75212381Y-79234762D02*
X74974286Y-79949048D01*
X75593334Y-79949048D01*
X74021905Y-84727381D02*
X74021905Y-83727381D01*
X74260000Y-83727381D01*
X74402858Y-83775000D01*
X74498096Y-83870238D01*
X74545715Y-83965476D01*
X74593334Y-84155952D01*
X74593334Y-84298810D01*
X74545715Y-84489286D01*
X74498096Y-84584524D01*
X74402858Y-84679762D01*
X74260000Y-84727381D01*
X74021905Y-84727381D01*
X75498096Y-83727381D02*
X75021905Y-83727381D01*
X74974286Y-84203571D01*
X75021905Y-84155952D01*
X75117143Y-84108333D01*
X75355239Y-84108333D01*
X75450477Y-84155952D01*
X75498096Y-84203571D01*
X75545715Y-84298810D01*
X75545715Y-84536905D01*
X75498096Y-84632143D01*
X75450477Y-84679762D01*
X75355239Y-84727381D01*
X75117143Y-84727381D01*
X75021905Y-84679762D01*
X74974286Y-84632143D01*
X74021905Y-89172381D02*
X74021905Y-88172381D01*
X74260000Y-88172381D01*
X74402858Y-88220000D01*
X74498096Y-88315238D01*
X74545715Y-88410476D01*
X74593334Y-88600952D01*
X74593334Y-88743810D01*
X74545715Y-88934286D01*
X74498096Y-89029524D01*
X74402858Y-89124762D01*
X74260000Y-89172381D01*
X74021905Y-89172381D01*
X75450477Y-88172381D02*
X75260000Y-88172381D01*
X75164762Y-88220000D01*
X75117143Y-88267619D01*
X75021905Y-88410476D01*
X74974286Y-88600952D01*
X74974286Y-88981905D01*
X75021905Y-89077143D01*
X75069524Y-89124762D01*
X75164762Y-89172381D01*
X75355239Y-89172381D01*
X75450477Y-89124762D01*
X75498096Y-89077143D01*
X75545715Y-88981905D01*
X75545715Y-88743810D01*
X75498096Y-88648571D01*
X75450477Y-88600952D01*
X75355239Y-88553333D01*
X75164762Y-88553333D01*
X75069524Y-88600952D01*
X75021905Y-88648571D01*
X74974286Y-88743810D01*
X157230932Y-131745273D02*
X157230932Y-130745273D01*
X157469027Y-130745273D01*
X157611885Y-130792892D01*
X157707123Y-130888130D01*
X157754742Y-130983368D01*
X157802361Y-131173844D01*
X157802361Y-131316702D01*
X157754742Y-131507178D01*
X157707123Y-131602416D01*
X157611885Y-131697654D01*
X157469027Y-131745273D01*
X157230932Y-131745273D01*
X158230932Y-131745273D02*
X158230932Y-131078606D01*
X158230932Y-130745273D02*
X158183313Y-130792892D01*
X158230932Y-130840511D01*
X158278551Y-130792892D01*
X158230932Y-130745273D01*
X158230932Y-130840511D01*
X158659503Y-131697654D02*
X158754741Y-131745273D01*
X158945217Y-131745273D01*
X159040456Y-131697654D01*
X159088075Y-131602416D01*
X159088075Y-131554797D01*
X159040456Y-131459559D01*
X158945217Y-131411940D01*
X158802360Y-131411940D01*
X158707122Y-131364321D01*
X158659503Y-131269082D01*
X158659503Y-131221463D01*
X158707122Y-131126225D01*
X158802360Y-131078606D01*
X158945217Y-131078606D01*
X159040456Y-131126225D01*
X159516646Y-131078606D02*
X159516646Y-132078606D01*
X159516646Y-131126225D02*
X159611884Y-131078606D01*
X159802361Y-131078606D01*
X159897599Y-131126225D01*
X159945218Y-131173844D01*
X159992837Y-131269082D01*
X159992837Y-131554797D01*
X159945218Y-131650035D01*
X159897599Y-131697654D01*
X159802361Y-131745273D01*
X159611884Y-131745273D01*
X159516646Y-131697654D01*
X160183313Y-131840511D02*
X160945218Y-131840511D01*
X161516647Y-131221463D02*
X161659504Y-131269082D01*
X161707123Y-131316702D01*
X161754742Y-131411940D01*
X161754742Y-131554797D01*
X161707123Y-131650035D01*
X161659504Y-131697654D01*
X161564266Y-131745273D01*
X161183313Y-131745273D01*
X161183313Y-130745273D01*
X161516647Y-130745273D01*
X161611885Y-130792892D01*
X161659504Y-130840511D01*
X161707123Y-130935749D01*
X161707123Y-131030987D01*
X161659504Y-131126225D01*
X161611885Y-131173844D01*
X161516647Y-131221463D01*
X161183313Y-131221463D01*
X162611885Y-131078606D02*
X162611885Y-131745273D01*
X162183313Y-131078606D02*
X162183313Y-131602416D01*
X162230932Y-131697654D01*
X162326170Y-131745273D01*
X162469028Y-131745273D01*
X162564266Y-131697654D01*
X162611885Y-131650035D01*
X162945218Y-131078606D02*
X163326170Y-131078606D01*
X163088075Y-130745273D02*
X163088075Y-131602416D01*
X163135694Y-131697654D01*
X163230932Y-131745273D01*
X163326170Y-131745273D01*
X163516647Y-131078606D02*
X163897599Y-131078606D01*
X163659504Y-130745273D02*
X163659504Y-131602416D01*
X163707123Y-131697654D01*
X163802361Y-131745273D01*
X163897599Y-131745273D01*
X164373790Y-131745273D02*
X164278552Y-131697654D01*
X164230933Y-131650035D01*
X164183314Y-131554797D01*
X164183314Y-131269082D01*
X164230933Y-131173844D01*
X164278552Y-131126225D01*
X164373790Y-131078606D01*
X164516648Y-131078606D01*
X164611886Y-131126225D01*
X164659505Y-131173844D01*
X164707124Y-131269082D01*
X164707124Y-131554797D01*
X164659505Y-131650035D01*
X164611886Y-131697654D01*
X164516648Y-131745273D01*
X164373790Y-131745273D01*
X165135695Y-131078606D02*
X165135695Y-131745273D01*
X165135695Y-131173844D02*
X165183314Y-131126225D01*
X165278552Y-131078606D01*
X165421410Y-131078606D01*
X165516648Y-131126225D01*
X165564267Y-131221463D01*
X165564267Y-131745273D01*
X165992838Y-131697654D02*
X166088076Y-131745273D01*
X166278552Y-131745273D01*
X166373791Y-131697654D01*
X166421410Y-131602416D01*
X166421410Y-131554797D01*
X166373791Y-131459559D01*
X166278552Y-131411940D01*
X166135695Y-131411940D01*
X166040457Y-131364321D01*
X165992838Y-131269082D01*
X165992838Y-131221463D01*
X166040457Y-131126225D01*
X166135695Y-131078606D01*
X166278552Y-131078606D01*
X166373791Y-131126225D01*
X167373791Y-131745273D02*
X166802362Y-131745273D01*
X167088076Y-131745273D02*
X167088076Y-130745273D01*
X166992838Y-130888130D01*
X166897600Y-130983368D01*
X166802362Y-131030987D01*
X61761904Y-143962381D02*
X61761904Y-142962381D01*
X61761904Y-143438571D02*
X62333333Y-143438571D01*
X62333333Y-143962381D02*
X62333333Y-142962381D01*
X63238095Y-143962381D02*
X63238095Y-143438571D01*
X63190476Y-143343333D01*
X63095238Y-143295714D01*
X62904761Y-143295714D01*
X62809523Y-143343333D01*
X63238095Y-143914762D02*
X63142857Y-143962381D01*
X62904761Y-143962381D01*
X62809523Y-143914762D01*
X62761904Y-143819524D01*
X62761904Y-143724286D01*
X62809523Y-143629048D01*
X62904761Y-143581429D01*
X63142857Y-143581429D01*
X63238095Y-143533810D01*
X63857142Y-143962381D02*
X63761904Y-143914762D01*
X63714285Y-143819524D01*
X63714285Y-142962381D01*
X64380952Y-143962381D02*
X64285714Y-143914762D01*
X64238095Y-143819524D01*
X64238095Y-142962381D01*
X65285715Y-143962381D02*
X64714286Y-143962381D01*
X65000000Y-143962381D02*
X65000000Y-142962381D01*
X64904762Y-143105238D01*
X64809524Y-143200476D01*
X64714286Y-143248095D01*
X74461904Y-143962381D02*
X74461904Y-142962381D01*
X74461904Y-143438571D02*
X75033333Y-143438571D01*
X75033333Y-143962381D02*
X75033333Y-142962381D01*
X75938095Y-143962381D02*
X75938095Y-143438571D01*
X75890476Y-143343333D01*
X75795238Y-143295714D01*
X75604761Y-143295714D01*
X75509523Y-143343333D01*
X75938095Y-143914762D02*
X75842857Y-143962381D01*
X75604761Y-143962381D01*
X75509523Y-143914762D01*
X75461904Y-143819524D01*
X75461904Y-143724286D01*
X75509523Y-143629048D01*
X75604761Y-143581429D01*
X75842857Y-143581429D01*
X75938095Y-143533810D01*
X76557142Y-143962381D02*
X76461904Y-143914762D01*
X76414285Y-143819524D01*
X76414285Y-142962381D01*
X77080952Y-143962381D02*
X76985714Y-143914762D01*
X76938095Y-143819524D01*
X76938095Y-142962381D01*
X77414286Y-143057619D02*
X77461905Y-143010000D01*
X77557143Y-142962381D01*
X77795239Y-142962381D01*
X77890477Y-143010000D01*
X77938096Y-143057619D01*
X77985715Y-143152857D01*
X77985715Y-143248095D01*
X77938096Y-143390952D01*
X77366667Y-143962381D01*
X77985715Y-143962381D01*
X84621904Y-143962381D02*
X84621904Y-142962381D01*
X84621904Y-143438571D02*
X85193333Y-143438571D01*
X85193333Y-143962381D02*
X85193333Y-142962381D01*
X86098095Y-143962381D02*
X86098095Y-143438571D01*
X86050476Y-143343333D01*
X85955238Y-143295714D01*
X85764761Y-143295714D01*
X85669523Y-143343333D01*
X86098095Y-143914762D02*
X86002857Y-143962381D01*
X85764761Y-143962381D01*
X85669523Y-143914762D01*
X85621904Y-143819524D01*
X85621904Y-143724286D01*
X85669523Y-143629048D01*
X85764761Y-143581429D01*
X86002857Y-143581429D01*
X86098095Y-143533810D01*
X86717142Y-143962381D02*
X86621904Y-143914762D01*
X86574285Y-143819524D01*
X86574285Y-142962381D01*
X87240952Y-143962381D02*
X87145714Y-143914762D01*
X87098095Y-143819524D01*
X87098095Y-142962381D01*
X87526667Y-142962381D02*
X88145715Y-142962381D01*
X87812381Y-143343333D01*
X87955239Y-143343333D01*
X88050477Y-143390952D01*
X88098096Y-143438571D01*
X88145715Y-143533810D01*
X88145715Y-143771905D01*
X88098096Y-143867143D01*
X88050477Y-143914762D01*
X87955239Y-143962381D01*
X87669524Y-143962381D01*
X87574286Y-143914762D01*
X87526667Y-143867143D01*
X96686904Y-143962381D02*
X96686904Y-142962381D01*
X96686904Y-143438571D02*
X97258333Y-143438571D01*
X97258333Y-143962381D02*
X97258333Y-142962381D01*
X98163095Y-143962381D02*
X98163095Y-143438571D01*
X98115476Y-143343333D01*
X98020238Y-143295714D01*
X97829761Y-143295714D01*
X97734523Y-143343333D01*
X98163095Y-143914762D02*
X98067857Y-143962381D01*
X97829761Y-143962381D01*
X97734523Y-143914762D01*
X97686904Y-143819524D01*
X97686904Y-143724286D01*
X97734523Y-143629048D01*
X97829761Y-143581429D01*
X98067857Y-143581429D01*
X98163095Y-143533810D01*
X98782142Y-143962381D02*
X98686904Y-143914762D01*
X98639285Y-143819524D01*
X98639285Y-142962381D01*
X99305952Y-143962381D02*
X99210714Y-143914762D01*
X99163095Y-143819524D01*
X99163095Y-142962381D01*
X100115477Y-143295714D02*
X100115477Y-143962381D01*
X99877381Y-142914762D02*
X99639286Y-143629048D01*
X100258334Y-143629048D01*
X108751904Y-143962381D02*
X108751904Y-142962381D01*
X108751904Y-143438571D02*
X109323333Y-143438571D01*
X109323333Y-143962381D02*
X109323333Y-142962381D01*
X110228095Y-143962381D02*
X110228095Y-143438571D01*
X110180476Y-143343333D01*
X110085238Y-143295714D01*
X109894761Y-143295714D01*
X109799523Y-143343333D01*
X110228095Y-143914762D02*
X110132857Y-143962381D01*
X109894761Y-143962381D01*
X109799523Y-143914762D01*
X109751904Y-143819524D01*
X109751904Y-143724286D01*
X109799523Y-143629048D01*
X109894761Y-143581429D01*
X110132857Y-143581429D01*
X110228095Y-143533810D01*
X110847142Y-143962381D02*
X110751904Y-143914762D01*
X110704285Y-143819524D01*
X110704285Y-142962381D01*
X111370952Y-143962381D02*
X111275714Y-143914762D01*
X111228095Y-143819524D01*
X111228095Y-142962381D01*
X112228096Y-142962381D02*
X111751905Y-142962381D01*
X111704286Y-143438571D01*
X111751905Y-143390952D01*
X111847143Y-143343333D01*
X112085239Y-143343333D01*
X112180477Y-143390952D01*
X112228096Y-143438571D01*
X112275715Y-143533810D01*
X112275715Y-143771905D01*
X112228096Y-143867143D01*
X112180477Y-143914762D01*
X112085239Y-143962381D01*
X111847143Y-143962381D01*
X111751905Y-143914762D01*
X111704286Y-143867143D01*
X120181904Y-143962381D02*
X120181904Y-142962381D01*
X120181904Y-143438571D02*
X120753333Y-143438571D01*
X120753333Y-143962381D02*
X120753333Y-142962381D01*
X121658095Y-143962381D02*
X121658095Y-143438571D01*
X121610476Y-143343333D01*
X121515238Y-143295714D01*
X121324761Y-143295714D01*
X121229523Y-143343333D01*
X121658095Y-143914762D02*
X121562857Y-143962381D01*
X121324761Y-143962381D01*
X121229523Y-143914762D01*
X121181904Y-143819524D01*
X121181904Y-143724286D01*
X121229523Y-143629048D01*
X121324761Y-143581429D01*
X121562857Y-143581429D01*
X121658095Y-143533810D01*
X122277142Y-143962381D02*
X122181904Y-143914762D01*
X122134285Y-143819524D01*
X122134285Y-142962381D01*
X122800952Y-143962381D02*
X122705714Y-143914762D01*
X122658095Y-143819524D01*
X122658095Y-142962381D01*
X123610477Y-142962381D02*
X123420000Y-142962381D01*
X123324762Y-143010000D01*
X123277143Y-143057619D01*
X123181905Y-143200476D01*
X123134286Y-143390952D01*
X123134286Y-143771905D01*
X123181905Y-143867143D01*
X123229524Y-143914762D01*
X123324762Y-143962381D01*
X123515239Y-143962381D01*
X123610477Y-143914762D01*
X123658096Y-143867143D01*
X123705715Y-143771905D01*
X123705715Y-143533810D01*
X123658096Y-143438571D01*
X123610477Y-143390952D01*
X123515239Y-143343333D01*
X123324762Y-143343333D01*
X123229524Y-143390952D01*
X123181905Y-143438571D01*
X123134286Y-143533810D01*
X213177619Y-124487381D02*
X213177619Y-123487381D01*
X213606190Y-123582619D02*
X213653809Y-123535000D01*
X213749047Y-123487381D01*
X213987143Y-123487381D01*
X214082381Y-123535000D01*
X214130000Y-123582619D01*
X214177619Y-123677857D01*
X214177619Y-123773095D01*
X214130000Y-123915952D01*
X213558571Y-124487381D01*
X214177619Y-124487381D01*
X215177619Y-124392143D02*
X215130000Y-124439762D01*
X214987143Y-124487381D01*
X214891905Y-124487381D01*
X214749047Y-124439762D01*
X214653809Y-124344524D01*
X214606190Y-124249286D01*
X214558571Y-124058810D01*
X214558571Y-123915952D01*
X214606190Y-123725476D01*
X214653809Y-123630238D01*
X214749047Y-123535000D01*
X214891905Y-123487381D01*
X214987143Y-123487381D01*
X215130000Y-123535000D01*
X215177619Y-123582619D01*
X216130000Y-124487381D02*
X215558571Y-124487381D01*
X215844285Y-124487381D02*
X215844285Y-123487381D01*
X215749047Y-123630238D01*
X215653809Y-123725476D01*
X215558571Y-123773095D01*
X218257619Y-124487381D02*
X218257619Y-123487381D01*
X218686190Y-123582619D02*
X218733809Y-123535000D01*
X218829047Y-123487381D01*
X219067143Y-123487381D01*
X219162381Y-123535000D01*
X219210000Y-123582619D01*
X219257619Y-123677857D01*
X219257619Y-123773095D01*
X219210000Y-123915952D01*
X218638571Y-124487381D01*
X219257619Y-124487381D01*
X220257619Y-124392143D02*
X220210000Y-124439762D01*
X220067143Y-124487381D01*
X219971905Y-124487381D01*
X219829047Y-124439762D01*
X219733809Y-124344524D01*
X219686190Y-124249286D01*
X219638571Y-124058810D01*
X219638571Y-123915952D01*
X219686190Y-123725476D01*
X219733809Y-123630238D01*
X219829047Y-123535000D01*
X219971905Y-123487381D01*
X220067143Y-123487381D01*
X220210000Y-123535000D01*
X220257619Y-123582619D01*
X220638571Y-123582619D02*
X220686190Y-123535000D01*
X220781428Y-123487381D01*
X221019524Y-123487381D01*
X221114762Y-123535000D01*
X221162381Y-123582619D01*
X221210000Y-123677857D01*
X221210000Y-123773095D01*
X221162381Y-123915952D01*
X220590952Y-124487381D01*
X221210000Y-124487381D01*
X223972619Y-124487381D02*
X223972619Y-123487381D01*
X224401190Y-123582619D02*
X224448809Y-123535000D01*
X224544047Y-123487381D01*
X224782143Y-123487381D01*
X224877381Y-123535000D01*
X224925000Y-123582619D01*
X224972619Y-123677857D01*
X224972619Y-123773095D01*
X224925000Y-123915952D01*
X224353571Y-124487381D01*
X224972619Y-124487381D01*
X225972619Y-124392143D02*
X225925000Y-124439762D01*
X225782143Y-124487381D01*
X225686905Y-124487381D01*
X225544047Y-124439762D01*
X225448809Y-124344524D01*
X225401190Y-124249286D01*
X225353571Y-124058810D01*
X225353571Y-123915952D01*
X225401190Y-123725476D01*
X225448809Y-123630238D01*
X225544047Y-123535000D01*
X225686905Y-123487381D01*
X225782143Y-123487381D01*
X225925000Y-123535000D01*
X225972619Y-123582619D01*
X226305952Y-123487381D02*
X226925000Y-123487381D01*
X226591666Y-123868333D01*
X226734524Y-123868333D01*
X226829762Y-123915952D01*
X226877381Y-123963571D01*
X226925000Y-124058810D01*
X226925000Y-124296905D01*
X226877381Y-124392143D01*
X226829762Y-124439762D01*
X226734524Y-124487381D01*
X226448809Y-124487381D01*
X226353571Y-124439762D01*
X226305952Y-124392143D01*
X62531667Y-46442381D02*
X62531667Y-47156667D01*
X62484047Y-47299524D01*
X62388809Y-47394762D01*
X62245952Y-47442381D01*
X62150714Y-47442381D01*
X63531667Y-47442381D02*
X62960238Y-47442381D01*
X63245952Y-47442381D02*
X63245952Y-46442381D01*
X63150714Y-46585238D01*
X63055476Y-46680476D01*
X62960238Y-46728095D01*
X143811667Y-85387381D02*
X143811667Y-86101667D01*
X143764047Y-86244524D01*
X143668809Y-86339762D01*
X143525952Y-86387381D01*
X143430714Y-86387381D01*
X144240238Y-85482619D02*
X144287857Y-85435000D01*
X144383095Y-85387381D01*
X144621191Y-85387381D01*
X144716429Y-85435000D01*
X144764048Y-85482619D01*
X144811667Y-85577857D01*
X144811667Y-85673095D01*
X144764048Y-85815952D01*
X144192619Y-86387381D01*
X144811667Y-86387381D01*
X106981667Y-46442381D02*
X106981667Y-47156667D01*
X106934047Y-47299524D01*
X106838809Y-47394762D01*
X106695952Y-47442381D01*
X106600714Y-47442381D01*
X107362619Y-46442381D02*
X107981667Y-46442381D01*
X107648333Y-46823333D01*
X107791191Y-46823333D01*
X107886429Y-46870952D01*
X107934048Y-46918571D01*
X107981667Y-47013810D01*
X107981667Y-47251905D01*
X107934048Y-47347143D01*
X107886429Y-47394762D01*
X107791191Y-47442381D01*
X107505476Y-47442381D01*
X107410238Y-47394762D01*
X107362619Y-47347143D01*
X179498667Y-133056381D02*
X179498667Y-133770667D01*
X179451047Y-133913524D01*
X179355809Y-134008762D01*
X179212952Y-134056381D01*
X179117714Y-134056381D01*
X180403429Y-133389714D02*
X180403429Y-134056381D01*
X180165333Y-133008762D02*
X179927238Y-133723048D01*
X180546286Y-133723048D01*
X46061381Y-101298333D02*
X46775667Y-101298333D01*
X46918524Y-101345953D01*
X47013762Y-101441191D01*
X47061381Y-101584048D01*
X47061381Y-101679286D01*
X46061381Y-100345952D02*
X46061381Y-100822143D01*
X46537571Y-100869762D01*
X46489952Y-100822143D01*
X46442333Y-100726905D01*
X46442333Y-100488809D01*
X46489952Y-100393571D01*
X46537571Y-100345952D01*
X46632810Y-100298333D01*
X46870905Y-100298333D01*
X46966143Y-100345952D01*
X47013762Y-100393571D01*
X47061381Y-100488809D01*
X47061381Y-100726905D01*
X47013762Y-100822143D01*
X46966143Y-100869762D01*
X117776667Y-46442381D02*
X117776667Y-47156667D01*
X117729047Y-47299524D01*
X117633809Y-47394762D01*
X117490952Y-47442381D01*
X117395714Y-47442381D01*
X118681429Y-46442381D02*
X118490952Y-46442381D01*
X118395714Y-46490000D01*
X118348095Y-46537619D01*
X118252857Y-46680476D01*
X118205238Y-46870952D01*
X118205238Y-47251905D01*
X118252857Y-47347143D01*
X118300476Y-47394762D01*
X118395714Y-47442381D01*
X118586191Y-47442381D01*
X118681429Y-47394762D01*
X118729048Y-47347143D01*
X118776667Y-47251905D01*
X118776667Y-47013810D01*
X118729048Y-46918571D01*
X118681429Y-46870952D01*
X118586191Y-46823333D01*
X118395714Y-46823333D01*
X118300476Y-46870952D01*
X118252857Y-46918571D01*
X118205238Y-47013810D01*
X189658667Y-133056381D02*
X189658667Y-133770667D01*
X189611047Y-133913524D01*
X189515809Y-134008762D01*
X189372952Y-134056381D01*
X189277714Y-134056381D01*
X190039619Y-133056381D02*
X190706286Y-133056381D01*
X190277714Y-134056381D01*
X46061381Y-88598333D02*
X46775667Y-88598333D01*
X46918524Y-88645953D01*
X47013762Y-88741191D01*
X47061381Y-88884048D01*
X47061381Y-88979286D01*
X46489952Y-87979286D02*
X46442333Y-88074524D01*
X46394714Y-88122143D01*
X46299476Y-88169762D01*
X46251857Y-88169762D01*
X46156619Y-88122143D01*
X46109000Y-88074524D01*
X46061381Y-87979286D01*
X46061381Y-87788809D01*
X46109000Y-87693571D01*
X46156619Y-87645952D01*
X46251857Y-87598333D01*
X46299476Y-87598333D01*
X46394714Y-87645952D01*
X46442333Y-87693571D01*
X46489952Y-87788809D01*
X46489952Y-87979286D01*
X46537571Y-88074524D01*
X46585190Y-88122143D01*
X46680429Y-88169762D01*
X46870905Y-88169762D01*
X46966143Y-88122143D01*
X47013762Y-88074524D01*
X47061381Y-87979286D01*
X47061381Y-87788809D01*
X47013762Y-87693571D01*
X46966143Y-87645952D01*
X46870905Y-87598333D01*
X46680429Y-87598333D01*
X46585190Y-87645952D01*
X46537571Y-87693571D01*
X46489952Y-87788809D01*
X128571667Y-46442381D02*
X128571667Y-47156667D01*
X128524047Y-47299524D01*
X128428809Y-47394762D01*
X128285952Y-47442381D01*
X128190714Y-47442381D01*
X129095476Y-47442381D02*
X129285952Y-47442381D01*
X129381191Y-47394762D01*
X129428810Y-47347143D01*
X129524048Y-47204286D01*
X129571667Y-47013810D01*
X129571667Y-46632857D01*
X129524048Y-46537619D01*
X129476429Y-46490000D01*
X129381191Y-46442381D01*
X129190714Y-46442381D01*
X129095476Y-46490000D01*
X129047857Y-46537619D01*
X129000238Y-46632857D01*
X129000238Y-46870952D01*
X129047857Y-46966190D01*
X129095476Y-47013810D01*
X129190714Y-47061429D01*
X129381191Y-47061429D01*
X129476429Y-47013810D01*
X129524048Y-46966190D01*
X129571667Y-46870952D01*
X138890477Y-46442381D02*
X138890477Y-47156667D01*
X138842857Y-47299524D01*
X138747619Y-47394762D01*
X138604762Y-47442381D01*
X138509524Y-47442381D01*
X139890477Y-47442381D02*
X139319048Y-47442381D01*
X139604762Y-47442381D02*
X139604762Y-46442381D01*
X139509524Y-46585238D01*
X139414286Y-46680476D01*
X139319048Y-46728095D01*
X140509524Y-46442381D02*
X140604763Y-46442381D01*
X140700001Y-46490000D01*
X140747620Y-46537619D01*
X140795239Y-46632857D01*
X140842858Y-46823333D01*
X140842858Y-47061429D01*
X140795239Y-47251905D01*
X140747620Y-47347143D01*
X140700001Y-47394762D01*
X140604763Y-47442381D01*
X140509524Y-47442381D01*
X140414286Y-47394762D01*
X140366667Y-47347143D01*
X140319048Y-47251905D01*
X140271429Y-47061429D01*
X140271429Y-46823333D01*
X140319048Y-46632857D01*
X140366667Y-46537619D01*
X140414286Y-46490000D01*
X140509524Y-46442381D01*
X46061381Y-76374523D02*
X46775667Y-76374523D01*
X46918524Y-76422143D01*
X47013762Y-76517381D01*
X47061381Y-76660238D01*
X47061381Y-76755476D01*
X47061381Y-75374523D02*
X47061381Y-75945952D01*
X47061381Y-75660238D02*
X46061381Y-75660238D01*
X46204238Y-75755476D01*
X46299476Y-75850714D01*
X46347095Y-75945952D01*
X47061381Y-74422142D02*
X47061381Y-74993571D01*
X47061381Y-74707857D02*
X46061381Y-74707857D01*
X46204238Y-74803095D01*
X46299476Y-74898333D01*
X46347095Y-74993571D01*
X150955477Y-46442381D02*
X150955477Y-47156667D01*
X150907857Y-47299524D01*
X150812619Y-47394762D01*
X150669762Y-47442381D01*
X150574524Y-47442381D01*
X151955477Y-47442381D02*
X151384048Y-47442381D01*
X151669762Y-47442381D02*
X151669762Y-46442381D01*
X151574524Y-46585238D01*
X151479286Y-46680476D01*
X151384048Y-46728095D01*
X152336429Y-46537619D02*
X152384048Y-46490000D01*
X152479286Y-46442381D01*
X152717382Y-46442381D01*
X152812620Y-46490000D01*
X152860239Y-46537619D01*
X152907858Y-46632857D01*
X152907858Y-46728095D01*
X152860239Y-46870952D01*
X152288810Y-47442381D01*
X152907858Y-47442381D01*
X46061381Y-64944523D02*
X46775667Y-64944523D01*
X46918524Y-64992143D01*
X47013762Y-65087381D01*
X47061381Y-65230238D01*
X47061381Y-65325476D01*
X47061381Y-63944523D02*
X47061381Y-64515952D01*
X47061381Y-64230238D02*
X46061381Y-64230238D01*
X46204238Y-64325476D01*
X46299476Y-64420714D01*
X46347095Y-64515952D01*
X46061381Y-63611190D02*
X46061381Y-62992142D01*
X46442333Y-63325476D01*
X46442333Y-63182618D01*
X46489952Y-63087380D01*
X46537571Y-63039761D01*
X46632810Y-62992142D01*
X46870905Y-62992142D01*
X46966143Y-63039761D01*
X47013762Y-63087380D01*
X47061381Y-63182618D01*
X47061381Y-63468333D01*
X47013762Y-63563571D01*
X46966143Y-63611190D01*
X161750477Y-46442381D02*
X161750477Y-47156667D01*
X161702857Y-47299524D01*
X161607619Y-47394762D01*
X161464762Y-47442381D01*
X161369524Y-47442381D01*
X162750477Y-47442381D02*
X162179048Y-47442381D01*
X162464762Y-47442381D02*
X162464762Y-46442381D01*
X162369524Y-46585238D01*
X162274286Y-46680476D01*
X162179048Y-46728095D01*
X163607620Y-46775714D02*
X163607620Y-47442381D01*
X163369524Y-46394762D02*
X163131429Y-47109048D01*
X163750477Y-47109048D01*
X172545477Y-46442381D02*
X172545477Y-47156667D01*
X172497857Y-47299524D01*
X172402619Y-47394762D01*
X172259762Y-47442381D01*
X172164524Y-47442381D01*
X173545477Y-47442381D02*
X172974048Y-47442381D01*
X173259762Y-47442381D02*
X173259762Y-46442381D01*
X173164524Y-46585238D01*
X173069286Y-46680476D01*
X172974048Y-46728095D01*
X174450239Y-46442381D02*
X173974048Y-46442381D01*
X173926429Y-46918571D01*
X173974048Y-46870952D01*
X174069286Y-46823333D01*
X174307382Y-46823333D01*
X174402620Y-46870952D01*
X174450239Y-46918571D01*
X174497858Y-47013810D01*
X174497858Y-47251905D01*
X174450239Y-47347143D01*
X174402620Y-47394762D01*
X174307382Y-47442381D01*
X174069286Y-47442381D01*
X173974048Y-47394762D01*
X173926429Y-47347143D01*
X183340477Y-46442381D02*
X183340477Y-47156667D01*
X183292857Y-47299524D01*
X183197619Y-47394762D01*
X183054762Y-47442381D01*
X182959524Y-47442381D01*
X184340477Y-47442381D02*
X183769048Y-47442381D01*
X184054762Y-47442381D02*
X184054762Y-46442381D01*
X183959524Y-46585238D01*
X183864286Y-46680476D01*
X183769048Y-46728095D01*
X185197620Y-46442381D02*
X185007143Y-46442381D01*
X184911905Y-46490000D01*
X184864286Y-46537619D01*
X184769048Y-46680476D01*
X184721429Y-46870952D01*
X184721429Y-47251905D01*
X184769048Y-47347143D01*
X184816667Y-47394762D01*
X184911905Y-47442381D01*
X185102382Y-47442381D01*
X185197620Y-47394762D01*
X185245239Y-47347143D01*
X185292858Y-47251905D01*
X185292858Y-47013810D01*
X185245239Y-46918571D01*
X185197620Y-46870952D01*
X185102382Y-46823333D01*
X184911905Y-46823333D01*
X184816667Y-46870952D01*
X184769048Y-46918571D01*
X184721429Y-47013810D01*
X195405477Y-46442381D02*
X195405477Y-47156667D01*
X195357857Y-47299524D01*
X195262619Y-47394762D01*
X195119762Y-47442381D01*
X195024524Y-47442381D01*
X196405477Y-47442381D02*
X195834048Y-47442381D01*
X196119762Y-47442381D02*
X196119762Y-46442381D01*
X196024524Y-46585238D01*
X195929286Y-46680476D01*
X195834048Y-46728095D01*
X196738810Y-46442381D02*
X197405477Y-46442381D01*
X196976905Y-47442381D01*
X206200477Y-46442381D02*
X206200477Y-47156667D01*
X206152857Y-47299524D01*
X206057619Y-47394762D01*
X205914762Y-47442381D01*
X205819524Y-47442381D01*
X207200477Y-47442381D02*
X206629048Y-47442381D01*
X206914762Y-47442381D02*
X206914762Y-46442381D01*
X206819524Y-46585238D01*
X206724286Y-46680476D01*
X206629048Y-46728095D01*
X207676667Y-47442381D02*
X207867143Y-47442381D01*
X207962382Y-47394762D01*
X208010001Y-47347143D01*
X208105239Y-47204286D01*
X208152858Y-47013810D01*
X208152858Y-46632857D01*
X208105239Y-46537619D01*
X208057620Y-46490000D01*
X207962382Y-46442381D01*
X207771905Y-46442381D01*
X207676667Y-46490000D01*
X207629048Y-46537619D01*
X207581429Y-46632857D01*
X207581429Y-46870952D01*
X207629048Y-46966190D01*
X207676667Y-47013810D01*
X207771905Y-47061429D01*
X207962382Y-47061429D01*
X208057620Y-47013810D01*
X208105239Y-46966190D01*
X208152858Y-46870952D01*
X216995477Y-46442381D02*
X216995477Y-47156667D01*
X216947857Y-47299524D01*
X216852619Y-47394762D01*
X216709762Y-47442381D01*
X216614524Y-47442381D01*
X217424048Y-46537619D02*
X217471667Y-46490000D01*
X217566905Y-46442381D01*
X217805001Y-46442381D01*
X217900239Y-46490000D01*
X217947858Y-46537619D01*
X217995477Y-46632857D01*
X217995477Y-46728095D01*
X217947858Y-46870952D01*
X217376429Y-47442381D01*
X217995477Y-47442381D01*
X218614524Y-46442381D02*
X218709763Y-46442381D01*
X218805001Y-46490000D01*
X218852620Y-46537619D01*
X218900239Y-46632857D01*
X218947858Y-46823333D01*
X218947858Y-47061429D01*
X218900239Y-47251905D01*
X218852620Y-47347143D01*
X218805001Y-47394762D01*
X218709763Y-47442381D01*
X218614524Y-47442381D01*
X218519286Y-47394762D01*
X218471667Y-47347143D01*
X218424048Y-47251905D01*
X218376429Y-47061429D01*
X218376429Y-46823333D01*
X218424048Y-46632857D01*
X218471667Y-46537619D01*
X218519286Y-46490000D01*
X218614524Y-46442381D01*
X87074477Y-97706381D02*
X87074477Y-98420667D01*
X87026857Y-98563524D01*
X86931619Y-98658762D01*
X86788762Y-98706381D01*
X86693524Y-98706381D01*
X87503048Y-97801619D02*
X87550667Y-97754000D01*
X87645905Y-97706381D01*
X87884001Y-97706381D01*
X87979239Y-97754000D01*
X88026858Y-97801619D01*
X88074477Y-97896857D01*
X88074477Y-97992095D01*
X88026858Y-98134952D01*
X87455429Y-98706381D01*
X88074477Y-98706381D01*
X89026858Y-98706381D02*
X88455429Y-98706381D01*
X88741143Y-98706381D02*
X88741143Y-97706381D01*
X88645905Y-97849238D01*
X88550667Y-97944476D01*
X88455429Y-97992095D01*
X183340477Y-69512381D02*
X183340477Y-70226667D01*
X183292857Y-70369524D01*
X183197619Y-70464762D01*
X183054762Y-70512381D01*
X182959524Y-70512381D01*
X183769048Y-69607619D02*
X183816667Y-69560000D01*
X183911905Y-69512381D01*
X184150001Y-69512381D01*
X184245239Y-69560000D01*
X184292858Y-69607619D01*
X184340477Y-69702857D01*
X184340477Y-69798095D01*
X184292858Y-69940952D01*
X183721429Y-70512381D01*
X184340477Y-70512381D01*
X184673810Y-69512381D02*
X185292858Y-69512381D01*
X184959524Y-69893333D01*
X185102382Y-69893333D01*
X185197620Y-69940952D01*
X185245239Y-69988571D01*
X185292858Y-70083810D01*
X185292858Y-70321905D01*
X185245239Y-70417143D01*
X185197620Y-70464762D01*
X185102382Y-70512381D01*
X184816667Y-70512381D01*
X184721429Y-70464762D01*
X184673810Y-70417143D01*
X46625381Y-120710523D02*
X47339667Y-120710523D01*
X47482524Y-120758143D01*
X47577762Y-120853381D01*
X47625381Y-120996238D01*
X47625381Y-121091476D01*
X46720619Y-120281952D02*
X46673000Y-120234333D01*
X46625381Y-120139095D01*
X46625381Y-119900999D01*
X46673000Y-119805761D01*
X46720619Y-119758142D01*
X46815857Y-119710523D01*
X46911095Y-119710523D01*
X47053952Y-119758142D01*
X47625381Y-120329571D01*
X47625381Y-119710523D01*
X46958714Y-118853380D02*
X47625381Y-118853380D01*
X46577762Y-119091476D02*
X47292048Y-119329571D01*
X47292048Y-118710523D01*
X78962808Y-53421507D02*
X78486617Y-53421507D01*
X78486617Y-52421507D01*
X79819951Y-53421507D02*
X79248522Y-53421507D01*
X79534236Y-53421507D02*
X79534236Y-52421507D01*
X79438998Y-52564364D01*
X79343760Y-52659602D01*
X79248522Y-52707221D01*
X207252381Y-66976428D02*
X207252381Y-67452619D01*
X206252381Y-67452619D01*
X207252381Y-66500238D02*
X207204762Y-66595476D01*
X207157143Y-66643095D01*
X207061905Y-66690714D01*
X206776190Y-66690714D01*
X206680952Y-66643095D01*
X206633333Y-66595476D01*
X206585714Y-66500238D01*
X206585714Y-66357380D01*
X206633333Y-66262142D01*
X206680952Y-66214523D01*
X206776190Y-66166904D01*
X207061905Y-66166904D01*
X207157143Y-66214523D01*
X207204762Y-66262142D01*
X207252381Y-66357380D01*
X207252381Y-66500238D01*
X207252381Y-65166904D02*
X206776190Y-65500238D01*
X207252381Y-65738333D02*
X206252381Y-65738333D01*
X206252381Y-65357380D01*
X206300000Y-65262142D01*
X206347619Y-65214523D01*
X206442857Y-65166904D01*
X206585714Y-65166904D01*
X206680952Y-65214523D01*
X206728571Y-65262142D01*
X206776190Y-65357380D01*
X206776190Y-65738333D01*
X207252381Y-64309761D02*
X206728571Y-64309761D01*
X206633333Y-64357380D01*
X206585714Y-64452618D01*
X206585714Y-64643095D01*
X206633333Y-64738333D01*
X207204762Y-64309761D02*
X207252381Y-64404999D01*
X207252381Y-64643095D01*
X207204762Y-64738333D01*
X207109524Y-64785952D01*
X207014286Y-64785952D01*
X206919048Y-64738333D01*
X206871429Y-64643095D01*
X206871429Y-64404999D01*
X206823810Y-64309761D01*
X207252381Y-63309761D02*
X207252381Y-63881190D01*
X207252381Y-63595476D02*
X206252381Y-63595476D01*
X206395238Y-63690714D01*
X206490476Y-63785952D01*
X206538095Y-63881190D01*
X174601428Y-130687381D02*
X174791905Y-130687381D01*
X174887143Y-130735000D01*
X174982381Y-130830238D01*
X175030000Y-131020714D01*
X175030000Y-131354048D01*
X174982381Y-131544524D01*
X174887143Y-131639762D01*
X174791905Y-131687381D01*
X174601428Y-131687381D01*
X174506190Y-131639762D01*
X174410952Y-131544524D01*
X174363333Y-131354048D01*
X174363333Y-131020714D01*
X174410952Y-130830238D01*
X174506190Y-130735000D01*
X174601428Y-130687381D01*
X175934762Y-131687381D02*
X175458571Y-131687381D01*
X175458571Y-130687381D01*
X176268095Y-131163571D02*
X176601429Y-131163571D01*
X176744286Y-131687381D02*
X176268095Y-131687381D01*
X176268095Y-130687381D01*
X176744286Y-130687381D01*
X177172857Y-131687381D02*
X177172857Y-130687381D01*
X177410952Y-130687381D01*
X177553810Y-130735000D01*
X177649048Y-130830238D01*
X177696667Y-130925476D01*
X177744286Y-131115952D01*
X177744286Y-131258810D01*
X177696667Y-131449286D01*
X177649048Y-131544524D01*
X177553810Y-131639762D01*
X177410952Y-131687381D01*
X177172857Y-131687381D01*
X178363333Y-130687381D02*
X178458572Y-130687381D01*
X178553810Y-130735000D01*
X178601429Y-130782619D01*
X178649048Y-130877857D01*
X178696667Y-131068333D01*
X178696667Y-131306429D01*
X178649048Y-131496905D01*
X178601429Y-131592143D01*
X178553810Y-131639762D01*
X178458572Y-131687381D01*
X178363333Y-131687381D01*
X178268095Y-131639762D01*
X178220476Y-131592143D01*
X178172857Y-131496905D01*
X178125238Y-131306429D01*
X178125238Y-131068333D01*
X178172857Y-130877857D01*
X178220476Y-130782619D01*
X178268095Y-130735000D01*
X178363333Y-130687381D01*
X180951428Y-130687381D02*
X181141905Y-130687381D01*
X181237143Y-130735000D01*
X181332381Y-130830238D01*
X181380000Y-131020714D01*
X181380000Y-131354048D01*
X181332381Y-131544524D01*
X181237143Y-131639762D01*
X181141905Y-131687381D01*
X180951428Y-131687381D01*
X180856190Y-131639762D01*
X180760952Y-131544524D01*
X180713333Y-131354048D01*
X180713333Y-131020714D01*
X180760952Y-130830238D01*
X180856190Y-130735000D01*
X180951428Y-130687381D01*
X182284762Y-131687381D02*
X181808571Y-131687381D01*
X181808571Y-130687381D01*
X182618095Y-131163571D02*
X182951429Y-131163571D01*
X183094286Y-131687381D02*
X182618095Y-131687381D01*
X182618095Y-130687381D01*
X183094286Y-130687381D01*
X183522857Y-131687381D02*
X183522857Y-130687381D01*
X183760952Y-130687381D01*
X183903810Y-130735000D01*
X183999048Y-130830238D01*
X184046667Y-130925476D01*
X184094286Y-131115952D01*
X184094286Y-131258810D01*
X184046667Y-131449286D01*
X183999048Y-131544524D01*
X183903810Y-131639762D01*
X183760952Y-131687381D01*
X183522857Y-131687381D01*
X185046667Y-131687381D02*
X184475238Y-131687381D01*
X184760952Y-131687381D02*
X184760952Y-130687381D01*
X184665714Y-130830238D01*
X184570476Y-130925476D01*
X184475238Y-130973095D01*
X186666428Y-130687381D02*
X186856905Y-130687381D01*
X186952143Y-130735000D01*
X187047381Y-130830238D01*
X187095000Y-131020714D01*
X187095000Y-131354048D01*
X187047381Y-131544524D01*
X186952143Y-131639762D01*
X186856905Y-131687381D01*
X186666428Y-131687381D01*
X186571190Y-131639762D01*
X186475952Y-131544524D01*
X186428333Y-131354048D01*
X186428333Y-131020714D01*
X186475952Y-130830238D01*
X186571190Y-130735000D01*
X186666428Y-130687381D01*
X187999762Y-131687381D02*
X187523571Y-131687381D01*
X187523571Y-130687381D01*
X188333095Y-131163571D02*
X188666429Y-131163571D01*
X188809286Y-131687381D02*
X188333095Y-131687381D01*
X188333095Y-130687381D01*
X188809286Y-130687381D01*
X189237857Y-131687381D02*
X189237857Y-130687381D01*
X189475952Y-130687381D01*
X189618810Y-130735000D01*
X189714048Y-130830238D01*
X189761667Y-130925476D01*
X189809286Y-131115952D01*
X189809286Y-131258810D01*
X189761667Y-131449286D01*
X189714048Y-131544524D01*
X189618810Y-131639762D01*
X189475952Y-131687381D01*
X189237857Y-131687381D01*
X190190238Y-130782619D02*
X190237857Y-130735000D01*
X190333095Y-130687381D01*
X190571191Y-130687381D01*
X190666429Y-130735000D01*
X190714048Y-130782619D01*
X190761667Y-130877857D01*
X190761667Y-130973095D01*
X190714048Y-131115952D01*
X190142619Y-131687381D01*
X190761667Y-131687381D01*
X192381428Y-130687381D02*
X192571905Y-130687381D01*
X192667143Y-130735000D01*
X192762381Y-130830238D01*
X192810000Y-131020714D01*
X192810000Y-131354048D01*
X192762381Y-131544524D01*
X192667143Y-131639762D01*
X192571905Y-131687381D01*
X192381428Y-131687381D01*
X192286190Y-131639762D01*
X192190952Y-131544524D01*
X192143333Y-131354048D01*
X192143333Y-131020714D01*
X192190952Y-130830238D01*
X192286190Y-130735000D01*
X192381428Y-130687381D01*
X193714762Y-131687381D02*
X193238571Y-131687381D01*
X193238571Y-130687381D01*
X194048095Y-131163571D02*
X194381429Y-131163571D01*
X194524286Y-131687381D02*
X194048095Y-131687381D01*
X194048095Y-130687381D01*
X194524286Y-130687381D01*
X194952857Y-131687381D02*
X194952857Y-130687381D01*
X195190952Y-130687381D01*
X195333810Y-130735000D01*
X195429048Y-130830238D01*
X195476667Y-130925476D01*
X195524286Y-131115952D01*
X195524286Y-131258810D01*
X195476667Y-131449286D01*
X195429048Y-131544524D01*
X195333810Y-131639762D01*
X195190952Y-131687381D01*
X194952857Y-131687381D01*
X195857619Y-130687381D02*
X196476667Y-130687381D01*
X196143333Y-131068333D01*
X196286191Y-131068333D01*
X196381429Y-131115952D01*
X196429048Y-131163571D01*
X196476667Y-131258810D01*
X196476667Y-131496905D01*
X196429048Y-131592143D01*
X196381429Y-131639762D01*
X196286191Y-131687381D01*
X196000476Y-131687381D01*
X195905238Y-131639762D01*
X195857619Y-131592143D01*
X168251428Y-130687381D02*
X168441905Y-130687381D01*
X168537143Y-130735000D01*
X168632381Y-130830238D01*
X168680000Y-131020714D01*
X168680000Y-131354048D01*
X168632381Y-131544524D01*
X168537143Y-131639762D01*
X168441905Y-131687381D01*
X168251428Y-131687381D01*
X168156190Y-131639762D01*
X168060952Y-131544524D01*
X168013333Y-131354048D01*
X168013333Y-131020714D01*
X168060952Y-130830238D01*
X168156190Y-130735000D01*
X168251428Y-130687381D01*
X169584762Y-131687381D02*
X169108571Y-131687381D01*
X169108571Y-130687381D01*
X169918095Y-131163571D02*
X170251429Y-131163571D01*
X170394286Y-131687381D02*
X169918095Y-131687381D01*
X169918095Y-130687381D01*
X170394286Y-130687381D01*
X170822857Y-131687381D02*
X170822857Y-130687381D01*
X171060952Y-130687381D01*
X171203810Y-130735000D01*
X171299048Y-130830238D01*
X171346667Y-130925476D01*
X171394286Y-131115952D01*
X171394286Y-131258810D01*
X171346667Y-131449286D01*
X171299048Y-131544524D01*
X171203810Y-131639762D01*
X171060952Y-131687381D01*
X170822857Y-131687381D01*
X172251429Y-131020714D02*
X172251429Y-131687381D01*
X172013333Y-130639762D02*
X171775238Y-131354048D01*
X172394286Y-131354048D01*
X65236855Y-59460792D02*
X64760664Y-59794126D01*
X65236855Y-60032221D02*
X64236855Y-60032221D01*
X64236855Y-59651268D01*
X64284474Y-59556030D01*
X64332093Y-59508411D01*
X64427331Y-59460792D01*
X64570188Y-59460792D01*
X64665426Y-59508411D01*
X64713045Y-59556030D01*
X64760664Y-59651268D01*
X64760664Y-60032221D01*
X65236855Y-58508411D02*
X65236855Y-59079840D01*
X65236855Y-58794126D02*
X64236855Y-58794126D01*
X64379712Y-58889364D01*
X64474950Y-58984602D01*
X64522569Y-59079840D01*
X69112381Y-59460792D02*
X68636190Y-59794126D01*
X69112381Y-60032221D02*
X68112381Y-60032221D01*
X68112381Y-59651268D01*
X68160000Y-59556030D01*
X68207619Y-59508411D01*
X68302857Y-59460792D01*
X68445714Y-59460792D01*
X68540952Y-59508411D01*
X68588571Y-59556030D01*
X68636190Y-59651268D01*
X68636190Y-60032221D01*
X68207619Y-59079840D02*
X68160000Y-59032221D01*
X68112381Y-58936983D01*
X68112381Y-58698887D01*
X68160000Y-58603649D01*
X68207619Y-58556030D01*
X68302857Y-58508411D01*
X68398095Y-58508411D01*
X68540952Y-58556030D01*
X69112381Y-59127459D01*
X69112381Y-58508411D01*
X135071381Y-70971666D02*
X134595190Y-71305000D01*
X135071381Y-71543095D02*
X134071381Y-71543095D01*
X134071381Y-71162142D01*
X134119000Y-71066904D01*
X134166619Y-71019285D01*
X134261857Y-70971666D01*
X134404714Y-70971666D01*
X134499952Y-71019285D01*
X134547571Y-71066904D01*
X134595190Y-71162142D01*
X134595190Y-71543095D01*
X134071381Y-70638333D02*
X134071381Y-70019285D01*
X134452333Y-70352619D01*
X134452333Y-70209761D01*
X134499952Y-70114523D01*
X134547571Y-70066904D01*
X134642810Y-70019285D01*
X134880905Y-70019285D01*
X134976143Y-70066904D01*
X135023762Y-70114523D01*
X135071381Y-70209761D01*
X135071381Y-70495476D01*
X135023762Y-70590714D01*
X134976143Y-70638333D01*
X139644381Y-70778666D02*
X139168190Y-71112000D01*
X139644381Y-71350095D02*
X138644381Y-71350095D01*
X138644381Y-70969142D01*
X138692000Y-70873904D01*
X138739619Y-70826285D01*
X138834857Y-70778666D01*
X138977714Y-70778666D01*
X139072952Y-70826285D01*
X139120571Y-70873904D01*
X139168190Y-70969142D01*
X139168190Y-71350095D01*
X138977714Y-69921523D02*
X139644381Y-69921523D01*
X138596762Y-70159619D02*
X139311048Y-70397714D01*
X139311048Y-69778666D01*
X146756381Y-68746666D02*
X146280190Y-69080000D01*
X146756381Y-69318095D02*
X145756381Y-69318095D01*
X145756381Y-68937142D01*
X145804000Y-68841904D01*
X145851619Y-68794285D01*
X145946857Y-68746666D01*
X146089714Y-68746666D01*
X146184952Y-68794285D01*
X146232571Y-68841904D01*
X146280190Y-68937142D01*
X146280190Y-69318095D01*
X145756381Y-67841904D02*
X145756381Y-68318095D01*
X146232571Y-68365714D01*
X146184952Y-68318095D01*
X146137333Y-68222857D01*
X146137333Y-67984761D01*
X146184952Y-67889523D01*
X146232571Y-67841904D01*
X146327810Y-67794285D01*
X146565905Y-67794285D01*
X146661143Y-67841904D01*
X146708762Y-67889523D01*
X146756381Y-67984761D01*
X146756381Y-68222857D01*
X146708762Y-68318095D01*
X146661143Y-68365714D01*
X116353334Y-69922381D02*
X116020000Y-69446190D01*
X115781905Y-69922381D02*
X115781905Y-68922381D01*
X116162858Y-68922381D01*
X116258096Y-68970000D01*
X116305715Y-69017619D01*
X116353334Y-69112857D01*
X116353334Y-69255714D01*
X116305715Y-69350952D01*
X116258096Y-69398571D01*
X116162858Y-69446190D01*
X115781905Y-69446190D01*
X117210477Y-68922381D02*
X117020000Y-68922381D01*
X116924762Y-68970000D01*
X116877143Y-69017619D01*
X116781905Y-69160476D01*
X116734286Y-69350952D01*
X116734286Y-69731905D01*
X116781905Y-69827143D01*
X116829524Y-69874762D01*
X116924762Y-69922381D01*
X117115239Y-69922381D01*
X117210477Y-69874762D01*
X117258096Y-69827143D01*
X117305715Y-69731905D01*
X117305715Y-69493810D01*
X117258096Y-69398571D01*
X117210477Y-69350952D01*
X117115239Y-69303333D01*
X116924762Y-69303333D01*
X116829524Y-69350952D01*
X116781905Y-69398571D01*
X116734286Y-69493810D01*
X68093334Y-80082381D02*
X67760000Y-79606190D01*
X67521905Y-80082381D02*
X67521905Y-79082381D01*
X67902858Y-79082381D01*
X67998096Y-79130000D01*
X68045715Y-79177619D01*
X68093334Y-79272857D01*
X68093334Y-79415714D01*
X68045715Y-79510952D01*
X67998096Y-79558571D01*
X67902858Y-79606190D01*
X67521905Y-79606190D01*
X68426667Y-79082381D02*
X69093334Y-79082381D01*
X68664762Y-80082381D01*
X68098334Y-84527381D02*
X67765000Y-84051190D01*
X67526905Y-84527381D02*
X67526905Y-83527381D01*
X67907858Y-83527381D01*
X68003096Y-83575000D01*
X68050715Y-83622619D01*
X68098334Y-83717857D01*
X68098334Y-83860714D01*
X68050715Y-83955952D01*
X68003096Y-84003571D01*
X67907858Y-84051190D01*
X67526905Y-84051190D01*
X68669762Y-83955952D02*
X68574524Y-83908333D01*
X68526905Y-83860714D01*
X68479286Y-83765476D01*
X68479286Y-83717857D01*
X68526905Y-83622619D01*
X68574524Y-83575000D01*
X68669762Y-83527381D01*
X68860239Y-83527381D01*
X68955477Y-83575000D01*
X69003096Y-83622619D01*
X69050715Y-83717857D01*
X69050715Y-83765476D01*
X69003096Y-83860714D01*
X68955477Y-83908333D01*
X68860239Y-83955952D01*
X68669762Y-83955952D01*
X68574524Y-84003571D01*
X68526905Y-84051190D01*
X68479286Y-84146429D01*
X68479286Y-84336905D01*
X68526905Y-84432143D01*
X68574524Y-84479762D01*
X68669762Y-84527381D01*
X68860239Y-84527381D01*
X68955477Y-84479762D01*
X69003096Y-84432143D01*
X69050715Y-84336905D01*
X69050715Y-84146429D01*
X69003096Y-84051190D01*
X68955477Y-84003571D01*
X68860239Y-83955952D01*
X68093334Y-88972381D02*
X67760000Y-88496190D01*
X67521905Y-88972381D02*
X67521905Y-87972381D01*
X67902858Y-87972381D01*
X67998096Y-88020000D01*
X68045715Y-88067619D01*
X68093334Y-88162857D01*
X68093334Y-88305714D01*
X68045715Y-88400952D01*
X67998096Y-88448571D01*
X67902858Y-88496190D01*
X67521905Y-88496190D01*
X68569524Y-88972381D02*
X68760000Y-88972381D01*
X68855239Y-88924762D01*
X68902858Y-88877143D01*
X68998096Y-88734286D01*
X69045715Y-88543810D01*
X69045715Y-88162857D01*
X68998096Y-88067619D01*
X68950477Y-88020000D01*
X68855239Y-87972381D01*
X68664762Y-87972381D01*
X68569524Y-88020000D01*
X68521905Y-88067619D01*
X68474286Y-88162857D01*
X68474286Y-88400952D01*
X68521905Y-88496190D01*
X68569524Y-88543810D01*
X68664762Y-88591429D01*
X68855239Y-88591429D01*
X68950477Y-88543810D01*
X68998096Y-88496190D01*
X69045715Y-88400952D01*
X65336143Y-130501381D02*
X65002809Y-130025190D01*
X64764714Y-130501381D02*
X64764714Y-129501381D01*
X65145667Y-129501381D01*
X65240905Y-129549000D01*
X65288524Y-129596619D01*
X65336143Y-129691857D01*
X65336143Y-129834714D01*
X65288524Y-129929952D01*
X65240905Y-129977571D01*
X65145667Y-130025190D01*
X64764714Y-130025190D01*
X66288524Y-130501381D02*
X65717095Y-130501381D01*
X66002809Y-130501381D02*
X66002809Y-129501381D01*
X65907571Y-129644238D01*
X65812333Y-129739476D01*
X65717095Y-129787095D01*
X66907571Y-129501381D02*
X67002810Y-129501381D01*
X67098048Y-129549000D01*
X67145667Y-129596619D01*
X67193286Y-129691857D01*
X67240905Y-129882333D01*
X67240905Y-130120429D01*
X67193286Y-130310905D01*
X67145667Y-130406143D01*
X67098048Y-130453762D01*
X67002810Y-130501381D01*
X66907571Y-130501381D01*
X66812333Y-130453762D01*
X66764714Y-130406143D01*
X66717095Y-130310905D01*
X66669476Y-130120429D01*
X66669476Y-129882333D01*
X66717095Y-129691857D01*
X66764714Y-129596619D01*
X66812333Y-129549000D01*
X66907571Y-129501381D01*
X86540143Y-130501381D02*
X86206809Y-130025190D01*
X85968714Y-130501381D02*
X85968714Y-129501381D01*
X86349667Y-129501381D01*
X86444905Y-129549000D01*
X86492524Y-129596619D01*
X86540143Y-129691857D01*
X86540143Y-129834714D01*
X86492524Y-129929952D01*
X86444905Y-129977571D01*
X86349667Y-130025190D01*
X85968714Y-130025190D01*
X87492524Y-130501381D02*
X86921095Y-130501381D01*
X87206809Y-130501381D02*
X87206809Y-129501381D01*
X87111571Y-129644238D01*
X87016333Y-129739476D01*
X86921095Y-129787095D01*
X87873476Y-129596619D02*
X87921095Y-129549000D01*
X88016333Y-129501381D01*
X88254429Y-129501381D01*
X88349667Y-129549000D01*
X88397286Y-129596619D01*
X88444905Y-129691857D01*
X88444905Y-129787095D01*
X88397286Y-129929952D01*
X87825857Y-130501381D01*
X88444905Y-130501381D01*
X94668143Y-130501381D02*
X94334809Y-130025190D01*
X94096714Y-130501381D02*
X94096714Y-129501381D01*
X94477667Y-129501381D01*
X94572905Y-129549000D01*
X94620524Y-129596619D01*
X94668143Y-129691857D01*
X94668143Y-129834714D01*
X94620524Y-129929952D01*
X94572905Y-129977571D01*
X94477667Y-130025190D01*
X94096714Y-130025190D01*
X95620524Y-130501381D02*
X95049095Y-130501381D01*
X95334809Y-130501381D02*
X95334809Y-129501381D01*
X95239571Y-129644238D01*
X95144333Y-129739476D01*
X95049095Y-129787095D01*
X95953857Y-129501381D02*
X96572905Y-129501381D01*
X96239571Y-129882333D01*
X96382429Y-129882333D01*
X96477667Y-129929952D01*
X96525286Y-129977571D01*
X96572905Y-130072810D01*
X96572905Y-130310905D01*
X96525286Y-130406143D01*
X96477667Y-130453762D01*
X96382429Y-130501381D01*
X96096714Y-130501381D01*
X96001476Y-130453762D01*
X95953857Y-130406143D01*
X117528143Y-130501381D02*
X117194809Y-130025190D01*
X116956714Y-130501381D02*
X116956714Y-129501381D01*
X117337667Y-129501381D01*
X117432905Y-129549000D01*
X117480524Y-129596619D01*
X117528143Y-129691857D01*
X117528143Y-129834714D01*
X117480524Y-129929952D01*
X117432905Y-129977571D01*
X117337667Y-130025190D01*
X116956714Y-130025190D01*
X118480524Y-130501381D02*
X117909095Y-130501381D01*
X118194809Y-130501381D02*
X118194809Y-129501381D01*
X118099571Y-129644238D01*
X118004333Y-129739476D01*
X117909095Y-129787095D01*
X119337667Y-129834714D02*
X119337667Y-130501381D01*
X119099571Y-129453762D02*
X118861476Y-130168048D01*
X119480524Y-130168048D01*
X106352143Y-130501381D02*
X106018809Y-130025190D01*
X105780714Y-130501381D02*
X105780714Y-129501381D01*
X106161667Y-129501381D01*
X106256905Y-129549000D01*
X106304524Y-129596619D01*
X106352143Y-129691857D01*
X106352143Y-129834714D01*
X106304524Y-129929952D01*
X106256905Y-129977571D01*
X106161667Y-130025190D01*
X105780714Y-130025190D01*
X107304524Y-130501381D02*
X106733095Y-130501381D01*
X107018809Y-130501381D02*
X107018809Y-129501381D01*
X106923571Y-129644238D01*
X106828333Y-129739476D01*
X106733095Y-129787095D01*
X108209286Y-129501381D02*
X107733095Y-129501381D01*
X107685476Y-129977571D01*
X107733095Y-129929952D01*
X107828333Y-129882333D01*
X108066429Y-129882333D01*
X108161667Y-129929952D01*
X108209286Y-129977571D01*
X108256905Y-130072810D01*
X108256905Y-130310905D01*
X108209286Y-130406143D01*
X108161667Y-130453762D01*
X108066429Y-130501381D01*
X107828333Y-130501381D01*
X107733095Y-130453762D01*
X107685476Y-130406143D01*
X198952381Y-94937857D02*
X198476190Y-95271191D01*
X198952381Y-95509286D02*
X197952381Y-95509286D01*
X197952381Y-95128333D01*
X198000000Y-95033095D01*
X198047619Y-94985476D01*
X198142857Y-94937857D01*
X198285714Y-94937857D01*
X198380952Y-94985476D01*
X198428571Y-95033095D01*
X198476190Y-95128333D01*
X198476190Y-95509286D01*
X198952381Y-93985476D02*
X198952381Y-94556905D01*
X198952381Y-94271191D02*
X197952381Y-94271191D01*
X198095238Y-94366429D01*
X198190476Y-94461667D01*
X198238095Y-94556905D01*
X197952381Y-93128333D02*
X197952381Y-93318810D01*
X198000000Y-93414048D01*
X198047619Y-93461667D01*
X198190476Y-93556905D01*
X198380952Y-93604524D01*
X198761905Y-93604524D01*
X198857143Y-93556905D01*
X198904762Y-93509286D01*
X198952381Y-93414048D01*
X198952381Y-93223571D01*
X198904762Y-93128333D01*
X198857143Y-93080714D01*
X198761905Y-93033095D01*
X198523810Y-93033095D01*
X198428571Y-93080714D01*
X198380952Y-93128333D01*
X198333333Y-93223571D01*
X198333333Y-93414048D01*
X198380952Y-93509286D01*
X198428571Y-93556905D01*
X198523810Y-93604524D01*
X195553035Y-94942219D02*
X195076844Y-95275553D01*
X195553035Y-95513648D02*
X194553035Y-95513648D01*
X194553035Y-95132695D01*
X194600654Y-95037457D01*
X194648273Y-94989838D01*
X194743511Y-94942219D01*
X194886368Y-94942219D01*
X194981606Y-94989838D01*
X195029225Y-95037457D01*
X195076844Y-95132695D01*
X195076844Y-95513648D01*
X195553035Y-93989838D02*
X195553035Y-94561267D01*
X195553035Y-94275553D02*
X194553035Y-94275553D01*
X194695892Y-94370791D01*
X194791130Y-94466029D01*
X194838749Y-94561267D01*
X194553035Y-93656505D02*
X194553035Y-92989838D01*
X195553035Y-93418410D01*
X99130381Y-106240857D02*
X98654190Y-106574191D01*
X99130381Y-106812286D02*
X98130381Y-106812286D01*
X98130381Y-106431333D01*
X98178000Y-106336095D01*
X98225619Y-106288476D01*
X98320857Y-106240857D01*
X98463714Y-106240857D01*
X98558952Y-106288476D01*
X98606571Y-106336095D01*
X98654190Y-106431333D01*
X98654190Y-106812286D01*
X99130381Y-105288476D02*
X99130381Y-105859905D01*
X99130381Y-105574191D02*
X98130381Y-105574191D01*
X98273238Y-105669429D01*
X98368476Y-105764667D01*
X98416095Y-105859905D01*
X98558952Y-104717048D02*
X98511333Y-104812286D01*
X98463714Y-104859905D01*
X98368476Y-104907524D01*
X98320857Y-104907524D01*
X98225619Y-104859905D01*
X98178000Y-104812286D01*
X98130381Y-104717048D01*
X98130381Y-104526571D01*
X98178000Y-104431333D01*
X98225619Y-104383714D01*
X98320857Y-104336095D01*
X98368476Y-104336095D01*
X98463714Y-104383714D01*
X98511333Y-104431333D01*
X98558952Y-104526571D01*
X98558952Y-104717048D01*
X98606571Y-104812286D01*
X98654190Y-104859905D01*
X98749429Y-104907524D01*
X98939905Y-104907524D01*
X99035143Y-104859905D01*
X99082762Y-104812286D01*
X99130381Y-104717048D01*
X99130381Y-104526571D01*
X99082762Y-104431333D01*
X99035143Y-104383714D01*
X98939905Y-104336095D01*
X98749429Y-104336095D01*
X98654190Y-104383714D01*
X98606571Y-104431333D01*
X98558952Y-104526571D01*
X71827381Y-105097857D02*
X71351190Y-105431191D01*
X71827381Y-105669286D02*
X70827381Y-105669286D01*
X70827381Y-105288333D01*
X70875000Y-105193095D01*
X70922619Y-105145476D01*
X71017857Y-105097857D01*
X71160714Y-105097857D01*
X71255952Y-105145476D01*
X71303571Y-105193095D01*
X71351190Y-105288333D01*
X71351190Y-105669286D01*
X71827381Y-104145476D02*
X71827381Y-104716905D01*
X71827381Y-104431191D02*
X70827381Y-104431191D01*
X70970238Y-104526429D01*
X71065476Y-104621667D01*
X71113095Y-104716905D01*
X71827381Y-103669286D02*
X71827381Y-103478810D01*
X71779762Y-103383571D01*
X71732143Y-103335952D01*
X71589286Y-103240714D01*
X71398810Y-103193095D01*
X71017857Y-103193095D01*
X70922619Y-103240714D01*
X70875000Y-103288333D01*
X70827381Y-103383571D01*
X70827381Y-103574048D01*
X70875000Y-103669286D01*
X70922619Y-103716905D01*
X71017857Y-103764524D01*
X71255952Y-103764524D01*
X71351190Y-103716905D01*
X71398810Y-103669286D01*
X71446429Y-103574048D01*
X71446429Y-103383571D01*
X71398810Y-103288333D01*
X71351190Y-103240714D01*
X71255952Y-103193095D01*
X68652381Y-105097857D02*
X68176190Y-105431191D01*
X68652381Y-105669286D02*
X67652381Y-105669286D01*
X67652381Y-105288333D01*
X67700000Y-105193095D01*
X67747619Y-105145476D01*
X67842857Y-105097857D01*
X67985714Y-105097857D01*
X68080952Y-105145476D01*
X68128571Y-105193095D01*
X68176190Y-105288333D01*
X68176190Y-105669286D01*
X67747619Y-104716905D02*
X67700000Y-104669286D01*
X67652381Y-104574048D01*
X67652381Y-104335952D01*
X67700000Y-104240714D01*
X67747619Y-104193095D01*
X67842857Y-104145476D01*
X67938095Y-104145476D01*
X68080952Y-104193095D01*
X68652381Y-104764524D01*
X68652381Y-104145476D01*
X67652381Y-103526429D02*
X67652381Y-103431190D01*
X67700000Y-103335952D01*
X67747619Y-103288333D01*
X67842857Y-103240714D01*
X68033333Y-103193095D01*
X68271429Y-103193095D01*
X68461905Y-103240714D01*
X68557143Y-103288333D01*
X68604762Y-103335952D01*
X68652381Y-103431190D01*
X68652381Y-103526429D01*
X68604762Y-103621667D01*
X68557143Y-103669286D01*
X68461905Y-103716905D01*
X68271429Y-103764524D01*
X68033333Y-103764524D01*
X67842857Y-103716905D01*
X67747619Y-103669286D01*
X67700000Y-103621667D01*
X67652381Y-103526429D01*
X82748381Y-110878857D02*
X82272190Y-111212191D01*
X82748381Y-111450286D02*
X81748381Y-111450286D01*
X81748381Y-111069333D01*
X81796000Y-110974095D01*
X81843619Y-110926476D01*
X81938857Y-110878857D01*
X82081714Y-110878857D01*
X82176952Y-110926476D01*
X82224571Y-110974095D01*
X82272190Y-111069333D01*
X82272190Y-111450286D01*
X81843619Y-110497905D02*
X81796000Y-110450286D01*
X81748381Y-110355048D01*
X81748381Y-110116952D01*
X81796000Y-110021714D01*
X81843619Y-109974095D01*
X81938857Y-109926476D01*
X82034095Y-109926476D01*
X82176952Y-109974095D01*
X82748381Y-110545524D01*
X82748381Y-109926476D01*
X82748381Y-108974095D02*
X82748381Y-109545524D01*
X82748381Y-109259810D02*
X81748381Y-109259810D01*
X81891238Y-109355048D01*
X81986476Y-109450286D01*
X82034095Y-109545524D01*
X76526381Y-109288857D02*
X76050190Y-109622191D01*
X76526381Y-109860286D02*
X75526381Y-109860286D01*
X75526381Y-109479333D01*
X75574000Y-109384095D01*
X75621619Y-109336476D01*
X75716857Y-109288857D01*
X75859714Y-109288857D01*
X75954952Y-109336476D01*
X76002571Y-109384095D01*
X76050190Y-109479333D01*
X76050190Y-109860286D01*
X75621619Y-108907905D02*
X75574000Y-108860286D01*
X75526381Y-108765048D01*
X75526381Y-108526952D01*
X75574000Y-108431714D01*
X75621619Y-108384095D01*
X75716857Y-108336476D01*
X75812095Y-108336476D01*
X75954952Y-108384095D01*
X76526381Y-108955524D01*
X76526381Y-108336476D01*
X75621619Y-107955524D02*
X75574000Y-107907905D01*
X75526381Y-107812667D01*
X75526381Y-107574571D01*
X75574000Y-107479333D01*
X75621619Y-107431714D01*
X75716857Y-107384095D01*
X75812095Y-107384095D01*
X75954952Y-107431714D01*
X76526381Y-108003143D01*
X76526381Y-107384095D01*
X147627143Y-113737381D02*
X147293809Y-113261190D01*
X147055714Y-113737381D02*
X147055714Y-112737381D01*
X147436667Y-112737381D01*
X147531905Y-112785000D01*
X147579524Y-112832619D01*
X147627143Y-112927857D01*
X147627143Y-113070714D01*
X147579524Y-113165952D01*
X147531905Y-113213571D01*
X147436667Y-113261190D01*
X147055714Y-113261190D01*
X148008095Y-112832619D02*
X148055714Y-112785000D01*
X148150952Y-112737381D01*
X148389048Y-112737381D01*
X148484286Y-112785000D01*
X148531905Y-112832619D01*
X148579524Y-112927857D01*
X148579524Y-113023095D01*
X148531905Y-113165952D01*
X147960476Y-113737381D01*
X148579524Y-113737381D01*
X148912857Y-112737381D02*
X149531905Y-112737381D01*
X149198571Y-113118333D01*
X149341429Y-113118333D01*
X149436667Y-113165952D01*
X149484286Y-113213571D01*
X149531905Y-113308810D01*
X149531905Y-113546905D01*
X149484286Y-113642143D01*
X149436667Y-113689762D01*
X149341429Y-113737381D01*
X149055714Y-113737381D01*
X148960476Y-113689762D01*
X148912857Y-113642143D01*
X56840381Y-109862857D02*
X56364190Y-110196191D01*
X56840381Y-110434286D02*
X55840381Y-110434286D01*
X55840381Y-110053333D01*
X55888000Y-109958095D01*
X55935619Y-109910476D01*
X56030857Y-109862857D01*
X56173714Y-109862857D01*
X56268952Y-109910476D01*
X56316571Y-109958095D01*
X56364190Y-110053333D01*
X56364190Y-110434286D01*
X55935619Y-109481905D02*
X55888000Y-109434286D01*
X55840381Y-109339048D01*
X55840381Y-109100952D01*
X55888000Y-109005714D01*
X55935619Y-108958095D01*
X56030857Y-108910476D01*
X56126095Y-108910476D01*
X56268952Y-108958095D01*
X56840381Y-109529524D01*
X56840381Y-108910476D01*
X56173714Y-108053333D02*
X56840381Y-108053333D01*
X55792762Y-108291429D02*
X56507048Y-108529524D01*
X56507048Y-107910476D01*
X58872381Y-110370857D02*
X58396190Y-110704191D01*
X58872381Y-110942286D02*
X57872381Y-110942286D01*
X57872381Y-110561333D01*
X57920000Y-110466095D01*
X57967619Y-110418476D01*
X58062857Y-110370857D01*
X58205714Y-110370857D01*
X58300952Y-110418476D01*
X58348571Y-110466095D01*
X58396190Y-110561333D01*
X58396190Y-110942286D01*
X57967619Y-109989905D02*
X57920000Y-109942286D01*
X57872381Y-109847048D01*
X57872381Y-109608952D01*
X57920000Y-109513714D01*
X57967619Y-109466095D01*
X58062857Y-109418476D01*
X58158095Y-109418476D01*
X58300952Y-109466095D01*
X58872381Y-110037524D01*
X58872381Y-109418476D01*
X57872381Y-108513714D02*
X57872381Y-108989905D01*
X58348571Y-109037524D01*
X58300952Y-108989905D01*
X58253333Y-108894667D01*
X58253333Y-108656571D01*
X58300952Y-108561333D01*
X58348571Y-108513714D01*
X58443810Y-108466095D01*
X58681905Y-108466095D01*
X58777143Y-108513714D01*
X58824762Y-108561333D01*
X58872381Y-108656571D01*
X58872381Y-108894667D01*
X58824762Y-108989905D01*
X58777143Y-109037524D01*
X68892143Y-126437381D02*
X68558809Y-125961190D01*
X68320714Y-126437381D02*
X68320714Y-125437381D01*
X68701667Y-125437381D01*
X68796905Y-125485000D01*
X68844524Y-125532619D01*
X68892143Y-125627857D01*
X68892143Y-125770714D01*
X68844524Y-125865952D01*
X68796905Y-125913571D01*
X68701667Y-125961190D01*
X68320714Y-125961190D01*
X69273095Y-125532619D02*
X69320714Y-125485000D01*
X69415952Y-125437381D01*
X69654048Y-125437381D01*
X69749286Y-125485000D01*
X69796905Y-125532619D01*
X69844524Y-125627857D01*
X69844524Y-125723095D01*
X69796905Y-125865952D01*
X69225476Y-126437381D01*
X69844524Y-126437381D01*
X70701667Y-125437381D02*
X70511190Y-125437381D01*
X70415952Y-125485000D01*
X70368333Y-125532619D01*
X70273095Y-125675476D01*
X70225476Y-125865952D01*
X70225476Y-126246905D01*
X70273095Y-126342143D01*
X70320714Y-126389762D01*
X70415952Y-126437381D01*
X70606429Y-126437381D01*
X70701667Y-126389762D01*
X70749286Y-126342143D01*
X70796905Y-126246905D01*
X70796905Y-126008810D01*
X70749286Y-125913571D01*
X70701667Y-125865952D01*
X70606429Y-125818333D01*
X70415952Y-125818333D01*
X70320714Y-125865952D01*
X70273095Y-125913571D01*
X70225476Y-126008810D01*
X180647143Y-117800381D02*
X180313809Y-117324190D01*
X180075714Y-117800381D02*
X180075714Y-116800381D01*
X180456667Y-116800381D01*
X180551905Y-116848000D01*
X180599524Y-116895619D01*
X180647143Y-116990857D01*
X180647143Y-117133714D01*
X180599524Y-117228952D01*
X180551905Y-117276571D01*
X180456667Y-117324190D01*
X180075714Y-117324190D01*
X181028095Y-116895619D02*
X181075714Y-116848000D01*
X181170952Y-116800381D01*
X181409048Y-116800381D01*
X181504286Y-116848000D01*
X181551905Y-116895619D01*
X181599524Y-116990857D01*
X181599524Y-117086095D01*
X181551905Y-117228952D01*
X180980476Y-117800381D01*
X181599524Y-117800381D01*
X181932857Y-116800381D02*
X182599524Y-116800381D01*
X182170952Y-117800381D01*
X65139381Y-128230238D02*
X64663190Y-128563572D01*
X65139381Y-128801667D02*
X64139381Y-128801667D01*
X64139381Y-128420714D01*
X64187000Y-128325476D01*
X64234619Y-128277857D01*
X64329857Y-128230238D01*
X64472714Y-128230238D01*
X64567952Y-128277857D01*
X64615571Y-128325476D01*
X64663190Y-128420714D01*
X64663190Y-128801667D01*
X64139381Y-127944524D02*
X65139381Y-127611191D01*
X64139381Y-127277857D01*
X65139381Y-126420714D02*
X65139381Y-126992143D01*
X65139381Y-126706429D02*
X64139381Y-126706429D01*
X64282238Y-126801667D01*
X64377476Y-126896905D01*
X64425095Y-126992143D01*
X194349762Y-103532381D02*
X194016428Y-103056190D01*
X193778333Y-103532381D02*
X193778333Y-102532381D01*
X194159286Y-102532381D01*
X194254524Y-102580000D01*
X194302143Y-102627619D01*
X194349762Y-102722857D01*
X194349762Y-102865714D01*
X194302143Y-102960952D01*
X194254524Y-103008571D01*
X194159286Y-103056190D01*
X193778333Y-103056190D01*
X194635476Y-102532381D02*
X194968809Y-103532381D01*
X195302143Y-102532381D01*
X195587857Y-102627619D02*
X195635476Y-102580000D01*
X195730714Y-102532381D01*
X195968810Y-102532381D01*
X196064048Y-102580000D01*
X196111667Y-102627619D01*
X196159286Y-102722857D01*
X196159286Y-102818095D01*
X196111667Y-102960952D01*
X195540238Y-103532381D01*
X196159286Y-103532381D01*
X220115000Y-99039762D02*
X220257857Y-99087381D01*
X220495953Y-99087381D01*
X220591191Y-99039762D01*
X220638810Y-98992143D01*
X220686429Y-98896905D01*
X220686429Y-98801667D01*
X220638810Y-98706429D01*
X220591191Y-98658810D01*
X220495953Y-98611190D01*
X220305476Y-98563571D01*
X220210238Y-98515952D01*
X220162619Y-98468333D01*
X220115000Y-98373095D01*
X220115000Y-98277857D01*
X220162619Y-98182619D01*
X220210238Y-98135000D01*
X220305476Y-98087381D01*
X220543572Y-98087381D01*
X220686429Y-98135000D01*
X221115000Y-99087381D02*
X221115000Y-98087381D01*
X221495953Y-98087381D01*
X221591191Y-98135000D01*
X221638810Y-98182619D01*
X221686429Y-98277857D01*
X221686429Y-98420714D01*
X221638810Y-98515952D01*
X221591191Y-98563571D01*
X221495953Y-98611190D01*
X221115000Y-98611190D01*
X222115000Y-99087381D02*
X222115000Y-98087381D01*
X222543571Y-98182619D02*
X222591190Y-98135000D01*
X222686428Y-98087381D01*
X222924524Y-98087381D01*
X223019762Y-98135000D01*
X223067381Y-98182619D01*
X223115000Y-98277857D01*
X223115000Y-98373095D01*
X223067381Y-98515952D01*
X222495952Y-99087381D01*
X223115000Y-99087381D01*
X225830000Y-98829762D02*
X225972857Y-98877381D01*
X226210953Y-98877381D01*
X226306191Y-98829762D01*
X226353810Y-98782143D01*
X226401429Y-98686905D01*
X226401429Y-98591667D01*
X226353810Y-98496429D01*
X226306191Y-98448810D01*
X226210953Y-98401190D01*
X226020476Y-98353571D01*
X225925238Y-98305952D01*
X225877619Y-98258333D01*
X225830000Y-98163095D01*
X225830000Y-98067857D01*
X225877619Y-97972619D01*
X225925238Y-97925000D01*
X226020476Y-97877381D01*
X226258572Y-97877381D01*
X226401429Y-97925000D01*
X226830000Y-98877381D02*
X226830000Y-97877381D01*
X227210953Y-97877381D01*
X227306191Y-97925000D01*
X227353810Y-97972619D01*
X227401429Y-98067857D01*
X227401429Y-98210714D01*
X227353810Y-98305952D01*
X227306191Y-98353571D01*
X227210953Y-98401190D01*
X226830000Y-98401190D01*
X227830000Y-98877381D02*
X227830000Y-97877381D01*
X228210952Y-97877381D02*
X228830000Y-97877381D01*
X228496666Y-98258333D01*
X228639524Y-98258333D01*
X228734762Y-98305952D01*
X228782381Y-98353571D01*
X228830000Y-98448810D01*
X228830000Y-98686905D01*
X228782381Y-98782143D01*
X228734762Y-98829762D01*
X228639524Y-98877381D01*
X228353809Y-98877381D01*
X228258571Y-98829762D01*
X228210952Y-98782143D01*
X83326667Y-87359762D02*
X83469524Y-87407381D01*
X83707620Y-87407381D01*
X83802858Y-87359762D01*
X83850477Y-87312143D01*
X83898096Y-87216905D01*
X83898096Y-87121667D01*
X83850477Y-87026429D01*
X83802858Y-86978810D01*
X83707620Y-86931190D01*
X83517143Y-86883571D01*
X83421905Y-86835952D01*
X83374286Y-86788333D01*
X83326667Y-86693095D01*
X83326667Y-86597857D01*
X83374286Y-86502619D01*
X83421905Y-86455000D01*
X83517143Y-86407381D01*
X83755239Y-86407381D01*
X83898096Y-86455000D01*
X84231429Y-86407381D02*
X84469524Y-87407381D01*
X84660001Y-86693095D01*
X84850477Y-87407381D01*
X85088572Y-86407381D01*
X85993334Y-87407381D02*
X85421905Y-87407381D01*
X85707619Y-87407381D02*
X85707619Y-86407381D01*
X85612381Y-86550238D01*
X85517143Y-86645476D01*
X85421905Y-86693095D01*
X130913571Y-143343381D02*
X131485000Y-143343381D01*
X131199285Y-144343381D02*
X131199285Y-143343381D01*
X131818333Y-144343381D02*
X131818333Y-143343381D01*
X132246905Y-144343381D02*
X132246905Y-143819571D01*
X132199286Y-143724333D01*
X132104048Y-143676714D01*
X131961190Y-143676714D01*
X131865952Y-143724333D01*
X131818333Y-143771952D01*
X133104048Y-144295762D02*
X133008810Y-144343381D01*
X132818333Y-144343381D01*
X132723095Y-144295762D01*
X132675476Y-144200524D01*
X132675476Y-143819571D01*
X132723095Y-143724333D01*
X132818333Y-143676714D01*
X133008810Y-143676714D01*
X133104048Y-143724333D01*
X133151667Y-143819571D01*
X133151667Y-143914810D01*
X132675476Y-144010048D01*
X133580238Y-144343381D02*
X133580238Y-143676714D01*
X133580238Y-143867190D02*
X133627857Y-143771952D01*
X133675476Y-143724333D01*
X133770714Y-143676714D01*
X133865953Y-143676714D01*
X134199286Y-144343381D02*
X134199286Y-143676714D01*
X134199286Y-143771952D02*
X134246905Y-143724333D01*
X134342143Y-143676714D01*
X134485001Y-143676714D01*
X134580239Y-143724333D01*
X134627858Y-143819571D01*
X134627858Y-144343381D01*
X134627858Y-143819571D02*
X134675477Y-143724333D01*
X134770715Y-143676714D01*
X134913572Y-143676714D01*
X135008810Y-143724333D01*
X135056429Y-143819571D01*
X135056429Y-144343381D01*
X135675476Y-144343381D02*
X135580238Y-144295762D01*
X135532619Y-144248143D01*
X135485000Y-144152905D01*
X135485000Y-143867190D01*
X135532619Y-143771952D01*
X135580238Y-143724333D01*
X135675476Y-143676714D01*
X135818334Y-143676714D01*
X135913572Y-143724333D01*
X135961191Y-143771952D01*
X136008810Y-143867190D01*
X136008810Y-144152905D01*
X135961191Y-144248143D01*
X135913572Y-144295762D01*
X135818334Y-144343381D01*
X135675476Y-144343381D01*
X136961191Y-144343381D02*
X136389762Y-144343381D01*
X136675476Y-144343381D02*
X136675476Y-143343381D01*
X136580238Y-143486238D01*
X136485000Y-143581476D01*
X136389762Y-143629095D01*
X141708571Y-143343381D02*
X142280000Y-143343381D01*
X141994285Y-144343381D02*
X141994285Y-143343381D01*
X142613333Y-144343381D02*
X142613333Y-143343381D01*
X143041905Y-144343381D02*
X143041905Y-143819571D01*
X142994286Y-143724333D01*
X142899048Y-143676714D01*
X142756190Y-143676714D01*
X142660952Y-143724333D01*
X142613333Y-143771952D01*
X143899048Y-144295762D02*
X143803810Y-144343381D01*
X143613333Y-144343381D01*
X143518095Y-144295762D01*
X143470476Y-144200524D01*
X143470476Y-143819571D01*
X143518095Y-143724333D01*
X143613333Y-143676714D01*
X143803810Y-143676714D01*
X143899048Y-143724333D01*
X143946667Y-143819571D01*
X143946667Y-143914810D01*
X143470476Y-144010048D01*
X144375238Y-144343381D02*
X144375238Y-143676714D01*
X144375238Y-143867190D02*
X144422857Y-143771952D01*
X144470476Y-143724333D01*
X144565714Y-143676714D01*
X144660953Y-143676714D01*
X144994286Y-144343381D02*
X144994286Y-143676714D01*
X144994286Y-143771952D02*
X145041905Y-143724333D01*
X145137143Y-143676714D01*
X145280001Y-143676714D01*
X145375239Y-143724333D01*
X145422858Y-143819571D01*
X145422858Y-144343381D01*
X145422858Y-143819571D02*
X145470477Y-143724333D01*
X145565715Y-143676714D01*
X145708572Y-143676714D01*
X145803810Y-143724333D01*
X145851429Y-143819571D01*
X145851429Y-144343381D01*
X146470476Y-144343381D02*
X146375238Y-144295762D01*
X146327619Y-144248143D01*
X146280000Y-144152905D01*
X146280000Y-143867190D01*
X146327619Y-143771952D01*
X146375238Y-143724333D01*
X146470476Y-143676714D01*
X146613334Y-143676714D01*
X146708572Y-143724333D01*
X146756191Y-143771952D01*
X146803810Y-143867190D01*
X146803810Y-144152905D01*
X146756191Y-144248143D01*
X146708572Y-144295762D01*
X146613334Y-144343381D01*
X146470476Y-144343381D01*
X147184762Y-143438619D02*
X147232381Y-143391000D01*
X147327619Y-143343381D01*
X147565715Y-143343381D01*
X147660953Y-143391000D01*
X147708572Y-143438619D01*
X147756191Y-143533857D01*
X147756191Y-143629095D01*
X147708572Y-143771952D01*
X147137143Y-144343381D01*
X147756191Y-144343381D01*
X152503571Y-143343381D02*
X153075000Y-143343381D01*
X152789285Y-144343381D02*
X152789285Y-143343381D01*
X153408333Y-144343381D02*
X153408333Y-143343381D01*
X153836905Y-144343381D02*
X153836905Y-143819571D01*
X153789286Y-143724333D01*
X153694048Y-143676714D01*
X153551190Y-143676714D01*
X153455952Y-143724333D01*
X153408333Y-143771952D01*
X154694048Y-144295762D02*
X154598810Y-144343381D01*
X154408333Y-144343381D01*
X154313095Y-144295762D01*
X154265476Y-144200524D01*
X154265476Y-143819571D01*
X154313095Y-143724333D01*
X154408333Y-143676714D01*
X154598810Y-143676714D01*
X154694048Y-143724333D01*
X154741667Y-143819571D01*
X154741667Y-143914810D01*
X154265476Y-144010048D01*
X155170238Y-144343381D02*
X155170238Y-143676714D01*
X155170238Y-143867190D02*
X155217857Y-143771952D01*
X155265476Y-143724333D01*
X155360714Y-143676714D01*
X155455953Y-143676714D01*
X155789286Y-144343381D02*
X155789286Y-143676714D01*
X155789286Y-143771952D02*
X155836905Y-143724333D01*
X155932143Y-143676714D01*
X156075001Y-143676714D01*
X156170239Y-143724333D01*
X156217858Y-143819571D01*
X156217858Y-144343381D01*
X156217858Y-143819571D02*
X156265477Y-143724333D01*
X156360715Y-143676714D01*
X156503572Y-143676714D01*
X156598810Y-143724333D01*
X156646429Y-143819571D01*
X156646429Y-144343381D01*
X157265476Y-144343381D02*
X157170238Y-144295762D01*
X157122619Y-144248143D01*
X157075000Y-144152905D01*
X157075000Y-143867190D01*
X157122619Y-143771952D01*
X157170238Y-143724333D01*
X157265476Y-143676714D01*
X157408334Y-143676714D01*
X157503572Y-143724333D01*
X157551191Y-143771952D01*
X157598810Y-143867190D01*
X157598810Y-144152905D01*
X157551191Y-144248143D01*
X157503572Y-144295762D01*
X157408334Y-144343381D01*
X157265476Y-144343381D01*
X157932143Y-143343381D02*
X158551191Y-143343381D01*
X158217857Y-143724333D01*
X158360715Y-143724333D01*
X158455953Y-143771952D01*
X158503572Y-143819571D01*
X158551191Y-143914810D01*
X158551191Y-144152905D01*
X158503572Y-144248143D01*
X158455953Y-144295762D01*
X158360715Y-144343381D01*
X158075000Y-144343381D01*
X157979762Y-144295762D01*
X157932143Y-144248143D01*
X163298571Y-143343381D02*
X163870000Y-143343381D01*
X163584285Y-144343381D02*
X163584285Y-143343381D01*
X164203333Y-144343381D02*
X164203333Y-143343381D01*
X164631905Y-144343381D02*
X164631905Y-143819571D01*
X164584286Y-143724333D01*
X164489048Y-143676714D01*
X164346190Y-143676714D01*
X164250952Y-143724333D01*
X164203333Y-143771952D01*
X165489048Y-144295762D02*
X165393810Y-144343381D01*
X165203333Y-144343381D01*
X165108095Y-144295762D01*
X165060476Y-144200524D01*
X165060476Y-143819571D01*
X165108095Y-143724333D01*
X165203333Y-143676714D01*
X165393810Y-143676714D01*
X165489048Y-143724333D01*
X165536667Y-143819571D01*
X165536667Y-143914810D01*
X165060476Y-144010048D01*
X165965238Y-144343381D02*
X165965238Y-143676714D01*
X165965238Y-143867190D02*
X166012857Y-143771952D01*
X166060476Y-143724333D01*
X166155714Y-143676714D01*
X166250953Y-143676714D01*
X166584286Y-144343381D02*
X166584286Y-143676714D01*
X166584286Y-143771952D02*
X166631905Y-143724333D01*
X166727143Y-143676714D01*
X166870001Y-143676714D01*
X166965239Y-143724333D01*
X167012858Y-143819571D01*
X167012858Y-144343381D01*
X167012858Y-143819571D02*
X167060477Y-143724333D01*
X167155715Y-143676714D01*
X167298572Y-143676714D01*
X167393810Y-143724333D01*
X167441429Y-143819571D01*
X167441429Y-144343381D01*
X168060476Y-144343381D02*
X167965238Y-144295762D01*
X167917619Y-144248143D01*
X167870000Y-144152905D01*
X167870000Y-143867190D01*
X167917619Y-143771952D01*
X167965238Y-143724333D01*
X168060476Y-143676714D01*
X168203334Y-143676714D01*
X168298572Y-143724333D01*
X168346191Y-143771952D01*
X168393810Y-143867190D01*
X168393810Y-144152905D01*
X168346191Y-144248143D01*
X168298572Y-144295762D01*
X168203334Y-144343381D01*
X168060476Y-144343381D01*
X169250953Y-143676714D02*
X169250953Y-144343381D01*
X169012857Y-143295762D02*
X168774762Y-144010048D01*
X169393810Y-144010048D01*
X71762569Y-60426507D02*
X71762569Y-61236031D01*
X71810188Y-61331269D01*
X71857807Y-61378888D01*
X71953045Y-61426507D01*
X72143522Y-61426507D01*
X72238760Y-61378888D01*
X72286379Y-61331269D01*
X72333998Y-61236031D01*
X72333998Y-60426507D01*
X72762569Y-60521745D02*
X72810188Y-60474126D01*
X72905426Y-60426507D01*
X73143522Y-60426507D01*
X73238760Y-60474126D01*
X73286379Y-60521745D01*
X73333998Y-60616983D01*
X73333998Y-60712221D01*
X73286379Y-60855078D01*
X72714950Y-61426507D01*
X73333998Y-61426507D01*
X82406381Y-122814905D02*
X83215905Y-122814905D01*
X83311143Y-122767286D01*
X83358762Y-122719667D01*
X83406381Y-122624429D01*
X83406381Y-122433952D01*
X83358762Y-122338714D01*
X83311143Y-122291095D01*
X83215905Y-122243476D01*
X82406381Y-122243476D01*
X82739714Y-121338714D02*
X83406381Y-121338714D01*
X82358762Y-121576810D02*
X83073048Y-121814905D01*
X83073048Y-121195857D01*
X110887381Y-113631905D02*
X111696905Y-113631905D01*
X111792143Y-113584286D01*
X111839762Y-113536667D01*
X111887381Y-113441429D01*
X111887381Y-113250952D01*
X111839762Y-113155714D01*
X111792143Y-113108095D01*
X111696905Y-113060476D01*
X110887381Y-113060476D01*
X110887381Y-112155714D02*
X110887381Y-112346191D01*
X110935000Y-112441429D01*
X110982619Y-112489048D01*
X111125476Y-112584286D01*
X111315952Y-112631905D01*
X111696905Y-112631905D01*
X111792143Y-112584286D01*
X111839762Y-112536667D01*
X111887381Y-112441429D01*
X111887381Y-112250952D01*
X111839762Y-112155714D01*
X111792143Y-112108095D01*
X111696905Y-112060476D01*
X111458810Y-112060476D01*
X111363571Y-112108095D01*
X111315952Y-112155714D01*
X111268333Y-112250952D01*
X111268333Y-112441429D01*
X111315952Y-112536667D01*
X111363571Y-112584286D01*
X111458810Y-112631905D01*
X121047381Y-113631905D02*
X121856905Y-113631905D01*
X121952143Y-113584286D01*
X121999762Y-113536667D01*
X122047381Y-113441429D01*
X122047381Y-113250952D01*
X121999762Y-113155714D01*
X121952143Y-113108095D01*
X121856905Y-113060476D01*
X121047381Y-113060476D01*
X121047381Y-112679524D02*
X121047381Y-112012857D01*
X122047381Y-112441429D01*
X187215219Y-93107381D02*
X187215219Y-93916905D01*
X187262838Y-94012143D01*
X187310457Y-94059762D01*
X187405695Y-94107381D01*
X187596172Y-94107381D01*
X187691410Y-94059762D01*
X187739029Y-94012143D01*
X187786648Y-93916905D01*
X187786648Y-93107381D01*
X188405695Y-93535952D02*
X188310457Y-93488333D01*
X188262838Y-93440714D01*
X188215219Y-93345476D01*
X188215219Y-93297857D01*
X188262838Y-93202619D01*
X188310457Y-93155000D01*
X188405695Y-93107381D01*
X188596172Y-93107381D01*
X188691410Y-93155000D01*
X188739029Y-93202619D01*
X188786648Y-93297857D01*
X188786648Y-93345476D01*
X188739029Y-93440714D01*
X188691410Y-93488333D01*
X188596172Y-93535952D01*
X188405695Y-93535952D01*
X188310457Y-93583571D01*
X188262838Y-93631190D01*
X188215219Y-93726429D01*
X188215219Y-93916905D01*
X188262838Y-94012143D01*
X188310457Y-94059762D01*
X188405695Y-94107381D01*
X188596172Y-94107381D01*
X188691410Y-94059762D01*
X188739029Y-94012143D01*
X188786648Y-93916905D01*
X188786648Y-93726429D01*
X188739029Y-93631190D01*
X188691410Y-93583571D01*
X188596172Y-93535952D01*
X131207381Y-114108095D02*
X132016905Y-114108095D01*
X132112143Y-114060476D01*
X132159762Y-114012857D01*
X132207381Y-113917619D01*
X132207381Y-113727142D01*
X132159762Y-113631904D01*
X132112143Y-113584285D01*
X132016905Y-113536666D01*
X131207381Y-113536666D01*
X132207381Y-112536666D02*
X132207381Y-113108095D01*
X132207381Y-112822381D02*
X131207381Y-112822381D01*
X131350238Y-112917619D01*
X131445476Y-113012857D01*
X131493095Y-113108095D01*
X131207381Y-111917619D02*
X131207381Y-111822380D01*
X131255000Y-111727142D01*
X131302619Y-111679523D01*
X131397857Y-111631904D01*
X131588333Y-111584285D01*
X131826429Y-111584285D01*
X132016905Y-111631904D01*
X132112143Y-111679523D01*
X132159762Y-111727142D01*
X132207381Y-111822380D01*
X132207381Y-111917619D01*
X132159762Y-112012857D01*
X132112143Y-112060476D01*
X132016905Y-112108095D01*
X131826429Y-112155714D01*
X131588333Y-112155714D01*
X131397857Y-112108095D01*
X131302619Y-112060476D01*
X131255000Y-112012857D01*
X131207381Y-111917619D01*
X101202381Y-114014095D02*
X102011905Y-114014095D01*
X102107143Y-113966476D01*
X102154762Y-113918857D01*
X102202381Y-113823619D01*
X102202381Y-113633142D01*
X102154762Y-113537904D01*
X102107143Y-113490285D01*
X102011905Y-113442666D01*
X101202381Y-113442666D01*
X102202381Y-112442666D02*
X102202381Y-113014095D01*
X102202381Y-112728381D02*
X101202381Y-112728381D01*
X101345238Y-112823619D01*
X101440476Y-112918857D01*
X101488095Y-113014095D01*
X102202381Y-111490285D02*
X102202381Y-112061714D01*
X102202381Y-111776000D02*
X101202381Y-111776000D01*
X101345238Y-111871238D01*
X101440476Y-111966476D01*
X101488095Y-112061714D01*
X147351905Y-122392381D02*
X147351905Y-123201905D01*
X147399524Y-123297143D01*
X147447143Y-123344762D01*
X147542381Y-123392381D01*
X147732858Y-123392381D01*
X147828096Y-123344762D01*
X147875715Y-123297143D01*
X147923334Y-123201905D01*
X147923334Y-122392381D01*
X148923334Y-123392381D02*
X148351905Y-123392381D01*
X148637619Y-123392381D02*
X148637619Y-122392381D01*
X148542381Y-122535238D01*
X148447143Y-122630476D01*
X148351905Y-122678095D01*
X149304286Y-122487619D02*
X149351905Y-122440000D01*
X149447143Y-122392381D01*
X149685239Y-122392381D01*
X149780477Y-122440000D01*
X149828096Y-122487619D01*
X149875715Y-122582857D01*
X149875715Y-122678095D01*
X149828096Y-122820952D01*
X149256667Y-123392381D01*
X149875715Y-123392381D01*
X180117905Y-103084381D02*
X180117905Y-103893905D01*
X180165524Y-103989143D01*
X180213143Y-104036762D01*
X180308381Y-104084381D01*
X180498858Y-104084381D01*
X180594096Y-104036762D01*
X180641715Y-103989143D01*
X180689334Y-103893905D01*
X180689334Y-103084381D01*
X181689334Y-104084381D02*
X181117905Y-104084381D01*
X181403619Y-104084381D02*
X181403619Y-103084381D01*
X181308381Y-103227238D01*
X181213143Y-103322476D01*
X181117905Y-103370095D01*
X182546477Y-103417714D02*
X182546477Y-104084381D01*
X182308381Y-103036762D02*
X182070286Y-103751048D01*
X182689334Y-103751048D01*
X102870095Y-82764381D02*
X102870095Y-83573905D01*
X102917714Y-83669143D01*
X102965333Y-83716762D01*
X103060571Y-83764381D01*
X103251048Y-83764381D01*
X103346286Y-83716762D01*
X103393905Y-83669143D01*
X103441524Y-83573905D01*
X103441524Y-82764381D01*
X103822476Y-82764381D02*
X104441524Y-82764381D01*
X104108190Y-83145333D01*
X104251048Y-83145333D01*
X104346286Y-83192952D01*
X104393905Y-83240571D01*
X104441524Y-83335810D01*
X104441524Y-83573905D01*
X104393905Y-83669143D01*
X104346286Y-83716762D01*
X104251048Y-83764381D01*
X103965333Y-83764381D01*
X103870095Y-83716762D01*
X103822476Y-83669143D01*
X125817334Y-99512381D02*
X125341143Y-99512381D01*
X125341143Y-98512381D01*
X126103048Y-98607619D02*
X126150667Y-98560000D01*
X126245905Y-98512381D01*
X126484001Y-98512381D01*
X126579239Y-98560000D01*
X126626858Y-98607619D01*
X126674477Y-98702857D01*
X126674477Y-98798095D01*
X126626858Y-98940952D01*
X126055429Y-99512381D01*
X126674477Y-99512381D01*
X91212095Y-112228381D02*
X91212095Y-113037905D01*
X91259714Y-113133143D01*
X91307333Y-113180762D01*
X91402571Y-113228381D01*
X91593048Y-113228381D01*
X91688286Y-113180762D01*
X91735905Y-113133143D01*
X91783524Y-113037905D01*
X91783524Y-112228381D01*
X92735905Y-112228381D02*
X92259714Y-112228381D01*
X92212095Y-112704571D01*
X92259714Y-112656952D01*
X92354952Y-112609333D01*
X92593048Y-112609333D01*
X92688286Y-112656952D01*
X92735905Y-112704571D01*
X92783524Y-112799810D01*
X92783524Y-113037905D01*
X92735905Y-113133143D01*
X92688286Y-113180762D01*
X92593048Y-113228381D01*
X92354952Y-113228381D01*
X92259714Y-113180762D01*
X92212095Y-113133143D01*
X74942381Y-104901905D02*
X75751905Y-104901905D01*
X75847143Y-104854286D01*
X75894762Y-104806667D01*
X75942381Y-104711429D01*
X75942381Y-104520952D01*
X75894762Y-104425714D01*
X75847143Y-104378095D01*
X75751905Y-104330476D01*
X74942381Y-104330476D01*
X75942381Y-103806667D02*
X75942381Y-103616191D01*
X75894762Y-103520952D01*
X75847143Y-103473333D01*
X75704286Y-103378095D01*
X75513810Y-103330476D01*
X75132857Y-103330476D01*
X75037619Y-103378095D01*
X74990000Y-103425714D01*
X74942381Y-103520952D01*
X74942381Y-103711429D01*
X74990000Y-103806667D01*
X75037619Y-103854286D01*
X75132857Y-103901905D01*
X75370952Y-103901905D01*
X75466190Y-103854286D01*
X75513810Y-103806667D01*
X75561429Y-103711429D01*
X75561429Y-103520952D01*
X75513810Y-103425714D01*
X75466190Y-103378095D01*
X75370952Y-103330476D01*
X115828809Y-75160190D02*
X115828809Y-75636381D01*
X115495476Y-74636381D02*
X115828809Y-75160190D01*
X116162143Y-74636381D01*
X117019286Y-75636381D02*
X116447857Y-75636381D01*
X116733571Y-75636381D02*
X116733571Y-74636381D01*
X116638333Y-74779238D01*
X116543095Y-74874476D01*
X116447857Y-74922095D01*
X180653809Y-93631190D02*
X180653809Y-94107381D01*
X180320476Y-93107381D02*
X180653809Y-93631190D01*
X180987143Y-93107381D01*
X181272857Y-93202619D02*
X181320476Y-93155000D01*
X181415714Y-93107381D01*
X181653810Y-93107381D01*
X181749048Y-93155000D01*
X181796667Y-93202619D01*
X181844286Y-93297857D01*
X181844286Y-93393095D01*
X181796667Y-93535952D01*
X181225238Y-94107381D01*
X181844286Y-94107381D01*
X66848905Y-112043381D02*
X66848905Y-112852905D01*
X66896524Y-112948143D01*
X66944143Y-112995762D01*
X67039381Y-113043381D01*
X67229858Y-113043381D01*
X67325096Y-112995762D01*
X67372715Y-112948143D01*
X67420334Y-112852905D01*
X67420334Y-112043381D01*
X68420334Y-113043381D02*
X67848905Y-113043381D01*
X68134619Y-113043381D02*
X68134619Y-112043381D01*
X68039381Y-112186238D01*
X67944143Y-112281476D01*
X67848905Y-112329095D01*
X68753667Y-112043381D02*
X69372715Y-112043381D01*
X69039381Y-112424333D01*
X69182239Y-112424333D01*
X69277477Y-112471952D01*
X69325096Y-112519571D01*
X69372715Y-112614810D01*
X69372715Y-112852905D01*
X69325096Y-112948143D01*
X69277477Y-112995762D01*
X69182239Y-113043381D01*
X68896524Y-113043381D01*
X68801286Y-112995762D01*
X68753667Y-112948143D01*
X83326667Y-93074762D02*
X83469524Y-93122381D01*
X83707620Y-93122381D01*
X83802858Y-93074762D01*
X83850477Y-93027143D01*
X83898096Y-92931905D01*
X83898096Y-92836667D01*
X83850477Y-92741429D01*
X83802858Y-92693810D01*
X83707620Y-92646190D01*
X83517143Y-92598571D01*
X83421905Y-92550952D01*
X83374286Y-92503333D01*
X83326667Y-92408095D01*
X83326667Y-92312857D01*
X83374286Y-92217619D01*
X83421905Y-92170000D01*
X83517143Y-92122381D01*
X83755239Y-92122381D01*
X83898096Y-92170000D01*
X84231429Y-92122381D02*
X84469524Y-93122381D01*
X84660001Y-92408095D01*
X84850477Y-93122381D01*
X85088572Y-92122381D01*
X85421905Y-92217619D02*
X85469524Y-92170000D01*
X85564762Y-92122381D01*
X85802858Y-92122381D01*
X85898096Y-92170000D01*
X85945715Y-92217619D01*
X85993334Y-92312857D01*
X85993334Y-92408095D01*
X85945715Y-92550952D01*
X85374286Y-93122381D01*
X85993334Y-93122381D01*
X151233143Y-62142666D02*
X151280762Y-62190285D01*
X151328381Y-62333142D01*
X151328381Y-62428380D01*
X151280762Y-62571238D01*
X151185524Y-62666476D01*
X151090286Y-62714095D01*
X150899810Y-62761714D01*
X150756952Y-62761714D01*
X150566476Y-62714095D01*
X150471238Y-62666476D01*
X150376000Y-62571238D01*
X150328381Y-62428380D01*
X150328381Y-62333142D01*
X150376000Y-62190285D01*
X150423619Y-62142666D01*
X151328381Y-61190285D02*
X151328381Y-61761714D01*
X151328381Y-61476000D02*
X150328381Y-61476000D01*
X150471238Y-61571238D01*
X150566476Y-61666476D01*
X150614095Y-61761714D01*
X163425143Y-63158666D02*
X163472762Y-63206285D01*
X163520381Y-63349142D01*
X163520381Y-63444380D01*
X163472762Y-63587238D01*
X163377524Y-63682476D01*
X163282286Y-63730095D01*
X163091810Y-63777714D01*
X162948952Y-63777714D01*
X162758476Y-63730095D01*
X162663238Y-63682476D01*
X162568000Y-63587238D01*
X162520381Y-63444380D01*
X162520381Y-63349142D01*
X162568000Y-63206285D01*
X162615619Y-63158666D01*
X162615619Y-62777714D02*
X162568000Y-62730095D01*
X162520381Y-62634857D01*
X162520381Y-62396761D01*
X162568000Y-62301523D01*
X162615619Y-62253904D01*
X162710857Y-62206285D01*
X162806095Y-62206285D01*
X162948952Y-62253904D01*
X163520381Y-62825333D01*
X163520381Y-62206285D01*
X158853143Y-69730857D02*
X158900762Y-69778476D01*
X158948381Y-69921333D01*
X158948381Y-70016571D01*
X158900762Y-70159429D01*
X158805524Y-70254667D01*
X158710286Y-70302286D01*
X158519810Y-70349905D01*
X158376952Y-70349905D01*
X158186476Y-70302286D01*
X158091238Y-70254667D01*
X157996000Y-70159429D01*
X157948381Y-70016571D01*
X157948381Y-69921333D01*
X157996000Y-69778476D01*
X158043619Y-69730857D01*
X157948381Y-69397524D02*
X157948381Y-68778476D01*
X158329333Y-69111810D01*
X158329333Y-68968952D01*
X158376952Y-68873714D01*
X158424571Y-68826095D01*
X158519810Y-68778476D01*
X158757905Y-68778476D01*
X158853143Y-68826095D01*
X158900762Y-68873714D01*
X158948381Y-68968952D01*
X158948381Y-69254667D01*
X158900762Y-69349905D01*
X158853143Y-69397524D01*
X157948381Y-68159429D02*
X157948381Y-68064190D01*
X157996000Y-67968952D01*
X158043619Y-67921333D01*
X158138857Y-67873714D01*
X158329333Y-67826095D01*
X158567429Y-67826095D01*
X158757905Y-67873714D01*
X158853143Y-67921333D01*
X158900762Y-67968952D01*
X158948381Y-68064190D01*
X158948381Y-68159429D01*
X158900762Y-68254667D01*
X158853143Y-68302286D01*
X158757905Y-68349905D01*
X158567429Y-68397524D01*
X158329333Y-68397524D01*
X158138857Y-68349905D01*
X158043619Y-68302286D01*
X157996000Y-68254667D01*
X157948381Y-68159429D01*
X156548095Y-60367381D02*
X156548095Y-61176905D01*
X156595714Y-61272143D01*
X156643333Y-61319762D01*
X156738571Y-61367381D01*
X156929048Y-61367381D01*
X157024286Y-61319762D01*
X157071905Y-61272143D01*
X157119524Y-61176905D01*
X157119524Y-60367381D01*
X158119524Y-61367381D02*
X157548095Y-61367381D01*
X157833809Y-61367381D02*
X157833809Y-60367381D01*
X157738571Y-60510238D01*
X157643333Y-60605476D01*
X157548095Y-60653095D01*
X83638381Y-81348857D02*
X83162190Y-81682191D01*
X83638381Y-81920286D02*
X82638381Y-81920286D01*
X82638381Y-81539333D01*
X82686000Y-81444095D01*
X82733619Y-81396476D01*
X82828857Y-81348857D01*
X82971714Y-81348857D01*
X83066952Y-81396476D01*
X83114571Y-81444095D01*
X83162190Y-81539333D01*
X83162190Y-81920286D01*
X82733619Y-80967905D02*
X82686000Y-80920286D01*
X82638381Y-80825048D01*
X82638381Y-80586952D01*
X82686000Y-80491714D01*
X82733619Y-80444095D01*
X82828857Y-80396476D01*
X82924095Y-80396476D01*
X83066952Y-80444095D01*
X83638381Y-81015524D01*
X83638381Y-80396476D01*
X83066952Y-79825048D02*
X83019333Y-79920286D01*
X82971714Y-79967905D01*
X82876476Y-80015524D01*
X82828857Y-80015524D01*
X82733619Y-79967905D01*
X82686000Y-79920286D01*
X82638381Y-79825048D01*
X82638381Y-79634571D01*
X82686000Y-79539333D01*
X82733619Y-79491714D01*
X82828857Y-79444095D01*
X82876476Y-79444095D01*
X82971714Y-79491714D01*
X83019333Y-79539333D01*
X83066952Y-79634571D01*
X83066952Y-79825048D01*
X83114571Y-79920286D01*
X83162190Y-79967905D01*
X83257429Y-80015524D01*
X83447905Y-80015524D01*
X83543143Y-79967905D01*
X83590762Y-79920286D01*
X83638381Y-79825048D01*
X83638381Y-79634571D01*
X83590762Y-79539333D01*
X83543143Y-79491714D01*
X83447905Y-79444095D01*
X83257429Y-79444095D01*
X83162190Y-79491714D01*
X83114571Y-79539333D01*
X83066952Y-79634571D01*
X58697905Y-60224381D02*
X58697905Y-59224381D01*
X58936000Y-59224381D01*
X59078858Y-59272000D01*
X59174096Y-59367238D01*
X59221715Y-59462476D01*
X59269334Y-59652952D01*
X59269334Y-59795810D01*
X59221715Y-59986286D01*
X59174096Y-60081524D01*
X59078858Y-60176762D01*
X58936000Y-60224381D01*
X58697905Y-60224381D01*
X59602667Y-59224381D02*
X60269334Y-59224381D01*
X59840762Y-60224381D01*
M02*
